MulatAbay-RegularItalic.ufo
<glyph name="exclam" format="2">
  <advance width="527"/>
  <unicode hex="0021"/>
  <note>
uni0021
</note>
  <outline>
    <contour>
      <point x="62" y="411" type="line"/>
      <point x="229" y="411" type="line"/>
      <point x="427" y="1456" type="line"/>
      <point x="233" y="1456" type="line"/>
    </contour>
    <contour>
      <point x="-14" y="93" type="curve" smooth="yes"/>
      <point x="-25" y="33"/>
      <point x="4" y="-11"/>
      <point x="76" y="-11" type="curve" smooth="yes"/>
      <point x="148" y="-11"/>
      <point x="194" y="33"/>
      <point x="205" y="93" type="curve" smooth="yes"/>
      <point x="215" y="153"/>
      <point x="185" y="199"/>
      <point x="113" y="199" type="curve" smooth="yes"/>
      <point x="41" y="199"/>
      <point x="-4" y="153"/>
    </contour>
  </outline>
</glyph>
<glyph name="dollar" format="2">
  <advance width="1150"/>
  <unicode hex="0024"/>
  <note>
uni0024
</note>
  <outline>
    <contour>
      <point x="280" y="-208" type="line"/>
      <point x="428" y="-208" type="line"/>
      <point x="461" y="-17" type="line"/>
      <point x="710" y="8"/>
      <point x="877" y="152"/>
      <point x="917" y="377" type="curve" smooth="yes"/>
      <point x="955" y="593"/>
      <point x="856" y="719"/>
      <point x="588" y="810" type="curve" smooth="yes"/>
      <point x="397" y="876"/>
      <point x="327" y="946"/>
      <point x="351" y="1082" type="curve" smooth="yes"/>
      <point x="377" y="1229"/>
      <point x="478" y="1315"/>
      <point x="637" y="1315" type="curve" smooth="yes"/>
      <point x="789" y="1315"/>
      <point x="864" y="1196"/>
      <point x="831" y="1008" type="curve"/>
      <point x="1015" y="1008" type="line"/>
      <point x="1063" y="1281"/>
      <point x="960" y="1441"/>
      <point x="742" y="1472" type="curve"/>
      <point x="781" y="1692" type="line"/>
      <point x="632" y="1692" type="line"/>
      <point x="593" y="1473" type="line"/>
      <point x="366" y="1446"/>
      <point x="204" y="1298"/>
      <point x="165" y="1079" type="curve" smooth="yes"/>
      <point x="128" y="864"/>
      <point x="228" y="731"/>
      <point x="497" y="644" type="curve" smooth="yes"/>
      <point x="689" y="576"/>
      <point x="753" y="498"/>
      <point x="731" y="375" type="curve" smooth="yes"/>
      <point x="706" y="230"/>
      <point x="584" y="140"/>
      <point x="409" y="140" type="curve" smooth="yes"/>
      <point x="230" y="140"/>
      <point x="147" y="244"/>
      <point x="180" y="429" type="curve"/>
      <point x="-5" y="429" type="line"/>
      <point x="-52" y="165"/>
      <point x="69" y="6"/>
      <point x="313" y="-17" type="curve"/>
    </contour>
  </outline>
</glyph>
<glyph name="parenleft" format="2">
  <advance width="700"/>
  <unicode hex="0028"/>
  <note>
uni0028
</note>
  <outline>
    <contour>
      <point x="349" y="-470" type="curve"/>
      <point x="407" y="-357" type="line"/>
      <point x="341" y="-293"/>
      <point x="289" y="-204"/>
      <point x="252" y="-91" type="curve" smooth="yes"/>
      <point x="192" y="98"/>
      <point x="184" y="322"/>
      <point x="229" y="579" type="curve" smooth="yes"/>
      <point x="245" y="664" type="line" smooth="yes"/>
      <point x="324" y="1044"/>
      <point x="517" y="1372"/>
      <point x="738" y="1521" type="curve"/>
      <point x="722" y="1643" type="line"/>
      <point x="533" y="1550"/>
      <point x="313" y="1302"/>
      <point x="183" y="1025" type="curve" smooth="yes"/>
      <point x="119" y="886"/>
      <point x="73" y="742"/>
      <point x="46" y="591" type="curve" smooth="yes"/>
      <point x="-9" y="276"/>
      <point x="22" y="5"/>
      <point x="139" y="-222" type="curve" smooth="yes"/>
      <point x="199" y="-338"/>
      <point x="269" y="-421"/>
    </contour>
  </outline>
</glyph>
<glyph name="parenright" format="2">
  <advance width="712"/>
  <unicode hex="0029"/>
  <note>
uni0029
</note>
  <outline>
    <contour>
      <point x="-197" y="-470" type="line"/>
      <point x="-3" y="-373"/>
      <point x="219" y="-119"/>
      <point x="345" y="154" type="curve" smooth="yes"/>
      <point x="408" y="290"/>
      <point x="452" y="432"/>
      <point x="479" y="581" type="curve" smooth="yes"/>
      <point x="534" y="894"/>
      <point x="504" y="1171"/>
      <point x="384" y="1399" type="curve" smooth="yes"/>
      <point x="325" y="1513"/>
      <point x="255" y="1594"/>
      <point x="176" y="1643" type="curve"/>
      <point x="117" y="1530" type="line"/>
      <point x="229" y="1423"/>
      <point x="303" y="1224"/>
      <point x="320" y="984" type="curve" smooth="yes"/>
      <point x="328" y="863"/>
      <point x="319" y="733"/>
      <point x="295" y="593" type="curve" smooth="yes"/>
      <point x="215" y="157"/>
      <point x="17" y="-200"/>
      <point x="-216" y="-357" type="curve"/>
    </contour>
  </outline>
</glyph>
<glyph name="period" format="2">
  <advance width="539"/>
  <unicode hex="002E"/>
  <note>
uni002E
</note>
  <outline>
    <contour>
      <point x="65" y="-11" type="curve" smooth="yes"/>
      <point x="141" y="-11"/>
      <point x="190" y="36"/>
      <point x="200" y="97" type="curve" smooth="yes"/>
      <point x="212" y="161"/>
      <point x="180" y="209"/>
      <point x="104" y="209" type="curve" smooth="yes"/>
      <point x="28" y="209"/>
      <point x="-18" y="161"/>
      <point x="-30" y="97" type="curve" smooth="yes"/>
      <point x="-40" y="36"/>
      <point x="-11" y="-11"/>
    </contour>
  </outline>
</glyph>
<glyph name="zero" format="2">
  <advance width="1150"/>
  <unicode hex="0030"/>
  <note>
uni0030
</note>
  <outline>
    <contour>
      <point x="382" y="-20" type="curve" smooth="yes"/>
      <point x="696" y="-20"/>
      <point x="876" y="188"/>
      <point x="953" y="621" type="curve" smooth="yes"/>
      <point x="995" y="861" type="line" smooth="yes"/>
      <point x="1065" y="1280"/>
      <point x="957" y="1476"/>
      <point x="643" y="1476" type="curve" smooth="yes"/>
      <point x="327" y="1476"/>
      <point x="148" y="1271"/>
      <point x="73" y="843" type="curve" smooth="yes"/>
      <point x="29" y="596" type="line" smooth="yes"/>
      <point x="-38" y="187"/>
      <point x="71" y="-20"/>
    </contour>
    <contour>
      <point x="408" y="131" type="curve" smooth="yes"/>
      <point x="223" y="131"/>
      <point x="158" y="277"/>
      <point x="214" y="592" type="curve" smooth="yes"/>
      <point x="266" y="888" type="line" smooth="yes"/>
      <point x="321" y="1184"/>
      <point x="427" y="1324"/>
      <point x="617" y="1324" type="curve" smooth="yes"/>
      <point x="807" y="1324"/>
      <point x="868" y="1187"/>
      <point x="812" y="874" type="curve" smooth="yes"/>
      <point x="759" y="571" type="line" smooth="yes"/>
      <point x="701" y="267"/>
      <point x="591" y="131"/>
    </contour>
  </outline>
</glyph>
<glyph name="five" format="2">
  <advance width="1150"/>
  <unicode hex="0035"/>
  <note>
uni0035
</note>
  <outline>
    <contour>
      <point x="414" y="-20" type="curve" smooth="yes"/>
      <point x="704" y="-20"/>
      <point x="907" y="164"/>
      <point x="960" y="464" type="curve" smooth="yes"/>
      <point x="1013" y="763"/>
      <point x="878" y="951"/>
      <point x="613" y="951" type="curve" smooth="yes"/>
      <point x="522" y="951"/>
      <point x="438" y="930"/>
      <point x="359" y="888" type="curve"/>
      <point x="473" y="1285" type="line"/>
      <point x="1062" y="1285" type="line"/>
      <point x="1092" y="1456" type="line"/>
      <point x="346" y="1456" type="line"/>
      <point x="144" y="730" type="line"/>
      <point x="285" y="692" type="line"/>
      <point x="394" y="767"/>
      <point x="460" y="785"/>
      <point x="541" y="785" type="curve" smooth="yes"/>
      <point x="717" y="785"/>
      <point x="809" y="657"/>
      <point x="775" y="462" type="curve" smooth="yes"/>
      <point x="738" y="255"/>
      <point x="612" y="131"/>
      <point x="440" y="131" type="curve" smooth="yes"/>
      <point x="283" y="131"/>
      <point x="199" y="216"/>
      <point x="206" y="383" type="curve"/>
      <point x="31" y="383" type="line"/>
      <point x="9" y="131"/>
      <point x="156" y="-20"/>
    </contour>
  </outline>
</glyph>
<glyph name="eight" format="2">
  <advance width="1150"/>
  <unicode hex="0038"/>
  <note>
uni0038
</note>
  <outline>
    <contour>
      <point x="381" y="-20" type="curve" smooth="yes"/>
      <point x="658" y="-20"/>
      <point x="872" y="141"/>
      <point x="917" y="393" type="curve" smooth="yes"/>
      <point x="944" y="552"/>
      <point x="873" y="684"/>
      <point x="732" y="749" type="curve"/>
      <point x="874" y="813"/>
      <point x="977" y="931"/>
      <point x="1003" y="1076" type="curve" smooth="yes"/>
      <point x="1046" y="1321"/>
      <point x="900" y="1476"/>
      <point x="644" y="1476" type="curve" smooth="yes"/>
      <point x="387" y="1476"/>
      <point x="188" y="1321"/>
      <point x="145" y="1076" type="curve" smooth="yes"/>
      <point x="120" y="932"/>
      <point x="178" y="814"/>
      <point x="296" y="750" type="curve"/>
      <point x="133" y="685"/>
      <point x="18" y="550"/>
      <point x="-9" y="393" type="curve" smooth="yes"/>
      <point x="-54" y="142"/>
      <point x="101" y="-20"/>
    </contour>
    <contour>
      <point x="176" y="397" type="curve" smooth="yes"/>
      <point x="205" y="562"/>
      <point x="334" y="673"/>
      <point x="501" y="673" type="curve" smooth="yes"/>
      <point x="668" y="673"/>
      <point x="761" y="560"/>
      <point x="732" y="397" type="curve" smooth="yes"/>
      <point x="703" y="233"/>
      <point x="581" y="131"/>
      <point x="407" y="131" type="curve" smooth="yes"/>
      <point x="233" y="131"/>
      <point x="147" y="232"/>
    </contour>
    <contour>
      <point x="329" y="1073" type="curve" smooth="yes"/>
      <point x="357" y="1228"/>
      <point x="472" y="1324"/>
      <point x="618" y="1324" type="curve" smooth="yes"/>
      <point x="759" y="1324"/>
      <point x="844" y="1221"/>
      <point x="817" y="1073" type="curve" smooth="yes"/>
      <point x="791" y="925"/>
      <point x="678" y="825"/>
      <point x="530" y="825" type="curve" smooth="yes"/>
      <point x="382" y="825"/>
      <point x="303" y="925"/>
    </contour>
  </outline>
</glyph>
<glyph name="nine" format="2">
  <advance width="1150"/>
  <unicode hex="0039"/>
  <note>
uni0039
</note>
  <outline>
    <contour>
      <point x="114" y="-1" type="line" name="❌"/>
      <point x="150" y="-1" type="line" smooth="yes" name="❌"/>
      <point x="603" y="6"/>
      <point x="870" y="253"/>
      <point x="970" y="820" type="curve" smooth="yes"/>
      <point x="979" y="874" type="line" smooth="yes"/>
      <point x="1045" y="1246"/>
      <point x="908" y="1476"/>
      <point x="620" y="1476" type="curve" smooth="yes"/>
      <point x="439" y="1476"/>
      <point x="284" y="1391"/>
      <point x="182" y="1235" type="curve" smooth="yes"/>
      <point x="132" y="1157"/>
      <point x="98" y="1069"/>
      <point x="81" y="972" type="curve" smooth="yes"/>
      <point x="34" y="703"/>
      <point x="145" y="487"/>
      <point x="410" y="487" type="curve" smooth="yes"/>
      <point x="538" y="487"/>
      <point x="659" y="548"/>
      <point x="752" y="640" type="curve"/>
      <point x="679" y="307"/>
      <point x="487" y="160"/>
      <point x="181" y="155" type="curve" smooth="yes"/>
      <point x="142" y="155" type="line"/>
    </contour>
    <contour>
      <point x="467" y="640" type="curve" smooth="yes"/>
      <point x="307" y="640"/>
      <point x="229" y="783"/>
      <point x="264" y="982" type="curve" smooth="yes"/>
      <point x="300" y="1186"/>
      <point x="432" y="1322"/>
      <point x="594" y="1322" type="curve" smooth="yes"/>
      <point x="756" y="1322"/>
      <point x="844" y="1155"/>
      <point x="801" y="912" type="curve" smooth="yes"/>
      <point x="788" y="838" type="line"/>
      <point x="720" y="726"/>
      <point x="591" y="640"/>
    </contour>
  </outline>
</glyph>
<glyph name="question" format="2">
  <advance width="967"/>
  <unicode hex="003F"/>
  <note>
uni003F
</note>
  <outline>
    <contour>
      <point x="239" y="410" type="curve"/>
      <point x="424" y="410" type="line"/>
      <point x="441" y="511"/>
      <point x="479" y="589"/>
      <point x="666" y="751" type="curve" smooth="yes"/>
      <point x="794" y="864"/>
      <point x="868" y="979"/>
      <point x="888" y="1096" type="curve" smooth="yes"/>
      <point x="930" y="1332"/>
      <point x="807" y="1476"/>
      <point x="555" y="1476" type="curve" smooth="yes"/>
      <point x="313" y="1476"/>
      <point x="122" y="1331"/>
      <point x="81" y="1115" type="curve"/>
      <point x="266" y="1115" type="line"/>
      <point x="287" y="1236"/>
      <point x="391" y="1314"/>
      <point x="527" y="1314" type="curve" smooth="yes"/>
      <point x="667" y="1314"/>
      <point x="727" y="1230"/>
      <point x="702" y="1090" type="curve" smooth="yes"/>
      <point x="690" y="1017"/>
      <point x="650" y="949"/>
      <point x="428" y="751" type="curve" smooth="yes"/>
      <point x="305" y="639"/>
      <point x="269" y="569"/>
    </contour>
    <contour>
      <point x="175" y="93" type="curve" smooth="yes"/>
      <point x="164" y="33"/>
      <point x="193" y="-11"/>
      <point x="265" y="-11" type="curve" smooth="yes"/>
      <point x="337" y="-11"/>
      <point x="383" y="33"/>
      <point x="394" y="93" type="curve" smooth="yes"/>
      <point x="404" y="153"/>
      <point x="374" y="199"/>
      <point x="302" y="199" type="curve" smooth="yes"/>
      <point x="230" y="199"/>
      <point x="185" y="153"/>
    </contour>
  </outline>
</glyph>
<glyph name="A" format="2">
  <advance width="1336"/>
  <unicode hex="0041"/>
  <note>
uni0041
</note>
  <outline>
    <contour>
      <point x="-160" y="0" type="line"/>
      <point x="38" y="0" type="line"/>
      <point x="242" y="380" type="line"/>
      <point x="852" y="380" type="line"/>
      <point x="924" y="0" type="line"/>
      <point x="1121" y="0" type="line"/>
      <point x="821" y="1456" type="line"/>
      <point x="653" y="1456" type="line"/>
    </contour>
    <contour>
      <point x="328" y="538" type="line"/>
      <point x="695" y="1219" type="line"/>
      <point x="823" y="538" type="line"/>
    </contour>
  </outline>
</glyph>
<glyph name="C" format="2">
  <advance width="1333"/>
  <unicode hex="0043"/>
  <note>
uni0043
</note>
  <outline>
    <contour>
      <point x="475" y="-20" type="curve" smooth="yes"/>
      <point x="792" y="-20"/>
      <point x="1021" y="154"/>
      <point x="1112" y="462" type="curve"/>
      <point x="919" y="462" type="line"/>
      <point x="839" y="222"/>
      <point x="715" y="137"/>
      <point x="502" y="137" type="curve" smooth="yes"/>
      <point x="265" y="137"/>
      <point x="162" y="338"/>
      <point x="218" y="654" type="curve" smooth="yes"/>
      <point x="242" y="795" type="line" smooth="yes"/>
      <point x="301" y="1130"/>
      <point x="483" y="1318"/>
      <point x="728" y="1318" type="curve" smooth="yes"/>
      <point x="928" y="1318"/>
      <point x="1019" y="1220"/>
      <point x="1011" y="988" type="curve"/>
      <point x="1204" y="988" type="line"/>
      <point x="1227" y="1293"/>
      <point x="1064" y="1476"/>
      <point x="755" y="1476" type="curve" smooth="yes"/>
      <point x="376" y="1476"/>
      <point x="118" y="1183"/>
      <point x="26" y="660" type="curve" smooth="yes"/>
      <point x="-47" y="247"/>
      <point x="131" y="-20"/>
    </contour>
  </outline>
</glyph>
<glyph name="D" format="2">
  <advance width="1343"/>
  <unicode hex="0044"/>
  <note>
uni0044
</note>
  <outline>
    <contour>
      <point x="-22" y="0" type="line"/>
      <point x="381" y="0" type="line" smooth="yes"/>
      <point x="899" y="0"/>
      <point x="1095" y="362"/>
      <point x="1152" y="684" type="curve" smooth="yes"/>
      <point x="1168" y="777" type="line" smooth="yes"/>
      <point x="1260" y="1298"/>
      <point x="901" y="1456"/>
      <point x="646" y="1456" type="curve" smooth="yes"/>
      <point x="235" y="1456" type="line"/>
    </contour>
    <contour>
      <point x="198" y="157" type="line"/>
      <point x="399" y="1298" type="line"/>
      <point x="623" y="1298" type="line" smooth="yes"/>
      <point x="908" y="1298"/>
      <point x="1036" y="1104"/>
      <point x="978" y="773" type="curve" smooth="yes"/>
      <point x="963" y="688" type="line" smooth="yes"/>
      <point x="903" y="348"/>
      <point x="696" y="157"/>
      <point x="400" y="157" type="curve" smooth="yes"/>
    </contour>
  </outline>
</glyph>
<glyph name="G" format="2">
  <advance width="1395"/>
  <unicode hex="0047"/>
  <note>
uni0047
</note>
  <outline>
    <contour>
      <point x="535" y="-20" type="curve" smooth="yes"/>
      <point x="769" y="-20"/>
      <point x="963" y="50"/>
      <point x="1087" y="191" type="curve"/>
      <point x="1181" y="725" type="line"/>
      <point x="653" y="725" type="line"/>
      <point x="626" y="569" type="line"/>
      <point x="963" y="569" type="line"/>
      <point x="905" y="242" type="line"/>
      <point x="821" y="166"/>
      <point x="707" y="137"/>
      <point x="563" y="137" type="curve" smooth="yes"/>
      <point x="309" y="137"/>
      <point x="185" y="344"/>
      <point x="243" y="671" type="curve" smooth="yes"/>
      <point x="264" y="790" type="line" smooth="yes"/>
      <point x="325" y="1133"/>
      <point x="492" y="1318"/>
      <point x="750" y="1318" type="curve" smooth="yes"/>
      <point x="943" y="1318"/>
      <point x="1041" y="1222"/>
      <point x="1043" y="1029" type="curve"/>
      <point x="1235" y="1029" type="line"/>
      <point x="1244" y="1314"/>
      <point x="1080" y="1476"/>
      <point x="776" y="1476" type="curve" smooth="yes"/>
      <point x="406" y="1476"/>
      <point x="147" y="1224"/>
      <point x="70" y="785" type="curve" smooth="yes"/>
      <point x="47" y="658" type="line" smooth="yes"/>
      <point x="-17" y="271"/>
      <point x="151" y="-20"/>
    </contour>
  </outline>
</glyph>
<glyph name="O" format="2">
  <advance width="1408"/>
  <unicode hex="004F"/>
  <note>
uni004F
</note>
  <outline>
    <contour>
      <point x="500" y="-20" type="curve" smooth="yes"/>
      <point x="735" y="-20"/>
      <point x="936" y="95"/>
      <point x="1070" y="308" type="curve" smooth="yes"/>
      <point x="1136" y="414"/>
      <point x="1182" y="538"/>
      <point x="1207" y="681" type="curve" smooth="yes"/>
      <point x="1224" y="773" type="line" smooth="yes"/>
      <point x="1274" y="1057"/>
      <point x="1214" y="1279"/>
      <point x="1056" y="1392" type="curve" smooth="yes"/>
      <point x="977" y="1448"/>
      <point x="878" y="1476"/>
      <point x="761" y="1476" type="curve" smooth="yes"/>
      <point x="532" y="1476"/>
      <point x="326" y="1359"/>
      <point x="191" y="1144" type="curve" smooth="yes"/>
      <point x="123" y="1037"/>
      <point x="77" y="913"/>
      <point x="53" y="773" type="curve" smooth="yes"/>
      <point x="34" y="668" type="line" smooth="yes"/>
      <point x="-30" y="282"/>
      <point x="126" y="-20"/>
    </contour>
    <contour>
      <point x="528" y="143" type="curve" smooth="yes"/>
      <point x="281" y="143"/>
      <point x="168" y="346"/>
      <point x="227" y="681" type="curve" smooth="yes"/>
      <point x="246" y="788" type="line" smooth="yes"/>
      <point x="308" y="1116"/>
      <point x="489" y="1311"/>
      <point x="732" y="1311" type="curve" smooth="yes"/>
      <point x="981" y="1311"/>
      <point x="1094" y="1120"/>
      <point x="1033" y="775" type="curve" smooth="yes"/>
      <point x="1014" y="667" type="line" smooth="yes"/>
      <point x="950" y="330"/>
      <point x="776" y="143"/>
    </contour>
  </outline>
</glyph>
<glyph name="T" format="2">
  <advance width="1222"/>
  <unicode hex="0054"/>
  <note>
uni0054
</note>
  <outline>
    <contour>
      <point x="325" y="0" type="line"/>
      <point x="516" y="0" type="line"/>
      <point x="745" y="1298" type="line"/>
      <point x="1213" y="1298" type="line"/>
      <point x="1241" y="1456" type="line"/>
      <point x="115" y="1456" type="line"/>
      <point x="87" y="1298" type="line"/>
      <point x="554" y="1298" type="line"/>
    </contour>
  </outline>
</glyph>
<glyph name="U" format="2">
  <advance width="1328"/>
  <unicode hex="0055"/>
  <note>
uni0055
</note>
  <anchor x="338" y="1089" name="he"/>
  <outline>
    <contour>
      <point x="471" y="-20" type="curve" smooth="yes"/>
      <point x="775" y="-20"/>
      <point x="1037" y="191"/>
      <point x="1085" y="466" type="curve" smooth="yes"/>
      <point x="1260" y="1456" type="line"/>
      <point x="1067" y="1456" type="line"/>
      <point x="893" y="469" type="line" smooth="yes"/>
      <point x="856" y="258"/>
      <point x="716" y="137"/>
      <point x="498" y="137" type="curve" smooth="yes"/>
      <point x="284" y="137"/>
      <point x="185" y="259"/>
      <point x="222" y="470" type="curve" smooth="yes"/>
      <point x="396" y="1456" type="line"/>
      <point x="206" y="1456" type="line"/>
      <point x="31" y="464" type="line" smooth="yes"/>
      <point x="-22" y="163"/>
      <point x="153" y="-20"/>
    </contour>
  </outline>
</glyph>
<glyph name="bracketright" format="2">
  <advance width="543"/>
  <unicode hex="005D"/>
  <note>
uni005D
</note>
  <outline>
    <contour>
      <point x="-237" y="-312" type="line"/>
      <point x="141" y="-312" type="line"/>
      <point x="490" y="1664" type="line"/>
      <point x="112" y="1664" type="line"/>
      <point x="85" y="1512" type="line"/>
      <point x="278" y="1512" type="line"/>
      <point x="-17" y="-160" type="line"/>
      <point x="-210" y="-160" type="line"/>
    </contour>
  </outline>
</glyph>
<glyph name="b" format="2">
  <advance width="1149"/>
  <unicode hex="0062"/>
  <note>
uni0062
</note>
  <outline>
    <contour>
      <point x="442" y="-20" type="curve" smooth="yes"/>
      <point x="698" y="-20"/>
      <point x="900" y="198"/>
      <point x="958" y="529" type="curve" smooth="yes"/>
      <point x="961" y="545" type="line" smooth="yes"/>
      <point x="1022" y="890"/>
      <point x="900" y="1102"/>
      <point x="638" y="1102" type="curve" smooth="yes"/>
      <point x="506" y="1102"/>
      <point x="395" y="1056"/>
      <point x="304" y="963" type="curve"/>
      <point x="405" y="1536" type="line"/>
      <point x="220" y="1536" type="line"/>
      <point x="-51" y="0" type="line"/>
      <point x="119" y="0" type="line"/>
      <point x="150" y="125" type="line"/>
      <point x="208" y="28"/>
      <point x="305" y="-20"/>
    </contour>
    <contour>
      <point x="423" y="137" type="curve" smooth="yes"/>
      <point x="303" y="137"/>
      <point x="225" y="194"/>
      <point x="188" y="307" type="curve"/>
      <point x="271" y="775" type="line"/>
      <point x="344" y="888"/>
      <point x="442" y="945"/>
      <point x="564" y="945" type="curve" smooth="yes"/>
      <point x="747" y="945"/>
      <point x="822" y="802"/>
      <point x="777" y="550" type="curve" smooth="yes"/>
      <point x="729" y="274"/>
      <point x="601" y="137"/>
    </contour>
  </outline>
</glyph>
<glyph name="c" format="2">
  <advance width="1072"/>
  <unicode hex="0063"/>
  <note>
uni0063
</note>
  <outline>
    <contour>
      <point x="390" y="-20" type="curve" smooth="yes"/>
      <point x="601" y="-20"/>
      <point x="837" y="136"/>
      <point x="883" y="341" type="curve"/>
      <point x="708" y="341" type="line"/>
      <point x="676" y="221"/>
      <point x="548" y="131"/>
      <point x="416" y="131" type="curve" smooth="yes"/>
      <point x="225" y="131"/>
      <point x="144" y="271"/>
      <point x="188" y="520" type="curve" smooth="yes"/>
      <point x="194" y="555" type="line" smooth="yes"/>
      <point x="239" y="811"/>
      <point x="372" y="950"/>
      <point x="560" y="950" type="curve" smooth="yes"/>
      <point x="700" y="950"/>
      <point x="787" y="850"/>
      <point x="773" y="710" type="curve"/>
      <point x="948" y="710" type="line"/>
      <point x="978" y="942"/>
      <point x="830" y="1102"/>
      <point x="587" y="1102" type="curve" smooth="yes"/>
      <point x="297" y="1102"/>
      <point x="70" y="894"/>
      <point x="10" y="562" type="curve" smooth="yes"/>
      <point x="5" y="531" type="line" smooth="yes"/>
      <point x="-55" y="190"/>
      <point x="95" y="-20"/>
    </contour>
  </outline>
</glyph>
<glyph name="e" format="2">
  <advance width="1085"/>
  <unicode hex="0065"/>
  <note>
uni0065
</note>
  <outline>
    <contour>
      <point x="405" y="-20" type="curve" smooth="yes"/>
      <point x="586" y="-20"/>
      <point x="734" y="50"/>
      <point x="850" y="189" type="curve"/>
      <point x="752" y="277" type="line"/>
      <point x="669" y="189"/>
      <point x="572" y="131"/>
      <point x="441" y="131" type="curve" smooth="yes"/>
      <point x="257" y="131"/>
      <point x="151" y="275"/>
      <point x="183" y="488" type="curve"/>
      <point x="916" y="488" type="line"/>
      <point x="930" y="565" type="line" smooth="yes"/>
      <point x="991" y="910"/>
      <point x="861" y="1102"/>
      <point x="580" y="1102" type="curve" smooth="yes"/>
      <point x="408" y="1102"/>
      <point x="233" y="1001"/>
      <point x="121" y="833" type="curve" smooth="yes"/>
      <point x="65" y="748"/>
      <point x="27" y="652"/>
      <point x="2" y="511" type="curve" smooth="yes"/>
      <point x="-55" y="188"/>
      <point x="112" y="-20"/>
    </contour>
    <contour>
      <point x="216" y="640" type="line"/>
      <point x="275" y="836"/>
      <point x="404" y="950"/>
      <point x="553" y="950" type="curve" smooth="yes"/>
      <point x="708" y="950"/>
      <point x="783" y="842"/>
      <point x="761" y="654" type="curve" smooth="yes"/>
      <point x="758" y="640" type="line"/>
    </contour>
  </outline>
</glyph>
<glyph name="m" format="2">
  <advance width="1795"/>
  <unicode hex="006D"/>
  <note>
uni006D
</note>
  <outline>
    <contour>
      <point x="-51" y="0" type="line"/>
      <point x="134" y="0" type="line"/>
      <point x="274" y="790" type="line"/>
      <point x="337" y="893"/>
      <point x="429" y="945"/>
      <point x="550" y="945" type="curve" smooth="yes"/>
      <point x="704" y="945"/>
      <point x="767" y="866"/>
      <point x="739" y="709" type="curve" smooth="yes"/>
      <point x="614" y="0" type="line"/>
      <point x="800" y="0" type="line"/>
      <point x="927" y="718" type="line"/>
      <point x="966" y="857"/>
      <point x="1080" y="945"/>
      <point x="1217" y="945" type="curve" smooth="yes"/>
      <point x="1384" y="945"/>
      <point x="1434" y="869"/>
      <point x="1407" y="714" type="curve" smooth="yes"/>
      <point x="1281" y="0" type="line"/>
      <point x="1466" y="0" type="line"/>
      <point x="1594" y="725" type="line" smooth="yes"/>
      <point x="1634" y="976"/>
      <point x="1536" y="1102"/>
      <point x="1299" y="1102" type="curve" smooth="yes"/>
      <point x="1142" y="1102"/>
      <point x="1013" y="1032"/>
      <point x="923" y="928" type="curve"/>
      <point x="888" y="1044"/>
      <point x="796" y="1102"/>
      <point x="645" y="1102" type="curve" smooth="yes"/>
      <point x="510" y="1102"/>
      <point x="394" y="1055"/>
      <point x="299" y="962" type="curve"/>
      <point x="315" y="1082" type="line"/>
      <point x="140" y="1082" type="line"/>
    </contour>
  </outline>
</glyph>
<glyph name="o" format="2">
  <advance width="1168"/>
  <unicode hex="006F"/>
  <note>
uni006F
</note>
  <outline>
    <contour>
      <point x="390" y="-20" type="curve" smooth="yes"/>
      <point x="703" y="-20"/>
      <point x="926" y="227"/>
      <point x="978" y="529" type="curve" smooth="yes"/>
      <point x="1040" y="881"/>
      <point x="880" y="1102"/>
      <point x="586" y="1102" type="curve" smooth="yes"/>
      <point x="395" y="1102"/>
      <point x="223" y="1006"/>
      <point x="110" y="837" type="curve" smooth="yes"/>
      <point x="-103" y="514"/>
      <point x="-71" y="-20"/>
    </contour>
    <contour>
      <point x="416" y="131" type="curve" smooth="yes"/>
      <point x="230" y="131"/>
      <point x="137" y="289"/>
      <point x="179" y="529" type="curve" smooth="yes"/>
      <point x="227" y="800"/>
      <point x="376" y="950"/>
      <point x="559" y="950" type="curve" smooth="yes"/>
      <point x="745" y="950"/>
      <point x="839" y="788"/>
      <point x="797" y="551" type="curve" smooth="yes"/>
      <point x="751" y="286"/>
      <point x="604" y="131"/>
    </contour>
  </outline>
</glyph>
<glyph name="s" format="2">
  <advance width="1056"/>
  <unicode hex="0073"/>
  <note>
uni0073
</note>
  <outline>
    <contour>
      <point x="344" y="-20" type="curve" smooth="yes"/>
      <point x="590" y="-20"/>
      <point x="783" y="107"/>
      <point x="817" y="300" type="curve" smooth="yes"/>
      <point x="855" y="510"/>
      <point x="669" y="581"/>
      <point x="481" y="625" type="curve" smooth="yes"/>
      <point x="376" y="650"/>
      <point x="246" y="677"/>
      <point x="266" y="791" type="curve" smooth="yes"/>
      <point x="282" y="886"/>
      <point x="374" y="950"/>
      <point x="509" y="950" type="curve" smooth="yes"/>
      <point x="639" y="950"/>
      <point x="721" y="865"/>
      <point x="703" y="764" type="curve"/>
      <point x="889" y="764" type="line"/>
      <point x="924" y="961"/>
      <point x="781" y="1102"/>
      <point x="536" y="1102" type="curve" smooth="yes"/>
      <point x="302" y="1102"/>
      <point x="111" y="962"/>
      <point x="80" y="785" type="curve" smooth="yes"/>
      <point x="44" y="585"/>
      <point x="224" y="516"/>
      <point x="409" y="475" type="curve" smooth="yes"/>
      <point x="590" y="435"/>
      <point x="647" y="387"/>
      <point x="630" y="287" type="curve" smooth="yes"/>
      <point x="613" y="192"/>
      <point x="510" y="131"/>
      <point x="370" y="131" type="curve" smooth="yes"/>
      <point x="218" y="131"/>
      <point x="133" y="209"/>
      <point x="148" y="333" type="curve"/>
      <point x="-37" y="333" type="line"/>
      <point x="-77" y="108"/>
      <point x="116" y="-20"/>
    </contour>
  </outline>
</glyph>
<glyph name="u" format="2">
  <advance width="1129"/>
  <unicode hex="0075"/>
  <note>
uni0075
</note>
  <outline>
    <contour>
      <point x="297" y="-20" type="curve" smooth="yes"/>
      <point x="436" y="-20"/>
      <point x="549" y="22"/>
      <point x="636" y="107" type="curve"/>
      <point x="621" y="0" type="line"/>
      <point x="797" y="0" type="line"/>
      <point x="988" y="1082" type="line"/>
      <point x="803" y="1082" type="line"/>
      <point x="664" y="295" type="line"/>
      <point x="599" y="190"/>
      <point x="496" y="137"/>
      <point x="354" y="137" type="curve" smooth="yes"/>
      <point x="221" y="137"/>
      <point x="169" y="219"/>
      <point x="198" y="383" type="curve" smooth="yes"/>
      <point x="321" y="1082" type="line"/>
      <point x="136" y="1082" type="line"/>
      <point x="12" y="378" type="line" smooth="yes"/>
      <point x="-33" y="115"/>
      <point x="66" y="-20"/>
    </contour>
  </outline>
</glyph>
<glyph name="w" format="2">
  <advance width="1539"/>
  <unicode hex="0077"/>
  <note>
uni0077
</note>
  <outline>
    <contour>
      <point x="166" y="0" type="line"/>
      <point x="316" y="0" type="line"/>
      <point x="717" y="820" type="line"/>
      <point x="835" y="0" type="line"/>
      <point x="985" y="0" type="line"/>
      <point x="1491" y="1082" type="line"/>
      <point x="1306" y="1082" type="line"/>
      <point x="952" y="255" type="line"/>
      <point x="841" y="1082" type="line"/>
      <point x="692" y="1082" type="line"/>
      <point x="297" y="272" type="line"/>
      <point x="227" y="1082" type="line"/>
      <point x="43" y="1082" type="line"/>
    </contour>
  </outline>
</glyph>
<glyph name="braceleft" format="2">
  <advance width="693"/>
  <unicode hex="007B"/>
  <note>
uni007B
</note>
  <outline>
    <contour>
      <point x="377" y="-366" type="curve"/>
      <point x="435" y="-251" type="line"/>
      <point x="305" y="-207"/>
      <point x="256" y="-93"/>
      <point x="286" y="90" type="curve" smooth="yes"/>
      <point x="322" y="296" type="line" smooth="yes"/>
      <point x="349" y="449"/>
      <point x="312" y="555"/>
      <point x="212" y="615" type="curve"/>
      <point x="333" y="674"/>
      <point x="408" y="780"/>
      <point x="434" y="931" type="curve" smooth="yes"/>
      <point x="470" y="1133" type="line" smooth="yes"/>
      <point x="503" y="1321"/>
      <point x="593" y="1437"/>
      <point x="741" y="1482" type="curve"/>
      <point x="723" y="1597" type="line"/>
      <point x="472" y="1529"/>
      <point x="332" y="1382"/>
      <point x="286" y="1138" type="curve" smooth="yes"/>
      <point x="249" y="930" type="line" smooth="yes"/>
      <point x="221" y="769"/>
      <point x="136" y="688"/>
      <point x="-5" y="688" type="curve"/>
      <point x="-31" y="543" type="line"/>
      <point x="110" y="543"/>
      <point x="167" y="462"/>
      <point x="138" y="300" type="curve" smooth="yes"/>
      <point x="103" y="101" type="line" smooth="yes"/>
      <point x="59" y="-150"/>
      <point x="152" y="-299"/>
    </contour>
  </outline>
</glyph>
<glyph name="asciitilde" format="2">
  <advance width="1393"/>
  <unicode hex="007E"/>
  <note>
uni007E
</note>
  <outline>
    <contour>
      <point x="819" y="402" type="curve" smooth="yes"/>
      <point x="1002" y="402"/>
      <point x="1172" y="566"/>
      <point x="1209" y="777" type="curve"/>
      <point x="1056" y="776" type="line"/>
      <point x="1034" y="649"/>
      <point x="948" y="560"/>
      <point x="819" y="567" type="curve" smooth="yes"/>
      <point x="777" y="569"/>
      <point x="732" y="604"/>
      <point x="683" y="658" type="curve" smooth="yes"/>
      <point x="585" y="765"/>
      <point x="506" y="802"/>
      <point x="405" y="802" type="curve" smooth="yes"/>
      <point x="219" y="802"/>
      <point x="55" y="649"/>
      <point x="17" y="436" type="curve"/>
      <point x="178" y="438" type="line"/>
      <point x="201" y="563"/>
      <point x="272" y="639"/>
      <point x="376" y="639" type="curve" smooth="yes"/>
      <point x="458" y="639"/>
      <point x="506" y="582"/>
      <point x="557" y="529" type="curve" smooth="yes"/>
      <point x="652" y="430"/>
      <point x="723" y="402"/>
    </contour>
  </outline>
</glyph>
<glyph name="exclamdown" format="2">
  <advance width="499"/>
  <unicode hex="00A1"/>
  <note>
uni00A1
</note>
  <outline>
    <contour>
      <point x="-97" y="-360" type="line"/>
      <point x="97" y="-360" type="line"/>
      <point x="268" y="684" type="line"/>
      <point x="100" y="684" type="line"/>
    </contour>
    <contour>
      <point x="124" y="996" type="curve" smooth="yes"/>
      <point x="113" y="936"/>
      <point x="143" y="889"/>
      <point x="215" y="889" type="curve" smooth="yes"/>
      <point x="287" y="889"/>
      <point x="332" y="936"/>
      <point x="343" y="996" type="curve" smooth="yes"/>
      <point x="353" y="1056"/>
      <point x="324" y="1101"/>
      <point x="252" y="1101" type="curve" smooth="yes"/>
      <point x="180" y="1101"/>
      <point x="134" y="1056"/>
    </contour>
  </outline>
</glyph>
<glyph name="cent" format="2">
  <advance width="1120"/>
  <unicode hex="00A2"/>
  <note>
uni00A2
</note>
  <outline>
    <contour>
      <point x="250" y="-245" type="line"/>
      <point x="435" y="-245" type="line"/>
      <point x="476" y="-12" type="line"/>
      <point x="674" y="23"/>
      <point x="849" y="173"/>
      <point x="886" y="341" type="curve"/>
      <point x="711" y="341" type="line"/>
      <point x="680" y="222"/>
      <point x="552" y="131"/>
      <point x="418" y="131" type="curve" smooth="yes"/>
      <point x="230" y="131"/>
      <point x="147" y="271"/>
      <point x="191" y="520" type="curve" smooth="yes"/>
      <point x="197" y="555" type="line" smooth="yes"/>
      <point x="242" y="811"/>
      <point x="375" y="950"/>
      <point x="563" y="950" type="curve" smooth="yes"/>
      <point x="703" y="950"/>
      <point x="790" y="850"/>
      <point x="776" y="710" type="curve"/>
      <point x="951" y="710" type="line"/>
      <point x="979" y="910"/>
      <point x="866" y="1064"/>
      <point x="671" y="1095" type="curve"/>
      <point x="711" y="1318" type="line"/>
      <point x="526" y="1318" type="line"/>
      <point x="486" y="1092" type="line"/>
      <point x="242" y="1048"/>
      <point x="63" y="845"/>
      <point x="13" y="562" type="curve" smooth="yes"/>
      <point x="7" y="527" type="line" smooth="yes"/>
      <point x="-45" y="234"/>
      <point x="61" y="34"/>
      <point x="291" y="-11" type="curve"/>
    </contour>
  </outline>
</glyph>
<glyph name="sterling" format="2">
  <advance width="1190"/>
  <unicode hex="00A3"/>
  <note>
uni00A3
</note>
  <outline>
    <contour>
      <point x="-96" y="0" type="line"/>
      <point x="936" y="0" type="line"/>
      <point x="965" y="157" type="line"/>
      <point x="232" y="157" type="line"/>
      <point x="284" y="218"/>
      <point x="319" y="299"/>
      <point x="337" y="402" type="curve"/>
      <point x="368" y="622" type="line"/>
      <point x="682" y="622" type="line"/>
      <point x="710" y="779" type="line"/>
      <point x="391" y="779" type="line"/>
      <point x="427" y="1039" type="line"/>
      <point x="457" y="1206"/>
      <point x="572" y="1318"/>
      <point x="712" y="1318" type="curve" smooth="yes"/>
      <point x="860" y="1318"/>
      <point x="934" y="1230"/>
      <point x="909" y="1087" type="curve"/>
      <point x="1100" y="1087" type="line"/>
      <point x="1141" y="1323"/>
      <point x="1010" y="1476"/>
      <point x="756" y="1476" type="curve" smooth="yes"/>
      <point x="490" y="1476"/>
      <point x="281" y="1304"/>
      <point x="234" y="1039" type="curve"/>
      <point x="198" y="779" type="line"/>
      <point x="38" y="779" type="line"/>
      <point x="10" y="622" type="line"/>
      <point x="175" y="622" type="line"/>
      <point x="143" y="393" type="line" smooth="yes"/>
      <point x="117" y="265"/>
      <point x="64" y="169"/>
      <point x="9" y="157" type="curve"/>
      <point x="-68" y="157" type="line"/>
    </contour>
  </outline>
</glyph>
<glyph name="currency" format="2">
  <advance width="1460"/>
  <unicode hex="00A4"/>
  <note>
uni00A4
</note>
  <outline>
    <contour>
      <point x="1043" y="-27" type="line"/>
      <point x="1199" y="109" type="line"/>
      <point x="1082" y="253" type="line"/>
      <point x="1169" y="359"/>
      <point x="1223" y="477"/>
      <point x="1246" y="608" type="curve" smooth="yes"/>
      <point x="1270" y="743"/>
      <point x="1255" y="865"/>
      <point x="1201" y="974" type="curve"/>
      <point x="1379" y="1128" type="line"/>
      <point x="1271" y="1265" type="line"/>
      <point x="1095" y="1113" type="line"/>
      <point x="1004" y="1194"/>
      <point x="892" y="1234"/>
      <point x="762" y="1234" type="curve" smooth="yes"/>
      <point x="632" y="1234"/>
      <point x="507" y="1194"/>
      <point x="388" y="1114" type="curve"/>
      <point x="267" y="1264" type="line"/>
      <point x="113" y="1128" type="line"/>
      <point x="233" y="977" type="line"/>
      <point x="140" y="868"/>
      <point x="81" y="745"/>
      <point x="56" y="608" type="curve" smooth="yes"/>
      <point x="33" y="473"/>
      <point x="46" y="354"/>
      <point x="97" y="250" type="curve"/>
      <point x="-67" y="109" type="line"/>
      <point x="40" y="-26" type="line"/>
      <point x="198" y="110" type="line"/>
      <point x="288" y="23"/>
      <point x="403" y="-20"/>
      <point x="541" y="-20" type="curve" smooth="yes"/>
      <point x="680" y="-20"/>
      <point x="810" y="24"/>
      <point x="932" y="112" type="curve"/>
    </contour>
    <contour>
      <point x="571" y="151" type="curve" smooth="yes"/>
      <point x="339" y="151"/>
      <point x="183" y="355"/>
      <point x="227" y="608" type="curve" smooth="yes"/>
      <point x="271" y="855"/>
      <point x="494" y="1062"/>
      <point x="731" y="1062" type="curve" smooth="yes"/>
      <point x="1086" y="1058"/>
      <point x="1108" y="806"/>
      <point x="1076" y="621" type="curve" smooth="yes"/>
      <point x="1032" y="374"/>
      <point x="818" y="151"/>
    </contour>
  </outline>
</glyph>
<glyph name="twosuperior" format="2">
  <advance width="751"/>
  <unicode hex="00B2"/>
  <note>
uni00B2
</note>
  <outline>
    <contour>
      <point x="11" y="667" type="line"/>
      <point x="610" y="667" type="line"/>
      <point x="632" y="795" type="line"/>
      <point x="233" y="795" type="line"/>
      <point x="435" y="940" type="line"/>
      <point x="617" y="1090"/>
      <point x="665" y="1161"/>
      <point x="677" y="1230" type="curve" smooth="yes"/>
      <point x="703" y="1377"/>
      <point x="609" y="1467"/>
      <point x="433" y="1467" type="curve" smooth="yes"/>
      <point x="257" y="1467"/>
      <point x="114" y="1357"/>
      <point x="88" y="1205" type="curve"/>
      <point x="245" y="1205" type="line"/>
      <point x="258" y="1281"/>
      <point x="314" y="1338"/>
      <point x="414" y="1338" type="curve" smooth="yes"/>
      <point x="494" y="1338"/>
      <point x="530" y="1293"/>
      <point x="519" y="1228" type="curve" smooth="yes"/>
      <point x="511" y="1182"/>
      <point x="464" y="1125"/>
      <point x="380" y="1057" type="curve" smooth="yes"/>
      <point x="30" y="775" type="line"/>
    </contour>
  </outline>
</glyph>
<glyph name="cedilla" format="2">
  <advance width="507"/>
  <unicode hex="00B8"/>
  <note>
uni00B8
</note>
  <outline>
    <contour>
      <point x="-144" y="-435" type="line"/>
      <point x="46" y="-435"/>
      <point x="173" y="-354"/>
      <point x="196" y="-225" type="curve" smooth="yes"/>
      <point x="213" y="-128"/>
      <point x="172" y="-70"/>
      <point x="73" y="-52" type="curve"/>
      <point x="94" y="0" type="line"/>
      <point x="-39" y="0" type="line"/>
      <point x="-94" y="-134" type="line"/>
      <point x="-22" y="-141"/>
      <point x="65" y="-148"/>
      <point x="51" y="-229" type="curve" smooth="yes"/>
      <point x="40" y="-292"/>
      <point x="-27" y="-328"/>
      <point x="-133" y="-328" type="curve"/>
    </contour>
  </outline>
</glyph>
<glyph name="ordmasculine" format="2">
  <advance width="931"/>
  <unicode hex="00BA"/>
  <note>
uni00BA
</note>
  <outline>
    <contour>
      <point x="397" y="690" type="curve" smooth="yes"/>
      <point x="602" y="690"/>
      <point x="763" y="831"/>
      <point x="800" y="1043" type="curve" smooth="yes"/>
      <point x="813" y="1117" type="line" smooth="yes"/>
      <point x="852" y="1338"/>
      <point x="740" y="1476"/>
      <point x="533" y="1476" type="curve" smooth="yes"/>
      <point x="328" y="1476"/>
      <point x="166" y="1334"/>
      <point x="129" y="1123" type="curve" smooth="yes"/>
      <point x="116" y="1049" type="line" smooth="yes"/>
      <point x="77" y="829"/>
      <point x="192" y="690"/>
    </contour>
    <contour>
      <point x="421" y="829" type="curve" smooth="yes"/>
      <point x="309" y="829"/>
      <point x="255" y="910"/>
      <point x="278" y="1043" type="curve" smooth="yes"/>
      <point x="293" y="1129" type="line" smooth="yes"/>
      <point x="319" y="1258"/>
      <point x="401" y="1336"/>
      <point x="509" y="1336" type="curve" smooth="yes"/>
      <point x="619" y="1336"/>
      <point x="675" y="1255"/>
      <point x="651" y="1123" type="curve" smooth="yes"/>
      <point x="637" y="1045" type="line" smooth="yes"/>
      <point x="614" y="910"/>
      <point x="532" y="829"/>
    </contour>
  </outline>
</glyph>
<glyph name="Eth" format="2">
  <advance width="1373"/>
  <unicode hex="00D0"/>
  <note>
uni00D0
</note>
  <outline>
    <contour>
      <point x="8" y="0" type="line"/>
      <point x="411" y="0" type="line" smooth="yes"/>
      <point x="930" y="5"/>
      <point x="1155" y="530"/>
      <point x="1182" y="684" type="curve" smooth="yes"/>
      <point x="1198" y="777" type="line" smooth="yes"/>
      <point x="1237" y="1010"/>
      <point x="1176" y="1170"/>
      <point x="1079" y="1276" type="curve" smooth="yes"/>
      <point x="958" y="1408"/>
      <point x="783" y="1456"/>
      <point x="676" y="1456" type="curve" smooth="yes"/>
      <point x="265" y="1456" type="line"/>
      <point x="152" y="817" type="line"/>
      <point x="-40" y="817" type="line"/>
      <point x="-66" y="666" type="line"/>
      <point x="126" y="666" type="line"/>
    </contour>
    <contour>
      <point x="228" y="157" type="line"/>
      <point x="318" y="666" type="line"/>
      <point x="570" y="666" type="line"/>
      <point x="596" y="817" type="line"/>
      <point x="344" y="817" type="line"/>
      <point x="429" y="1298" type="line"/>
      <point x="653" y="1298" type="line" smooth="yes"/>
      <point x="938" y="1295"/>
      <point x="1066" y="1104"/>
      <point x="1008" y="773" type="curve" smooth="yes"/>
      <point x="991" y="680" type="line" smooth="yes"/>
      <point x="931" y="348"/>
      <point x="725" y="157"/>
      <point x="429" y="157" type="curve" smooth="yes"/>
    </contour>
  </outline>
</glyph>
<glyph name="germandbls" format="2">
  <advance width="1218"/>
  <unicode hex="00DF"/>
  <note>
uni00DF
</note>
  <outline>
    <contour>
      <point x="551" y="-20" type="curve" smooth="yes"/>
      <point x="793" y="-20"/>
      <point x="958" y="105"/>
      <point x="995" y="317" type="curve" smooth="yes"/>
      <point x="1013" y="418"/>
      <point x="974" y="505"/>
      <point x="865" y="601" type="curve" smooth="yes"/>
      <point x="757" y="697"/>
      <point x="723" y="751"/>
      <point x="735" y="819" type="curve" smooth="yes"/>
      <point x="743" y="865"/>
      <point x="774" y="922"/>
      <point x="829" y="990" type="curve" smooth="yes"/>
      <point x="883" y="1057"/>
      <point x="918" y="1133"/>
      <point x="933" y="1216" type="curve" smooth="yes"/>
      <point x="970" y="1428"/>
      <point x="855" y="1554"/>
      <point x="615" y="1554" type="curve" smooth="yes"/>
      <point x="367" y="1554"/>
      <point x="193" y="1388"/>
      <point x="144" y="1111" type="curve" smooth="yes"/>
      <point x="-52" y="0" type="line"/>
      <point x="133" y="0" type="line"/>
      <point x="329" y="1109" type="line" smooth="yes"/>
      <point x="363" y="1304"/>
      <point x="453" y="1402"/>
      <point x="598" y="1402" type="curve" smooth="yes"/>
      <point x="716" y="1402"/>
      <point x="777" y="1326"/>
      <point x="755" y="1201" type="curve" smooth="yes"/>
      <point x="745" y="1145"/>
      <point x="711" y="1083"/>
      <point x="652" y="1014" type="curve" smooth="yes"/>
      <point x="594" y="945"/>
      <point x="559" y="880"/>
      <point x="549" y="821" type="curve" smooth="yes"/>
      <point x="530" y="713"/>
      <point x="570" y="627"/>
      <point x="679" y="529" type="curve" smooth="yes"/>
      <point x="788" y="431"/>
      <point x="821" y="376"/>
      <point x="808" y="307" type="curve" smooth="yes"/>
      <point x="789" y="198"/>
      <point x="700" y="131"/>
      <point x="557" y="131" type="curve" smooth="yes"/>
      <point x="487" y="131"/>
      <point x="392" y="164"/>
      <point x="334" y="207" type="curve"/>
      <point x="263" y="52" type="line"/>
      <point x="307" y="15"/>
      <point x="443" y="-20"/>
    </contour>
  </outline>
</glyph>
<glyph name="eth" format="2">
  <advance width="1200"/>
  <unicode hex="00F0"/>
  <note>
uni00F0
</note>
  <outline>
    <contour>
      <point x="408" y="-20" type="curve" smooth="yes"/>
      <point x="586" y="-20"/>
      <point x="756" y="82"/>
      <point x="864" y="251" type="curve" smooth="yes"/>
      <point x="918" y="335"/>
      <point x="954" y="430"/>
      <point x="973" y="535" type="curve" smooth="yes"/>
      <point x="989" y="628" type="line" smooth="yes"/>
      <point x="1037" y="901"/>
      <point x="994" y="1125"/>
      <point x="859" y="1301" type="curve"/>
      <point x="1047" y="1416" type="line"/>
      <point x="992" y="1516" type="line"/>
      <point x="780" y="1387" type="line"/>
      <point x="679" y="1480"/>
      <point x="553" y="1544"/>
      <point x="400" y="1580" type="curve"/>
      <point x="315" y="1421" type="line"/>
      <point x="431" y="1388"/>
      <point x="528" y="1342"/>
      <point x="605" y="1281" type="curve"/>
      <point x="390" y="1150" type="line"/>
      <point x="446" y="1051" type="line"/>
      <point x="690" y="1199" type="line"/>
      <point x="767" y="1105"/>
      <point x="810" y="993"/>
      <point x="819" y="863" type="curve"/>
      <point x="752" y="939"/>
      <point x="664" y="977"/>
      <point x="555" y="977" type="curve" smooth="yes"/>
      <point x="383" y="977"/>
      <point x="222" y="886"/>
      <point x="120" y="731" type="curve" smooth="yes"/>
      <point x="-20" y="517"/>
      <point x="-52" y="193"/>
      <point x="174" y="45" type="curve" smooth="yes"/>
      <point x="240" y="2"/>
      <point x="318" y="-20"/>
    </contour>
    <contour>
      <point x="438" y="131" type="curve" smooth="yes"/>
      <point x="268" y="131"/>
      <point x="170" y="280"/>
      <point x="203" y="467" type="curve" smooth="yes"/>
      <point x="242" y="690"/>
      <point x="379" y="825"/>
      <point x="573" y="825" type="curve" smooth="yes"/>
      <point x="695" y="825"/>
      <point x="783" y="772"/>
      <point x="813" y="691" type="curve"/>
      <point x="789" y="541" type="line" smooth="yes"/>
      <point x="745" y="296"/>
      <point x="605" y="131"/>
    </contour>
  </outline>
</glyph>
<glyph name="divide" format="2">
  <advance width="1169"/>
  <unicode hex="00F7"/>
  <note>
uni00F7
</note>
  <outline>
    <contour>
      <point x="-14" y="600" type="line"/>
      <point x="984" y="600" type="line"/>
      <point x="1016" y="784" type="line"/>
      <point x="18" y="784" type="line"/>
    </contour>
    <contour>
      <point x="320" y="281" type="curve" smooth="yes"/>
      <point x="309" y="220"/>
      <point x="339" y="172"/>
      <point x="415" y="172" type="curve" smooth="yes"/>
      <point x="491" y="172"/>
      <point x="539" y="220"/>
      <point x="550" y="281" type="curve" smooth="yes"/>
      <point x="561" y="345"/>
      <point x="530" y="393"/>
      <point x="454" y="393" type="curve" smooth="yes"/>
      <point x="378" y="393"/>
      <point x="331" y="345"/>
    </contour>
    <contour>
      <point x="464" y="1098" type="curve" smooth="yes"/>
      <point x="453" y="1035"/>
      <point x="483" y="989"/>
      <point x="559" y="989" type="curve" smooth="yes"/>
      <point x="635" y="989"/>
      <point x="683" y="1035"/>
      <point x="694" y="1098" type="curve" smooth="yes"/>
      <point x="705" y="1162"/>
      <point x="674" y="1210"/>
      <point x="598" y="1210" type="curve" smooth="yes"/>
      <point x="522" y="1210"/>
      <point x="475" y="1162"/>
    </contour>
  </outline>
</glyph>
<glyph name="oslash" format="2">
  <advance width="1168"/>
  <unicode hex="00F8"/>
  <note>
uni00F8
</note>
  <outline>
    <contour>
      <point x="390" y="-20" type="curve" smooth="yes"/>
      <point x="703" y="-20"/>
      <point x="926" y="227"/>
      <point x="978" y="529" type="curve" smooth="yes"/>
      <point x="1040" y="881"/>
      <point x="880" y="1102"/>
      <point x="586" y="1102" type="curve" smooth="yes"/>
      <point x="395" y="1102"/>
      <point x="223" y="1006"/>
      <point x="110" y="837" type="curve" smooth="yes"/>
      <point x="-103" y="514"/>
      <point x="-71" y="-20"/>
    </contour>
    <contour>
      <point x="416" y="131" type="curve" smooth="yes"/>
      <point x="230" y="131"/>
      <point x="137" y="289"/>
      <point x="179" y="529" type="curve" smooth="yes"/>
      <point x="227" y="800"/>
      <point x="376" y="950"/>
      <point x="559" y="950" type="curve" smooth="yes"/>
      <point x="745" y="950"/>
      <point x="839" y="788"/>
      <point x="797" y="551" type="curve" smooth="yes"/>
      <point x="751" y="286"/>
      <point x="604" y="131"/>
    </contour>
    <contour>
      <point x="-25" y="-285" type="line"/>
      <point x="134" y="-285" type="line"/>
      <point x="1020" y="1296" type="line"/>
      <point x="862" y="1296" type="line"/>
    </contour>
  </outline>
</glyph>
<glyph name="dcroat" format="2">
  <advance width="1223"/>
  <unicode hex="0111"/>
  <note>
uni0111
</note>
  <outline>
    <contour>
      <point x="326" y="-20" type="curve" smooth="yes"/>
      <point x="458" y="-20"/>
      <point x="569" y="25"/>
      <point x="659" y="116" type="curve"/>
      <point x="647" y="0" type="line"/>
      <point x="817" y="0" type="line"/>
      <point x="1035" y="1233" type="line"/>
      <point x="1223" y="1233" type="line"/>
      <point x="1249" y="1384" type="line"/>
      <point x="1061" y="1384" type="line"/>
      <point x="1088" y="1536" type="line"/>
      <point x="903" y="1536" type="line"/>
      <point x="876" y="1384" type="line"/>
      <point x="612" y="1384" type="line"/>
      <point x="586" y="1233" type="line"/>
      <point x="850" y="1233" type="line"/>
      <point x="804" y="972" type="line"/>
      <point x="745" y="1059"/>
      <point x="652" y="1102"/>
      <point x="526" y="1102" type="curve" smooth="yes"/>
      <point x="271" y="1102"/>
      <point x="60" y="882"/>
      <point x="1" y="550" type="curve" smooth="yes"/>
      <point x="-60" y="205"/>
      <point x="75" y="-20"/>
    </contour>
    <contour>
      <point x="399" y="137" type="curve" smooth="yes"/>
      <point x="221" y="137"/>
      <point x="139" y="284"/>
      <point x="182" y="529" type="curve" smooth="yes"/>
      <point x="231" y="804"/>
      <point x="363" y="945"/>
      <point x="544" y="945" type="curve" smooth="yes"/>
      <point x="659" y="945"/>
      <point x="735" y="894"/>
      <point x="772" y="792" type="curve"/>
      <point x="684" y="295" type="line"/>
      <point x="612" y="190"/>
      <point x="517" y="137"/>
    </contour>
  </outline>
</glyph>
<glyph name="Eng" format="2">
  <advance width="1419"/>
  <unicode hex="014A"/>
  <note>
uni014A
</note>
  <outline>
    <contour>
      <point x="670" y="-437" type="curve" smooth="yes"/>
      <point x="878" y="-437"/>
      <point x="1020" y="-307"/>
      <point x="1060" y="-83" type="curve" smooth="yes"/>
      <point x="1331" y="1456" type="line"/>
      <point x="1137" y="1456" type="line"/>
      <point x="938" y="328" type="line"/>
      <point x="420" y="1456" type="line"/>
      <point x="228" y="1456" type="line"/>
      <point x="-29" y="0" type="line"/>
      <point x="163" y="0" type="line"/>
      <point x="362" y="1130" type="line"/>
      <point x="880" y="0" type="line"/>
      <point x="868" y="-71" type="line" smooth="yes"/>
      <point x="843" y="-210"/>
      <point x="786" y="-279"/>
      <point x="695" y="-279" type="curve" smooth="yes"/>
      <point x="654" y="-279"/>
      <point x="623" y="-274"/>
      <point x="599" y="-265" type="curve"/>
      <point x="558" y="-419" type="line"/>
      <point x="592" y="-431"/>
      <point x="629" y="-437"/>
    </contour>
  </outline>
</glyph>
<glyph name="eng" format="2">
  <advance width="1160"/>
  <unicode hex="014B"/>
  <note>
uni014B
</note>
  <outline>
    <contour>
      <point x="418" y="-437" type="curve" smooth="yes"/>
      <point x="625" y="-437"/>
      <point x="763" y="-308"/>
      <point x="802" y="-89" type="curve" smooth="yes"/>
      <point x="939" y="691" type="line" smooth="yes"/>
      <point x="984" y="962"/>
      <point x="885" y="1102"/>
      <point x="647" y="1102" type="curve" smooth="yes"/>
      <point x="511" y="1102"/>
      <point x="395" y="1044"/>
      <point x="297" y="928" type="curve"/>
      <point x="311" y="1082" type="line"/>
      <point x="145" y="1082" type="line"/>
      <point x="-46" y="0" type="line"/>
      <point x="140" y="0" type="line"/>
      <point x="283" y="812" type="line"/>
      <point x="353" y="901"/>
      <point x="446" y="945"/>
      <point x="563" y="945" type="curve" smooth="yes"/>
      <point x="730" y="945"/>
      <point x="784" y="863"/>
      <point x="752" y="678" type="curve" smooth="yes"/>
      <point x="618" y="-81" type="line" smooth="yes"/>
      <point x="595" y="-210"/>
      <point x="538" y="-275"/>
      <point x="447" y="-275" type="curve" smooth="yes"/>
      <point x="403" y="-275"/>
      <point x="370" y="-271"/>
      <point x="348" y="-262" type="curve"/>
      <point x="306" y="-419" type="line"/>
      <point x="340" y="-431"/>
      <point x="377" y="-437"/>
    </contour>
  </outline>
</glyph>
<glyph name="OE" format="2">
  <advance width="1953"/>
  <unicode hex="0152"/>
  <note>
uni0152
</note>
  <outline>
    <contour>
      <point x="478" y="-21" type="curve"/>
      <point x="554" y="-21"/>
      <point x="652" y="-14"/>
      <point x="773" y="0" type="curve"/>
      <point x="1621" y="0" type="line"/>
      <point x="1649" y="157" type="line"/>
      <point x="916" y="157" type="line"/>
      <point x="1007" y="673" type="line"/>
      <point x="1638" y="673" type="line"/>
      <point x="1666" y="830" type="line"/>
      <point x="1035" y="830" type="line"/>
      <point x="1117" y="1298" type="line"/>
      <point x="1840" y="1298" type="line"/>
      <point x="1868" y="1456" type="line"/>
      <point x="1030" y="1456" type="line"/>
      <point x="919" y="1469"/>
      <point x="822" y="1476"/>
      <point x="739" y="1476" type="curve" smooth="yes"/>
      <point x="338" y="1474"/>
      <point x="111" y="1059"/>
      <point x="79" y="880" type="curve"/>
      <point x="25" y="571" type="line" smooth="yes"/>
      <point x="-49" y="151"/>
      <point x="187" y="0"/>
    </contour>
    <contour>
      <point x="504" y="130" type="curve" smooth="yes"/>
      <point x="269" y="130"/>
      <point x="162" y="295"/>
      <point x="212" y="576" type="curve" smooth="yes"/>
      <point x="267" y="889" type="line" smooth="yes"/>
      <point x="316" y="1165"/>
      <point x="482" y="1325"/>
      <point x="713" y="1325" type="curve" smooth="yes"/>
      <point x="785" y="1325"/>
      <point x="856" y="1320"/>
      <point x="927" y="1310" type="curve"/>
      <point x="722" y="144" type="line"/>
      <point x="652" y="135"/>
      <point x="579" y="130"/>
    </contour>
  </outline>
</glyph>
<glyph name="longs" format="2">
  <advance width="508"/>
  <unicode hex="017F"/>
  <note>
uni017F
</note>
  <outline>
    <contour>
      <point x="-31" y="0" type="line"/>
      <point x="154" y="0" type="line"/>
      <point x="363" y="1184" type="line" smooth="yes"/>
      <point x="389" y="1331"/>
      <point x="463" y="1405"/>
      <point x="585" y="1405" type="curve" smooth="yes"/>
      <point x="619" y="1405"/>
      <point x="649" y="1401"/>
      <point x="674" y="1394" type="curve"/>
      <point x="722" y="1536" type="line"/>
      <point x="669" y="1550"/>
      <point x="622" y="1557"/>
      <point x="583" y="1557" type="curve" smooth="yes"/>
      <point x="367" y="1557"/>
      <point x="222" y="1423"/>
      <point x="180" y="1198" type="curve" smooth="yes"/>
    </contour>
  </outline>
</glyph>
<glyph name="Schwa" format="2">
  <advance width="1415"/>
  <unicode hex="018F"/>
  <note>
uni018F
</note>
  <outline>
    <contour>
      <point x="503" y="-20" type="curve" smooth="yes"/>
      <point x="725" y="-20"/>
      <point x="944" y="109"/>
      <point x="1086" y="323" type="curve" smooth="yes"/>
      <point x="1157" y="430"/>
      <point x="1204" y="549"/>
      <point x="1227" y="680" type="curve" smooth="yes"/>
      <point x="1242" y="764" type="line" smooth="yes"/>
      <point x="1321" y="1211"/>
      <point x="1112" y="1476"/>
      <point x="709" y="1476" type="curve" smooth="yes"/>
      <point x="555" y="1476"/>
      <point x="420" y="1447"/>
      <point x="280" y="1375" type="curve"/>
      <point x="301" y="1232" type="line"/>
      <point x="467" y="1297"/>
      <point x="571" y="1316"/>
      <point x="681" y="1316" type="curve" smooth="yes"/>
      <point x="976" y="1316"/>
      <point x="1111" y="1118"/>
      <point x="1049" y="767" type="curve"/>
      <point x="37" y="767" type="line"/>
      <point x="-60" y="217"/>
      <point x="123" y="-20"/>
    </contour>
    <contour>
      <point x="531" y="138" type="curve" smooth="yes"/>
      <point x="264" y="138"/>
      <point x="147" y="293"/>
      <point x="198" y="584" type="curve" smooth="yes"/>
      <point x="204" y="618" type="line"/>
      <point x="1021" y="618" type="line"/>
      <point x="950" y="326"/>
      <point x="756" y="138"/>
    </contour>
  </outline>
</glyph>
<glyph name="florin" format="2">
  <advance width="697"/>
  <unicode hex="0192"/>
  <note>
uni0192
</note>
  <outline>
    <contour>
      <point x="-185" y="-437" type="curve" smooth="yes"/>
      <point x="20" y="-437"/>
      <point x="160" y="-310"/>
      <point x="199" y="-87" type="curve" smooth="yes"/>
      <point x="380" y="939" type="line"/>
      <point x="583" y="939" type="line"/>
      <point x="608" y="1082" type="line"/>
      <point x="405" y="1082" type="line"/>
      <point x="427" y="1204" type="line" smooth="yes"/>
      <point x="452" y="1334"/>
      <point x="522" y="1399"/>
      <point x="636" y="1399" type="curve" smooth="yes"/>
      <point x="676" y="1399"/>
      <point x="708" y="1396"/>
      <point x="732" y="1389" type="curve"/>
      <point x="780" y="1536" type="line"/>
      <point x="727" y="1550"/>
      <point x="680" y="1557"/>
      <point x="641" y="1557" type="curve" smooth="yes"/>
      <point x="426" y="1557"/>
      <point x="282" y="1425"/>
      <point x="240" y="1202" type="curve" smooth="yes"/>
      <point x="219" y="1082" type="line"/>
      <point x="48" y="1082" type="line"/>
      <point x="23" y="939" type="line"/>
      <point x="194" y="939" type="line"/>
      <point x="13" y="-89" type="line" smooth="yes"/>
      <point x="-9" y="-212"/>
      <point x="-71" y="-285"/>
      <point x="-158" y="-285" type="curve" smooth="yes"/>
      <point x="-203" y="-285"/>
      <point x="-234" y="-281"/>
      <point x="-253" y="-272" type="curve"/>
      <point x="-293" y="-419" type="line"/>
      <point x="-261" y="-431"/>
      <point x="-226" y="-437"/>
    </contour>
  </outline>
</glyph>
<glyph name="jdotless" format="2">
  <advance width="515"/>
  <unicode hex="0237"/>
  <note>
uni0237
</note>
  <outline>
    <contour>
      <point x="-233" y="-437" type="curve" smooth="yes"/>
      <point x="-30" y="-437"/>
      <point x="111" y="-316"/>
      <point x="151" y="-89" type="curve" smooth="yes"/>
      <point x="357" y="1082" type="line"/>
      <point x="172" y="1082" type="line"/>
      <point x="-34" y="-89" type="line" smooth="yes"/>
      <point x="-56" y="-212"/>
      <point x="-119" y="-285"/>
      <point x="-206" y="-285" type="curve" smooth="yes"/>
      <point x="-251" y="-285"/>
      <point x="-282" y="-281"/>
      <point x="-301" y="-272" type="curve"/>
      <point x="-341" y="-419" type="line"/>
      <point x="-308" y="-431"/>
      <point x="-272" y="-437"/>
    </contour>
  </outline>
</glyph>
<glyph name="caron" format="2">
  <advance width="909"/>
  <unicode hex="02C7"/>
  <note>
uni02C7
</note>
  <outline>
    <contour>
      <point x="422" y="1251" type="line"/>
      <point x="535" y="1251" type="line"/>
      <point x="837" y="1525" type="line"/>
      <point x="839" y="1535" type="line"/>
      <point x="679" y="1535" type="line"/>
      <point x="499" y="1365" type="line"/>
      <point x="378" y="1535" type="line"/>
      <point x="221" y="1535" type="line"/>
      <point x="219" y="1525" type="line"/>
    </contour>
  </outline>
</glyph>
<glyph name="ring" format="2">
  <advance width="685"/>
  <unicode hex="02DA"/>
  <note>
uni02DA
</note>
  <outline>
    <contour>
      <point x="358" y="1204" type="curve" smooth="yes"/>
      <point x="479" y="1204"/>
      <point x="588" y="1292"/>
      <point x="608" y="1408" type="curve" smooth="yes"/>
      <point x="629" y="1523"/>
      <point x="553" y="1616"/>
      <point x="430" y="1616" type="curve" smooth="yes"/>
      <point x="307" y="1616"/>
      <point x="199" y="1523"/>
      <point x="178" y="1408" type="curve" smooth="yes"/>
      <point x="158" y="1293"/>
      <point x="235" y="1204"/>
    </contour>
    <contour>
      <point x="373" y="1293" type="curve" smooth="yes"/>
      <point x="308" y="1293"/>
      <point x="266" y="1345"/>
      <point x="277" y="1408" type="curve" smooth="yes"/>
      <point x="289" y="1472"/>
      <point x="348" y="1526"/>
      <point x="414" y="1526" type="curve" smooth="yes"/>
      <point x="490" y="1526"/>
      <point x="518" y="1470"/>
      <point x="509" y="1413" type="curve" smooth="yes"/>
      <point x="500" y="1353"/>
      <point x="451" y="1293"/>
    </contour>
  </outline>
</glyph>
<glyph name="tilde" format="2">
  <advance width="966"/>
  <unicode hex="02DC"/>
  <note>
uni02DC
</note>
  <outline>
    <contour>
      <point x="152" y="1241" type="curve"/>
      <point x="275" y="1241" type="line"/>
      <point x="287" y="1306"/>
      <point x="339" y="1353"/>
      <point x="394" y="1353" type="curve" smooth="yes"/>
      <point x="517" y="1353"/>
      <point x="503" y="1258"/>
      <point x="646" y="1258" type="curve" smooth="yes"/>
      <point x="769" y="1258"/>
      <point x="878" y="1356"/>
      <point x="904" y="1500" type="curve"/>
      <point x="782" y="1512" type="line"/>
      <point x="771" y="1452"/>
      <point x="719" y="1399"/>
      <point x="662" y="1399" type="curve" smooth="yes"/>
      <point x="551" y="1399"/>
      <point x="530" y="1495"/>
      <point x="410" y="1495" type="curve" smooth="yes"/>
      <point x="286" y="1495"/>
      <point x="177" y="1391"/>
    </contour>
  </outline>
</glyph>
<glyph name="hungarumlaut" format="2">
  <advance width="764"/>
  <unicode hex="02DD"/>
  <note>
uni02DD
</note>
  <outline>
    <contour>
      <point x="400" y="1232" type="line"/>
      <point x="569" y="1232" type="line"/>
      <point x="892" y="1535" type="line" name="❌"/>
      <point x="685" y="1535" type="line" name="❌"/>
    </contour>
    <contour>
      <point x="120" y="1232" type="line"/>
      <point x="270" y="1232" type="line"/>
      <point x="542" y="1535" type="line" name="❌"/>
      <point x="345" y="1535" type="line" name="❌"/>
    </contour>
  </outline>
</glyph>
<glyph name="lowringmod" format="2">
  <advance width="602"/>
  <unicode hex="02F3"/>
  <note>
uni02F3
</note>
  <outline>
    <contour>
      <point x="38" y="-405" type="curve" smooth="yes"/>
      <point x="135" y="-405"/>
      <point x="219" y="-335"/>
      <point x="236" y="-242" type="curve" smooth="yes"/>
      <point x="252" y="-147"/>
      <point x="191" y="-75"/>
      <point x="96" y="-75" type="curve" smooth="yes"/>
      <point x="-3" y="-75"/>
      <point x="-91" y="-149"/>
      <point x="-107" y="-242" type="curve" smooth="yes"/>
      <point x="-124" y="-334"/>
      <point x="-64" y="-405"/>
    </contour>
    <contour>
      <point x="47" y="-324" type="curve" smooth="yes"/>
      <point x="6" y="-323"/>
      <point x="-30" y="-296"/>
      <point x="-20" y="-242" type="curve" smooth="yes"/>
      <point x="-12" y="-197"/>
      <point x="32" y="-156"/>
      <point x="82" y="-156" type="curve" smooth="yes"/>
      <point x="128" y="-156"/>
      <point x="158" y="-194"/>
      <point x="150" y="-242" type="curve" smooth="yes"/>
      <point x="140" y="-297"/>
      <point x="91" y="-325"/>
    </contour>
  </outline>
</glyph>
<glyph name="hookabovecomb" format="2">
  <unicode hex="0309"/>
  <note>
uni0309
</note>
  <outline>
    <contour>
      <point x="-624" y="1241" type="line"/>
      <point x="-492" y="1241" type="line"/>
      <point x="-478" y="1312" type="line"/>
      <point x="-373" y="1327"/>
      <point x="-311" y="1383"/>
      <point x="-297" y="1464" type="curve" smooth="yes"/>
      <point x="-277" y="1577"/>
      <point x="-368" y="1652"/>
      <point x="-566" y="1652" type="curve"/>
      <point x="-592" y="1546" type="line"/>
      <point x="-492" y="1546"/>
      <point x="-431" y="1520"/>
      <point x="-440" y="1468" type="curve" smooth="yes"/>
      <point x="-449" y="1415"/>
      <point x="-500" y="1400"/>
      <point x="-598" y="1394" type="curve"/>
    </contour>
  </outline>
</glyph>
<glyph name="dotbelowcomb" format="2">
  <unicode hex="0323"/>
  <note>
uni0323
</note>
  <outline>
    <contour>
      <point x="-21" y="-562" type="curve" smooth="yes"/>
      <point x="46" y="-562"/>
      <point x="113" y="-507"/>
      <point x="125" y="-439" type="curve" smooth="yes"/>
      <point x="137" y="-372"/>
      <point x="90" y="-315"/>
      <point x="23" y="-315" type="curve" smooth="yes"/>
      <point x="-45" y="-315"/>
      <point x="-110" y="-372"/>
      <point x="-122" y="-439" type="curve" smooth="yes"/>
      <point x="-134" y="-507"/>
      <point x="-89" y="-562"/>
    </contour>
  </outline>
</glyph>
<glyph name="dieresistonos" format="2">
  <advance width="1035"/>
  <unicode hex="0385"/>
  <note>
uni0385
</note>
  <outline>
    <contour>
      <point x="490" y="1408" type="line"/>
      <point x="625" y="1408" type="line"/>
      <point x="773" y="1672" type="line"/>
      <point x="585" y="1672" type="line"/>
    </contour>
    <contour>
      <point x="164" y="1371" type="curve" smooth="yes"/>
      <point x="153" y="1311"/>
      <point x="182" y="1266"/>
      <point x="254" y="1266" type="curve" smooth="yes"/>
      <point x="326" y="1266"/>
      <point x="372" y="1311"/>
      <point x="383" y="1371" type="curve" smooth="yes"/>
      <point x="394" y="1431"/>
      <point x="364" y="1477"/>
      <point x="292" y="1477" type="curve" smooth="yes"/>
      <point x="220" y="1477"/>
      <point x="175" y="1431"/>
    </contour>
    <contour>
      <point x="731" y="1369" type="curve" smooth="yes"/>
      <point x="720" y="1309"/>
      <point x="749" y="1264"/>
      <point x="821" y="1264" type="curve" smooth="yes"/>
      <point x="893" y="1264"/>
      <point x="939" y="1309"/>
      <point x="950" y="1369" type="curve" smooth="yes"/>
      <point x="960" y="1429"/>
      <point x="930" y="1476"/>
      <point x="858" y="1476" type="curve" smooth="yes"/>
      <point x="786" y="1476"/>
      <point x="741" y="1429"/>
    </contour>
  </outline>
</glyph>
<glyph name="Gamma" format="2">
  <advance width="1139"/>
  <unicode hex="0393"/>
  <note>
uni0393
</note>
  <outline>
    <contour>
      <point x="-14" y="0" type="line"/>
      <point x="179" y="0" type="line"/>
      <point x="408" y="1298" type="line"/>
      <point x="1110" y="1298" type="line"/>
      <point x="1138" y="1456" type="line"/>
      <point x="243" y="1456" type="line"/>
    </contour>
  </outline>
</glyph>
<glyph name="Theta" format="2">
  <advance width="1393"/>
  <unicode hex="0398"/>
  <note>
uni0398
</note>
  <outline>
    <contour>
      <point x="503" y="-20" type="curve" smooth="yes"/>
      <point x="894" y="-20"/>
      <point x="1141" y="290"/>
      <point x="1210" y="681" type="curve" smooth="yes"/>
      <point x="1229" y="786" type="line" smooth="yes"/>
      <point x="1293" y="1175"/>
      <point x="1145" y="1476"/>
      <point x="764" y="1476" type="curve" smooth="yes"/>
      <point x="379" y="1476"/>
      <point x="123" y="1158"/>
      <point x="56" y="773" type="curve" smooth="yes"/>
      <point x="37" y="668" type="line" smooth="yes"/>
      <point x="-27" y="282"/>
      <point x="129" y="-20"/>
    </contour>
    <contour>
      <point x="531" y="143" type="curve" smooth="yes"/>
      <point x="282" y="143"/>
      <point x="172" y="348"/>
      <point x="230" y="681" type="curve" smooth="yes"/>
      <point x="249" y="788" type="line" smooth="yes"/>
      <point x="311" y="1116"/>
      <point x="492" y="1311"/>
      <point x="735" y="1311" type="curve" smooth="yes"/>
      <point x="984" y="1311"/>
      <point x="1097" y="1120"/>
      <point x="1036" y="775" type="curve" smooth="yes"/>
      <point x="1017" y="667" type="line" smooth="yes"/>
      <point x="953" y="330"/>
      <point x="779" y="143"/>
    </contour>
    <contour>
      <point x="375" y="659" type="line"/>
      <point x="892" y="659" type="line"/>
      <point x="919" y="811" type="line"/>
      <point x="402" y="811" type="line"/>
    </contour>
  </outline>
</glyph>
<glyph name="Xi" format="2">
  <advance width="1169"/>
  <unicode hex="039E"/>
  <note>
uni039E
</note>
  <outline>
    <contour>
      <point x="-71" y="0" type="line"/>
      <point x="866" y="0" type="line"/>
      <point x="894" y="157" type="line"/>
      <point x="-43" y="157" type="line"/>
    </contour>
    <contour>
      <point x="162" y="1298" type="line"/>
      <point x="1078" y="1298" type="line"/>
      <point x="1106" y="1456" type="line"/>
      <point x="190" y="1456" type="line"/>
    </contour>
    <contour>
      <point x="135" y="674" type="line"/>
      <point x="889" y="674" type="line"/>
      <point x="917" y="831" type="line"/>
      <point x="163" y="831" type="line"/>
    </contour>
  </outline>
</glyph>
<glyph name="Phi" format="2">
  <advance width="1467"/>
  <unicode hex="03A6"/>
  <note>
uni03A6
</note>
  <outline>
    <contour>
      <point x="449" y="0" type="line"/>
      <point x="643" y="0" type="line"/>
      <point x="674" y="175" type="line"/>
      <point x="894" y="180"/>
      <point x="1087" y="274"/>
      <point x="1211" y="441" type="curve" smooth="yes"/>
      <point x="1274" y="524"/>
      <point x="1314" y="619"/>
      <point x="1333" y="724" type="curve" smooth="yes"/>
      <point x="1370" y="932"/>
      <point x="1299" y="1107"/>
      <point x="1144" y="1199" type="curve" smooth="yes"/>
      <point x="1067" y="1245"/>
      <point x="974" y="1269"/>
      <point x="867" y="1271" type="curve"/>
      <point x="900" y="1456" type="line"/>
      <point x="706" y="1456" type="line"/>
      <point x="673" y="1271" type="line"/>
      <point x="551" y="1269"/>
      <point x="438" y="1239"/>
      <point x="335" y="1181" type="curve" smooth="yes"/>
      <point x="164" y="1084"/>
      <point x="48" y="919"/>
      <point x="14" y="722" type="curve" smooth="yes"/>
      <point x="-22" y="522"/>
      <point x="39" y="361"/>
      <point x="171" y="266" type="curve" smooth="yes"/>
      <point x="250" y="209"/>
      <point x="354" y="177"/>
      <point x="480" y="175" type="curve"/>
    </contour>
    <contour>
      <point x="508" y="334" type="line"/>
      <point x="272" y="339"/>
      <point x="161" y="477"/>
      <point x="205" y="722" type="curve" smooth="yes"/>
      <point x="248" y="966"/>
      <point x="404" y="1106"/>
      <point x="645" y="1111" type="curve"/>
    </contour>
    <contour>
      <point x="702" y="334" type="curve"/>
      <point x="839" y="1111" type="line"/>
      <point x="1076" y="1106"/>
      <point x="1184" y="965"/>
      <point x="1142" y="724" type="curve" smooth="yes"/>
      <point x="1099" y="480"/>
      <point x="943" y="339"/>
    </contour>
  </outline>
</glyph>
<glyph name="Psi" format="2">
  <advance width="1417"/>
  <unicode hex="03A8"/>
  <note>
uni03A8
</note>
  <outline>
    <contour>
      <point x="406" y="0" type="line"/>
      <point x="599" y="0" type="line"/>
      <point x="663" y="362" type="line"/>
      <point x="993" y="393"/>
      <point x="1230" y="610"/>
      <point x="1286" y="928" type="curve" smooth="yes"/>
      <point x="1379" y="1456" type="line"/>
      <point x="1186" y="1456" type="line"/>
      <point x="1093" y="931" type="line" smooth="yes"/>
      <point x="1053" y="704"/>
      <point x="905" y="554"/>
      <point x="691" y="523" type="curve"/>
      <point x="856" y="1456" type="line"/>
      <point x="663" y="1456" type="line"/>
      <point x="499" y="524" type="line"/>
      <point x="306" y="557"/>
      <point x="218" y="710"/>
      <point x="255" y="927" type="curve" smooth="yes"/>
      <point x="348" y="1456" type="line"/>
      <point x="156" y="1456" type="line"/>
      <point x="61" y="920" type="line" smooth="yes"/>
      <point x="10" y="604"/>
      <point x="167" y="393"/>
      <point x="470" y="362" type="curve"/>
    </contour>
  </outline>
</glyph>
<glyph name="alpha" format="2">
  <advance width="1157"/>
  <unicode hex="03B1"/>
  <note>
uni03B1
</note>
  <outline>
    <contour>
      <point x="334" y="-21" type="curve" smooth="yes"/>
      <point x="473" y="-21"/>
      <point x="588" y="34"/>
      <point x="679" y="144" type="curve"/>
      <point x="684" y="34"/>
      <point x="737" y="-21"/>
      <point x="835" y="-21" type="curve" smooth="yes"/>
      <point x="884" y="-21"/>
      <point x="926" y="-10"/>
      <point x="963" y="13" type="curve"/>
      <point x="964" y="150" type="line"/>
      <point x="953" y="147"/>
      <point x="942" y="145"/>
      <point x="929" y="145" type="curve" smooth="yes"/>
      <point x="877" y="145"/>
      <point x="857" y="192"/>
      <point x="873" y="285" type="curve" smooth="yes"/>
      <point x="1014" y="1082" type="line"/>
      <point x="857" y="1082" type="line"/>
      <point x="815" y="941" type="line"/>
      <point x="763" y="1048"/>
      <point x="669" y="1102"/>
      <point x="534" y="1102" type="curve" smooth="yes"/>
      <point x="273" y="1102"/>
      <point x="76" y="903"/>
      <point x="14" y="551" type="curve" smooth="yes"/>
      <point x="6" y="506" type="line" smooth="yes"/>
      <point x="-51" y="181"/>
      <point x="78" y="-21"/>
    </contour>
    <contour>
      <point x="406" y="130" type="curve" smooth="yes"/>
      <point x="226" y="130"/>
      <point x="149" y="267"/>
      <point x="190" y="500" type="curve" smooth="yes"/>
      <point x="243" y="797"/>
      <point x="374" y="950"/>
      <point x="553" y="950" type="curve" smooth="yes"/>
      <point x="665" y="950"/>
      <point x="738" y="887"/>
      <point x="773" y="762" type="curve"/>
      <point x="694" y="316" type="line"/>
      <point x="617" y="192"/>
      <point x="521" y="130"/>
    </contour>
  </outline>
</glyph>
<glyph name="beta" format="2">
  <advance width="1213"/>
  <unicode hex="03B2"/>
  <note>
uni03B2
</note>
  <outline>
    <contour>
      <point x="-98" y="-384" type="line"/>
      <point x="88" y="-384" type="line"/>
      <point x="168" y="75" type="line"/>
      <point x="237" y="12"/>
      <point x="332" y="-20"/>
      <point x="453" y="-20" type="curve" smooth="yes"/>
      <point x="726" y="-20"/>
      <point x="937" y="151"/>
      <point x="985" y="424" type="curve" smooth="yes"/>
      <point x="1016" y="597"/>
      <point x="950" y="734"/>
      <point x="796" y="794" type="curve"/>
      <point x="924" y="855"/>
      <point x="1012" y="962"/>
      <point x="1033" y="1083" type="curve" smooth="yes"/>
      <point x="1074" y="1315"/>
      <point x="932" y="1476"/>
      <point x="674" y="1476" type="curve" smooth="yes"/>
      <point x="520" y="1476"/>
      <point x="358" y="1400"/>
      <point x="255" y="1275" type="curve" smooth="yes"/>
      <point x="203" y="1212"/>
      <point x="171" y="1145"/>
      <point x="158" y="1073" type="curve" smooth="yes"/>
    </contour>
    <contour>
      <point x="460" y="131" type="curve" smooth="yes"/>
      <point x="335" y="131"/>
      <point x="245" y="177"/>
      <point x="199" y="246" type="curve"/>
      <point x="345" y="1075" type="line" smooth="yes"/>
      <point x="371" y="1218"/>
      <point x="504" y="1324"/>
      <point x="648" y="1324" type="curve" smooth="yes"/>
      <point x="790" y="1324"/>
      <point x="873" y="1223"/>
      <point x="849" y="1087" type="curve" smooth="yes"/>
      <point x="823" y="940"/>
      <point x="723" y="858"/>
      <point x="563" y="858" type="curve" smooth="yes"/>
      <point x="478" y="858" type="line"/>
      <point x="451" y="706" type="line"/>
      <point x="601" y="706" type="line" smooth="yes"/>
      <point x="745" y="702"/>
      <point x="827" y="577"/>
      <point x="799" y="420" type="curve" smooth="yes"/>
      <point x="769" y="248"/>
      <point x="639" y="131"/>
    </contour>
  </outline>
</glyph>
<glyph name="delta" format="2">
  <advance width="1160"/>
  <unicode hex="03B4"/>
  <note>
uni03B4
</note>
  <outline>
    <contour>
      <point x="387" y="-20" type="curve" smooth="yes"/>
      <point x="740" y="-20"/>
      <point x="936" y="363"/>
      <point x="969" y="548" type="curve" smooth="yes"/>
      <point x="1008" y="809"/>
      <point x="908" y="988"/>
      <point x="631" y="1090" type="curve" smooth="yes"/>
      <point x="492" y="1141"/>
      <point x="429" y="1202"/>
      <point x="442" y="1274" type="curve" smooth="yes"/>
      <point x="456" y="1357"/>
      <point x="538" y="1408"/>
      <point x="652" y="1408" type="curve" smooth="yes"/>
      <point x="735" y="1408"/>
      <point x="823" y="1388"/>
      <point x="917" y="1349" type="curve"/>
      <point x="947" y="1509" type="line"/>
      <point x="865" y="1546"/>
      <point x="777" y="1564"/>
      <point x="684" y="1564" type="curve" smooth="yes"/>
      <point x="451" y="1564"/>
      <point x="286" y="1450"/>
      <point x="254" y="1269" type="curve" smooth="yes"/>
      <point x="233" y="1148"/>
      <point x="290" y="1051"/>
      <point x="412" y="994" type="curve"/>
      <point x="212" y="947"/>
      <point x="37" y="750"/>
      <point x="-1" y="530" type="curve" smooth="yes"/>
      <point x="-61" y="194"/>
      <point x="91" y="-20"/>
    </contour>
    <contour>
      <point x="413" y="130" type="curve" smooth="yes"/>
      <point x="230" y="130"/>
      <point x="141" y="274"/>
      <point x="182" y="509" type="curve" smooth="yes"/>
      <point x="228" y="770"/>
      <point x="371" y="910"/>
      <point x="553" y="910" type="curve"/>
      <point x="717" y="876"/>
      <point x="811" y="706"/>
      <point x="780" y="530" type="curve" smooth="yes"/>
      <point x="733" y="266"/>
      <point x="594" y="130"/>
    </contour>
  </outline>
</glyph>
<glyph name="epsilon" format="2">
  <advance width="1104"/>
  <unicode hex="03B5"/>
  <note>
uni03B5
</note>
  <outline>
    <contour>
      <point x="357" y="-20" type="curve" smooth="yes"/>
      <point x="621" y="-20"/>
      <point x="833" y="113"/>
      <point x="870" y="320" type="curve"/>
      <point x="685" y="320" type="line"/>
      <point x="666" y="212"/>
      <point x="534" y="129"/>
      <point x="383" y="129" type="curve" smooth="yes"/>
      <point x="226" y="129"/>
      <point x="131" y="201"/>
      <point x="149" y="304" type="curve" smooth="yes"/>
      <point x="169" y="416"/>
      <point x="257" y="474"/>
      <point x="413" y="478" type="curve" smooth="yes"/>
      <point x="637" y="478" type="line"/>
      <point x="664" y="626" type="line"/>
      <point x="468" y="626" type="line" smooth="yes"/>
      <point x="305" y="626"/>
      <point x="233" y="679"/>
      <point x="252" y="786" type="curve" smooth="yes"/>
      <point x="269" y="885"/>
      <point x="379" y="951"/>
      <point x="528" y="951" type="curve" smooth="yes"/>
      <point x="671" y="951"/>
      <point x="764" y="873"/>
      <point x="748" y="780" type="curve"/>
      <point x="933" y="780" type="line"/>
      <point x="966" y="969"/>
      <point x="802" y="1101"/>
      <point x="554" y="1101" type="curve" smooth="yes"/>
      <point x="285" y="1101"/>
      <point x="101" y="984"/>
      <point x="66" y="787" type="curve" smooth="yes"/>
      <point x="49" y="690"/>
      <point x="102" y="604"/>
      <point x="211" y="556" type="curve"/>
      <point x="67" y="512"/>
      <point x="-16" y="428"/>
      <point x="-38" y="304" type="curve" smooth="yes"/>
      <point x="-73" y="108"/>
      <point x="85" y="-20"/>
    </contour>
  </outline>
</glyph>
<glyph name="zeta" format="2">
  <advance width="1061"/>
  <unicode hex="03B6"/>
  <note>
uni03B6
</note>
  <outline>
    <contour>
      <point x="486" y="-383" type="line"/>
      <point x="588" y="-311"/>
      <point x="696" y="-180"/>
      <point x="715" y="-88" type="curve" smooth="yes"/>
      <point x="723" y="-40"/>
      <point x="634" y="40"/>
      <point x="503" y="94" type="curve" smooth="yes"/>
      <point x="325" y="166"/>
      <point x="214" y="182"/>
      <point x="250" y="386" type="curve" smooth="yes"/>
      <point x="282" y="563"/>
      <point x="365" y="690"/>
      <point x="582" y="909" type="curve" smooth="yes"/>
      <point x="1008" y="1336" type="line"/>
      <point x="1029" y="1456" type="line"/>
      <point x="175" y="1456" type="line"/>
      <point x="148" y="1304" type="line"/>
      <point x="785" y="1304" type="line"/>
      <point x="443" y="981" type="line" smooth="yes"/>
      <point x="236" y="785"/>
      <point x="95" y="554"/>
      <point x="64" y="381" type="curve" smooth="yes"/>
      <point x="34" y="209"/>
      <point x="91" y="80"/>
      <point x="226" y="30" type="curve" smooth="yes"/>
      <point x="515" y="-79"/>
      <point x="541" y="-71"/>
      <point x="533" y="-116" type="curve" smooth="yes"/>
      <point x="522" y="-176"/>
      <point x="478" y="-228"/>
      <point x="402" y="-299" type="curve"/>
    </contour>
  </outline>
</glyph>
<glyph name="eta" format="2">
  <advance width="1160"/>
  <unicode hex="03B7"/>
  <note>
uni03B7
</note>
  <outline>
    <contour>
      <point x="559" y="-415" type="line"/>
      <point x="744" y="-415" type="line"/>
      <point x="941" y="701" type="line" smooth="yes"/>
      <point x="987" y="973"/>
      <point x="900" y="1102"/>
      <point x="647" y="1102" type="curve" smooth="yes"/>
      <point x="513" y="1102"/>
      <point x="397" y="1050"/>
      <point x="299" y="946" type="curve"/>
      <point x="312" y="1082" type="line"/>
      <point x="145" y="1082" type="line"/>
      <point x="-46" y="0" type="line"/>
      <point x="140" y="0" type="line"/>
      <point x="279" y="785" type="line"/>
      <point x="342" y="889"/>
      <point x="441" y="950"/>
      <point x="564" y="950" type="curve" smooth="yes"/>
      <point x="734" y="950"/>
      <point x="786" y="871"/>
      <point x="754" y="690" type="curve" smooth="yes"/>
    </contour>
  </outline>
</glyph>
<glyph name="theta" format="2">
  <advance width="1166"/>
  <unicode hex="03B8"/>
  <note>
uni03B8
</note>
  <outline>
    <contour>
      <point x="389" y="-20" type="curve" smooth="yes"/>
      <point x="686" y="-20"/>
      <point x="889" y="212"/>
      <point x="964" y="640" type="curve" smooth="yes"/>
      <point x="1000" y="845" type="line" smooth="yes"/>
      <point x="1067" y="1254"/>
      <point x="946" y="1476"/>
      <point x="650" y="1476" type="curve" smooth="yes"/>
      <point x="353" y="1476"/>
      <point x="151" y="1248"/>
      <point x="77" y="825" type="curve" smooth="yes"/>
      <point x="41" y="620" type="line" smooth="yes"/>
      <point x="-27" y="209"/>
      <point x="97" y="-20"/>
    </contour>
    <contour>
      <point x="415" y="131" type="curve" smooth="yes"/>
      <point x="242" y="131"/>
      <point x="170" y="305"/>
      <point x="224" y="610" type="curve" smooth="yes"/>
      <point x="231" y="649" type="line"/>
      <point x="780" y="649" type="line"/>
      <point x="771" y="598" type="line" smooth="yes"/>
      <point x="715" y="295"/>
      <point x="589" y="131"/>
    </contour>
    <contour>
      <point x="257" y="801" type="line"/>
      <point x="267" y="856" type="line" smooth="yes"/>
      <point x="321" y="1159"/>
      <point x="445" y="1324"/>
      <point x="624" y="1324" type="curve" smooth="yes"/>
      <point x="805" y="1324"/>
      <point x="870" y="1159"/>
      <point x="816" y="856" type="curve" smooth="yes"/>
      <point x="806" y="801" type="line"/>
    </contour>
  </outline>
</glyph>
<glyph name="iota" format="2">
  <advance width="663"/>
  <unicode hex="03B9"/>
  <note>
uni03B9
</note>
  <outline>
    <contour>
      <point x="251" y="-12" type="curve" smooth="yes"/>
      <point x="300" y="-12"/>
      <point x="349" y="-6"/>
      <point x="397" y="7" type="curve"/>
      <point x="423" y="158" type="line"/>
      <point x="396" y="150"/>
      <point x="366" y="146"/>
      <point x="334" y="146" type="curve" smooth="yes"/>
      <point x="249" y="146"/>
      <point x="223" y="189"/>
      <point x="237" y="273" type="curve" smooth="yes"/>
      <point x="380" y="1082" type="line"/>
      <point x="195" y="1082" type="line"/>
      <point x="54" y="282" type="line" smooth="yes"/>
      <point x="19" y="86"/>
      <point x="85" y="-12"/>
    </contour>
  </outline>
</glyph>
<glyph name="lambda" format="2">
  <advance width="1134"/>
  <unicode hex="03BB"/>
  <note>
uni03BB
</note>
  <outline>
    <contour>
      <point x="811" y="-17" type="curve" smooth="yes"/>
      <point x="839" y="-17"/>
      <point x="866" y="-13"/>
      <point x="891" y="-5" type="curve"/>
      <point x="912" y="147" type="line"/>
      <point x="874" y="144" type="line" smooth="yes"/>
      <point x="826" y="140"/>
      <point x="803" y="166"/>
      <point x="789" y="234" type="curve" smooth="yes"/>
      <point x="558" y="1343" type="line" smooth="yes"/>
      <point x="523" y="1509"/>
      <point x="391" y="1506"/>
      <point x="241" y="1506" type="curve"/>
      <point x="217" y="1364" type="line"/>
      <point x="324" y="1366"/>
      <point x="349" y="1339"/>
      <point x="367" y="1264" type="curve" smooth="yes"/>
      <point x="422" y="1029" type="line"/>
      <point x="-154" y="0" type="line"/>
      <point x="52" y="0" type="line"/>
      <point x="476" y="779" type="line"/>
      <point x="601" y="186" type="line" smooth="yes"/>
      <point x="631" y="43"/>
      <point x="658" y="-17"/>
    </contour>
  </outline>
</glyph>
<glyph name="xi" format="2">
  <advance width="1004"/>
  <unicode hex="03BE"/>
  <note>
uni03BE
</note>
  <outline>
    <contour>
      <point x="501" y="-393" type="line"/>
      <point x="611" y="-312"/>
      <point x="713" y="-186"/>
      <point x="728" y="-101" type="curve" smooth="yes"/>
      <point x="741" y="-31"/>
      <point x="732" y="35"/>
      <point x="677" y="53" type="curve" smooth="yes"/>
      <point x="401" y="143" type="line" smooth="yes"/>
      <point x="218" y="202"/>
      <point x="148" y="295"/>
      <point x="175" y="444" type="curve" smooth="yes"/>
      <point x="213" y="661"/>
      <point x="369" y="765"/>
      <point x="612" y="765" type="curve" smooth="yes"/>
      <point x="762" y="765" type="line"/>
      <point x="789" y="917" type="line"/>
      <point x="656" y="917" type="line" smooth="yes"/>
      <point x="434" y="917"/>
      <point x="336" y="990"/>
      <point x="362" y="1136" type="curve" smooth="yes"/>
      <point x="382" y="1249"/>
      <point x="508" y="1324"/>
      <point x="696" y="1324" type="curve" smooth="yes"/>
      <point x="760" y="1324"/>
      <point x="835" y="1312"/>
      <point x="918" y="1288" type="curve"/>
      <point x="972" y="1437" type="line"/>
      <point x="902" y="1463"/>
      <point x="818" y="1476"/>
      <point x="721" y="1476" type="curve" smooth="yes"/>
      <point x="417" y="1476"/>
      <point x="212" y="1344"/>
      <point x="175" y="1132" type="curve" smooth="yes"/>
      <point x="152" y="1004"/>
      <point x="225" y="898"/>
      <point x="373" y="842" type="curve"/>
      <point x="162" y="781"/>
      <point x="23" y="641"/>
      <point x="-11" y="448" type="curve" smooth="yes"/>
      <point x="-37" y="300"/>
      <point x="-9" y="202"/>
      <point x="58" y="132" type="curve" smooth="yes"/>
      <point x="91" y="97"/>
      <point x="134" y="68"/>
      <point x="187" y="46" type="curve" smooth="yes"/>
      <point x="306" y="-4"/>
      <point x="452" y="-15"/>
      <point x="520" y="-61" type="curve" smooth="yes"/>
      <point x="600" y="-115"/>
      <point x="497" y="-224"/>
      <point x="409" y="-309" type="curve"/>
    </contour>
  </outline>
</glyph>
<glyph name="pi" format="2">
  <advance width="1220"/>
  <unicode hex="03C0"/>
  <note>
uni03C0
</note>
  <outline>
    <contour>
      <point x="852" y="-12" type="curve" smooth="yes"/>
      <point x="901" y="-12"/>
      <point x="950" y="-6"/>
      <point x="998" y="7" type="curve"/>
      <point x="1024" y="158" type="line"/>
      <point x="997" y="150"/>
      <point x="967" y="146"/>
      <point x="935" y="146" type="curve" smooth="yes"/>
      <point x="848" y="146"/>
      <point x="824" y="190"/>
      <point x="839" y="275" type="curve" smooth="yes"/>
      <point x="954" y="929" type="line"/>
      <point x="1110" y="929" type="line"/>
      <point x="1137" y="1082" type="line"/>
      <point x="41" y="1082" type="line"/>
      <point x="14" y="929" type="line"/>
      <point x="183" y="929" type="line"/>
      <point x="19" y="0" type="line"/>
      <point x="204" y="0" type="line"/>
      <point x="368" y="929" type="line"/>
      <point x="769" y="929" type="line"/>
      <point x="655" y="282" type="line" smooth="yes"/>
      <point x="620" y="86"/>
      <point x="686" y="-12"/>
    </contour>
  </outline>
</glyph>
<glyph name="rho" format="2">
  <advance width="1160"/>
  <unicode hex="03C1"/>
  <note>
uni03C1
</note>
  <outline>
    <contour>
      <point x="-119" y="-416" type="line"/>
      <point x="67" y="-416" type="line"/>
      <point x="159" y="104" type="line"/>
      <point x="220" y="21"/>
      <point x="316" y="-20"/>
      <point x="446" y="-20" type="curve" smooth="yes"/>
      <point x="700" y="-20"/>
      <point x="896" y="180"/>
      <point x="952" y="500" type="curve" smooth="yes"/>
      <point x="963" y="566" type="line" smooth="yes"/>
      <point x="1008" y="905"/>
      <point x="872" y="1102"/>
      <point x="596" y="1102" type="curve" smooth="yes"/>
      <point x="308" y="1102"/>
      <point x="107" y="868"/>
      <point x="56" y="580" type="curve" smooth="yes"/>
    </contour>
    <contour>
      <point x="417" y="131" type="curve" smooth="yes"/>
      <point x="303" y="131"/>
      <point x="227" y="180"/>
      <point x="189" y="278" type="curve"/>
      <point x="240" y="565" type="line" smooth="yes"/>
      <point x="280" y="790"/>
      <point x="413" y="950"/>
      <point x="569" y="950" type="curve" smooth="yes"/>
      <point x="746" y="950"/>
      <point x="819" y="794"/>
      <point x="771" y="521" type="curve" smooth="yes"/>
      <point x="725" y="261"/>
      <point x="597" y="131"/>
    </contour>
  </outline>
</glyph>
<glyph name="sigmafinal" format="2">
  <advance width="1101"/>
  <unicode hex="03C2"/>
  <note>
uni03C2
</note>
  <outline>
    <contour>
      <point x="483" y="-374" type="line"/>
      <point x="597" y="-291"/>
      <point x="692" y="-166"/>
      <point x="710" y="-82" type="curve" smooth="yes"/>
      <point x="729" y="25"/>
      <point x="692" y="84"/>
      <point x="441" y="161" type="curve" smooth="yes"/>
      <point x="239" y="227"/>
      <point x="153" y="347"/>
      <point x="190" y="552" type="curve" smooth="yes"/>
      <point x="232" y="791"/>
      <point x="371" y="950"/>
      <point x="547" y="950" type="curve" smooth="yes"/>
      <point x="695" y="950"/>
      <point x="775" y="856"/>
      <point x="749" y="709" type="curve"/>
      <point x="924" y="709" type="line"/>
      <point x="967" y="949"/>
      <point x="826" y="1102"/>
      <point x="574" y="1102" type="curve" smooth="yes"/>
      <point x="258" y="1102"/>
      <point x="57" y="848"/>
      <point x="-1" y="520" type="curve" smooth="yes"/>
      <point x="-51" y="239"/>
      <point x="89" y="70"/>
      <point x="391" y="0" type="curve" smooth="yes"/>
      <point x="458" y="-15"/>
      <point x="541" y="-33"/>
      <point x="529" y="-105" type="curve" smooth="yes"/>
      <point x="520" y="-152"/>
      <point x="497" y="-195"/>
      <point x="400" y="-289" type="curve"/>
    </contour>
  </outline>
</glyph>
<glyph name="sigma" format="2">
  <advance width="1160"/>
  <unicode hex="03C3"/>
  <note>
uni03C3
</note>
  <outline>
    <contour>
      <point x="388" y="-20" type="curve" smooth="yes"/>
      <point x="575" y="-20"/>
      <point x="746" y="77"/>
      <point x="854" y="234" type="curve" smooth="yes"/>
      <point x="909" y="312"/>
      <point x="944" y="398"/>
      <point x="961" y="491" type="curve" smooth="yes"/>
      <point x="996" y="690"/>
      <point x="954" y="830"/>
      <point x="838" y="929" type="curve"/>
      <point x="1122" y="929" type="line"/>
      <point x="1149" y="1082" type="line"/>
      <point x="573" y="1082" type="line"/>
      <point x="286" y="1080"/>
      <point x="58" y="857"/>
      <point x="2" y="538" type="curve" smooth="yes"/>
      <point x="-58" y="198"/>
      <point x="97" y="-20"/>
    </contour>
    <contour>
      <point x="414" y="131" type="curve" smooth="yes"/>
      <point x="230" y="131"/>
      <point x="143" y="285"/>
      <point x="186" y="529" type="curve" smooth="yes"/>
      <point x="233" y="790"/>
      <point x="370" y="929"/>
      <point x="553" y="929" type="curve" smooth="yes"/>
      <point x="738" y="929"/>
      <point x="827" y="780"/>
      <point x="786" y="551" type="curve" smooth="yes"/>
      <point x="739" y="280"/>
      <point x="599" y="131"/>
    </contour>
  </outline>
</glyph>
<glyph name="tau" format="2">
  <advance width="1068"/>
  <unicode hex="03C4"/>
  <note>
uni03C4
</note>
  <outline>
    <contour>
      <point x="477" y="-20" type="curve" smooth="yes"/>
      <point x="547" y="-20"/>
      <point x="611" y="-3"/>
      <point x="668" y="32" type="curve"/>
      <point x="649" y="162" type="line"/>
      <point x="613" y="145"/>
      <point x="581" y="136"/>
      <point x="552" y="136" type="curve" smooth="yes"/>
      <point x="482" y="136"/>
      <point x="455" y="180"/>
      <point x="471" y="269" type="curve" smooth="yes"/>
      <point x="588" y="932" type="line"/>
      <point x="959" y="932" type="line"/>
      <point x="985" y="1082" type="line"/>
      <point x="81" y="1082" type="line"/>
      <point x="55" y="932" type="line"/>
      <point x="402" y="932" type="line"/>
      <point x="285" y="273" type="line" smooth="yes"/>
      <point x="252" y="78"/>
      <point x="310" y="-20"/>
    </contour>
  </outline>
</glyph>
<glyph name="upsilon" format="2">
  <advance width="1117"/>
  <unicode hex="03C5"/>
  <note>
uni03C5
</note>
  <outline>
    <contour>
      <point x="345" y="-20" type="curve" smooth="yes"/>
      <point x="635" y="-20"/>
      <point x="860" y="211"/>
      <point x="922" y="562" type="curve" smooth="yes"/>
      <point x="955" y="748"/>
      <point x="948" y="921"/>
      <point x="901" y="1082" type="curve"/>
      <point x="706" y="1082" type="line"/>
      <point x="751" y="889"/>
      <point x="761" y="716"/>
      <point x="737" y="562" type="curve" smooth="yes"/>
      <point x="695" y="319"/>
      <point x="534" y="130"/>
      <point x="362" y="130" type="curve" smooth="yes"/>
      <point x="228" y="130"/>
      <point x="179" y="232"/>
      <point x="215" y="435" type="curve" smooth="yes"/>
      <point x="329" y="1082" type="line"/>
      <point x="143" y="1082" type="line"/>
      <point x="26" y="419" type="line" smooth="yes"/>
      <point x="-22" y="132"/>
      <point x="86" y="-20"/>
    </contour>
  </outline>
</glyph>
<glyph name="phi" format="2">
  <advance width="1443"/>
  <unicode hex="03C6"/>
  <note>
uni03C6
</note>
  <outline>
    <contour>
      <point x="345" y="-478" type="line"/>
      <point x="530" y="-478" type="line"/>
      <point x="611" y="-17" type="line"/>
      <point x="964" y="11"/>
      <point x="1204" y="220"/>
      <point x="1261" y="544" type="curve" smooth="yes"/>
      <point x="1296" y="743"/>
      <point x="1234" y="918"/>
      <point x="1101" y="1012" type="curve" smooth="yes"/>
      <point x="1034" y="1059"/>
      <point x="958" y="1082"/>
      <point x="871" y="1082" type="curve" smooth="yes"/>
      <point x="720" y="1082"/>
      <point x="604" y="992"/>
      <point x="579" y="852" type="curve" smooth="yes"/>
      <point x="453" y="136" type="line"/>
      <point x="238" y="171"/>
      <point x="141" y="333"/>
      <point x="182" y="564" type="curve" smooth="yes"/>
      <point x="210" y="727"/>
      <point x="297" y="856"/>
      <point x="421" y="949" type="curve"/>
      <point x="343" y="1082" type="line"/>
      <point x="153" y="966"/>
      <point x="35" y="788"/>
      <point x="-4" y="564" type="curve" smooth="yes"/>
      <point x="-63" y="229"/>
      <point x="90" y="14"/>
      <point x="426" y="-17" type="curve"/>
    </contour>
    <contour>
      <point x="638" y="136" type="curve"/>
      <point x="764" y="847" type="line" smooth="yes"/>
      <point x="773" y="902"/>
      <point x="800" y="929"/>
      <point x="844" y="929" type="curve" smooth="yes"/>
      <point x="1017" y="929"/>
      <point x="1109" y="769"/>
      <point x="1076" y="544" type="curve" smooth="yes"/>
      <point x="1038" y="325"/>
      <point x="870" y="165"/>
    </contour>
  </outline>
</glyph>
<glyph name="psi" format="2">
  <advance width="1434"/>
  <unicode hex="03C8"/>
  <note>
uni03C8
</note>
  <outline>
    <contour>
      <point x="337" y="-472" type="line"/>
      <point x="522" y="-472" type="line"/>
      <point x="602" y="-17" type="line"/>
      <point x="962" y="11"/>
      <point x="1195" y="222"/>
      <point x="1256" y="567" type="curve" smooth="yes"/>
      <point x="1289" y="753"/>
      <point x="1280" y="925"/>
      <point x="1229" y="1082" type="curve"/>
      <point x="1035" y="1082" type="line"/>
      <point x="1083" y="893"/>
      <point x="1095" y="722"/>
      <point x="1071" y="567" type="curve" smooth="yes"/>
      <point x="1029" y="330"/>
      <point x="863" y="168"/>
      <point x="629" y="136" type="curve"/>
      <point x="796" y="1082" type="line"/>
      <point x="611" y="1082" type="line"/>
      <point x="444" y="137" type="line"/>
      <point x="234" y="170"/>
      <point x="150" y="325"/>
      <point x="193" y="584" type="curve" smooth="yes"/>
      <point x="281" y="1082" type="line"/>
      <point x="95" y="1082" type="line"/>
      <point x="9" y="596" type="line" smooth="yes"/>
      <point x="-55" y="229"/>
      <point x="84" y="20"/>
      <point x="418" y="-15" type="curve"/>
    </contour>
  </outline>
</glyph>
<glyph name="omega" format="2">
  <advance width="1687"/>
  <unicode hex="03C9"/>
  <note>
uni03C9
</note>
  <outline>
    <contour>
      <point x="323" y="-20" type="curve" smooth="yes"/>
      <point x="481" y="-20"/>
      <point x="606" y="62"/>
      <point x="689" y="218" type="curve"/>
      <point x="717" y="59"/>
      <point x="812" y="-20"/>
      <point x="972" y="-20" type="curve" smooth="yes"/>
      <point x="1222" y="-20"/>
      <point x="1404" y="193"/>
      <point x="1469" y="560" type="curve" smooth="yes"/>
      <point x="1502" y="745"/>
      <point x="1487" y="919"/>
      <point x="1426" y="1082" type="curve"/>
      <point x="1231" y="1082" type="line"/>
      <point x="1290" y="893"/>
      <point x="1307" y="719"/>
      <point x="1284" y="560" type="curve" smooth="yes"/>
      <point x="1236" y="288"/>
      <point x="1129" y="130"/>
      <point x="988" y="130" type="curve" smooth="yes"/>
      <point x="845" y="130"/>
      <point x="789" y="245"/>
      <point x="826" y="464" type="curve" smooth="yes"/>
      <point x="880" y="770" type="line"/>
      <point x="693" y="770" type="line"/>
      <point x="640" y="469" type="line" smooth="yes"/>
      <point x="601" y="248"/>
      <point x="503" y="130"/>
      <point x="359" y="130" type="curve" smooth="yes"/>
      <point x="218" y="130"/>
      <point x="167" y="289"/>
      <point x="215" y="560" type="curve" smooth="yes"/>
      <point x="248" y="719"/>
      <point x="327" y="893"/>
      <point x="452" y="1082" type="curve"/>
      <point x="257" y="1082" type="line"/>
      <point x="139" y="925"/>
      <point x="64" y="751"/>
      <point x="30" y="560" type="curve" smooth="yes"/>
      <point x="-35" y="193"/>
      <point x="72" y="-20"/>
    </contour>
  </outline>
</glyph>
<glyph name="thetaSymbol" format="2">
  <advance width="1185"/>
  <unicode hex="03D1"/>
  <note>
uni03D1
</note>
  <outline>
    <contour>
      <point x="377" y="-20" type="curve" smooth="yes"/>
      <point x="643" y="-20"/>
      <point x="835" y="148"/>
      <point x="887" y="429" type="curve" smooth="yes"/>
      <point x="916" y="595" type="line"/>
      <point x="973" y="601"/>
      <point x="1022" y="612"/>
      <point x="1065" y="627" type="curve"/>
      <point x="1083" y="776" type="line"/>
      <point x="1033" y="763"/>
      <point x="986" y="755"/>
      <point x="944" y="752" type="curve"/>
      <point x="1006" y="1103" type="line" smooth="yes"/>
      <point x="1048" y="1340"/>
      <point x="947" y="1478"/>
      <point x="735" y="1478" type="curve" smooth="yes"/>
      <point x="535" y="1478"/>
      <point x="377" y="1344"/>
      <point x="340" y="1131" type="curve" smooth="yes"/>
      <point x="289" y="842"/>
      <point x="450" y="642"/>
      <point x="732" y="601" type="curve"/>
      <point x="703" y="435" type="line" smooth="yes"/>
      <point x="667" y="232"/>
      <point x="559" y="137"/>
      <point x="404" y="137" type="curve" smooth="yes"/>
      <point x="239" y="137"/>
      <point x="159" y="244"/>
      <point x="193" y="435" type="curve" smooth="yes"/>
      <point x="252" y="771" type="line"/>
      <point x="66" y="769" type="line"/>
      <point x="8" y="442" type="line" smooth="yes"/>
      <point x="-42" y="155"/>
      <point x="106" y="-20"/>
    </contour>
    <contour>
      <point x="761" y="762" type="line"/>
      <point x="584" y="802"/>
      <point x="491" y="937"/>
      <point x="524" y="1124" type="curve" smooth="yes"/>
      <point x="547" y="1255"/>
      <point x="608" y="1320"/>
      <point x="707" y="1320" type="curve" smooth="yes"/>
      <point x="805" y="1320"/>
      <point x="844" y="1254"/>
      <point x="824" y="1122" type="curve" smooth="yes"/>
    </contour>
  </outline>
</glyph>
<glyph name="UpsilonhookSymbol" format="2">
  <advance width="1090"/>
  <unicode hex="03D2"/>
  <note>
uni03D2
</note>
  <outline>
    <contour>
      <point x="261" y="0" type="line"/>
      <point x="452" y="0" type="line"/>
      <point x="553" y="570" type="line"/>
      <point x="964" y="1219" type="line" smooth="yes"/>
      <point x="997" y="1272"/>
      <point x="1039" y="1305"/>
      <point x="1084" y="1298" type="curve" smooth="yes"/>
      <point x="1135" y="1290" type="line"/>
      <point x="1197" y="1441" type="line"/>
      <point x="1166" y="1459"/>
      <point x="1126" y="1468"/>
      <point x="1078" y="1468" type="curve" smooth="yes"/>
      <point x="962" y="1468"/>
      <point x="889" y="1413"/>
      <point x="808" y="1281" type="curve" smooth="yes"/>
      <point x="494" y="774" type="line"/>
      <point x="359" y="1291" type="line" smooth="yes"/>
      <point x="325" y="1415"/>
      <point x="270" y="1468"/>
      <point x="153" y="1468" type="curve" smooth="yes"/>
      <point x="106" y="1468"/>
      <point x="63" y="1459"/>
      <point x="25" y="1440" type="curve"/>
      <point x="35" y="1290" type="line"/>
      <point x="88" y="1298" type="line" smooth="yes"/>
      <point x="133" y="1305"/>
      <point x="163" y="1272"/>
      <point x="180" y="1219" type="curve" smooth="yes"/>
      <point x="362" y="572" type="line"/>
    </contour>
  </outline>
</glyph>
<glyph name="ho-ethiopic" format="2">
  <advance width="1128"/>
  <unicode hex="1206"/>
  <outline>
    <contour>
      <point x="623" y="788" type="curve" smooth="yes"/>
      <point x="720" y="788"/>
      <point x="805" y="858"/>
      <point x="821" y="951" type="curve" smooth="yes"/>
      <point x="838" y="1046"/>
      <point x="776" y="1118"/>
      <point x="681" y="1118" type="curve" smooth="yes"/>
      <point x="582" y="1118"/>
      <point x="494" y="1044"/>
      <point x="478" y="951" type="curve" smooth="yes"/>
      <point x="462" y="859"/>
      <point x="522" y="788"/>
    </contour>
    <contour>
      <point x="582" y="950" type="curve" smooth="yes"/>
      <point x="592" y="1008"/>
      <point x="649" y="1060"/>
      <point x="712" y="1060" type="curve" smooth="yes"/>
      <point x="771" y="1060"/>
      <point x="809" y="1012"/>
      <point x="798" y="950" type="curve" smooth="yes"/>
      <point x="786" y="882"/>
      <point x="727" y="847"/>
      <point x="671" y="846" type="curve" smooth="yes"/>
      <point x="617" y="846"/>
      <point x="569" y="880"/>
    </contour>
    <component base="ha.base"/>
  </outline>
</glyph>
<glyph name="le-ethiopic" format="2">
  <advance width="1128"/>
  <unicode hex="120D"/>
  <anchor x="712" y="-122" name="_hee"/>
  <anchor x="728" y="12" name="haa"/>
  <anchor x="11" y="585" name="he"/>
  <anchor x="733" y="0" name="hee"/>
  <anchor x="822" y="93" name="hi"/>
  <anchor x="946" y="667" name="hu"/>
  <anchor x="717" y="2" name="hwa"/>
  <outline>
    <contour>
      <point x="259" y="-23" type="curve" smooth="yes"/>
      <point x="387" y="-23"/>
      <point x="497" y="69"/>
      <point x="519" y="191" type="curve" smooth="yes"/>
      <point x="541" y="316"/>
      <point x="461" y="411"/>
      <point x="336" y="411" type="curve" smooth="yes"/>
      <point x="206" y="411"/>
      <point x="89" y="313"/>
      <point x="68" y="191" type="curve" smooth="yes"/>
      <point x="47" y="71"/>
      <point x="126" y="-23"/>
    </contour>
    <contour>
      <point x="104" y="208" type="curve" smooth="yes"/>
      <point x="118" y="286"/>
      <point x="196" y="356"/>
      <point x="280" y="356" type="curve" smooth="yes"/>
      <point x="362" y="356"/>
      <point x="413" y="291"/>
      <point x="398" y="208" type="curve" smooth="yes"/>
      <point x="381" y="113"/>
      <point x="301" y="68"/>
      <point x="226" y="66" type="curve" smooth="yes"/>
      <point x="153" y="66"/>
      <point x="87" y="112"/>
    </contour>
    <component base="la.base"/>
  </outline>
</glyph>
<glyph name="lo-ethiopic" format="2">
  <advance width="1230"/>
  <unicode hex="120E"/>
  <anchor x="705" y="-122" name="_hee"/>
  <anchor x="721" y="12" name="haa"/>
  <anchor x="4" y="585" name="he"/>
  <anchor x="726" y="0" name="hee"/>
  <anchor x="815" y="93" name="hi"/>
  <anchor x="939" y="667" name="hu"/>
  <anchor x="710" y="2" name="hwa"/>
  <outline>
    <contour>
      <point x="914" y="446" type="curve" smooth="yes"/>
      <point x="1011" y="446"/>
      <point x="1095" y="516"/>
      <point x="1112" y="609" type="curve" smooth="yes"/>
      <point x="1128" y="704"/>
      <point x="1067" y="776"/>
      <point x="972" y="776" type="curve" smooth="yes"/>
      <point x="873" y="776"/>
      <point x="785" y="702"/>
      <point x="769" y="609" type="curve" smooth="yes"/>
      <point x="752" y="517"/>
      <point x="813" y="446"/>
    </contour>
    <contour>
      <point x="856" y="609" type="curve" smooth="yes"/>
      <point x="864" y="654"/>
      <point x="909" y="695"/>
      <point x="958" y="695" type="curve" smooth="yes"/>
      <point x="1005" y="695"/>
      <point x="1034" y="657"/>
      <point x="1026" y="609" type="curve" smooth="yes"/>
      <point x="1016" y="555"/>
      <point x="969" y="528"/>
      <point x="926" y="527" type="curve" smooth="yes"/>
      <point x="884" y="527"/>
      <point x="846" y="554"/>
    </contour>
    <component base="la.base" xOffset="-7"/>
  </outline>
</glyph>
<glyph name="ro-ethiopic" format="2">
  <advance width="1081"/>
  <unicode hex="122E"/>
  <anchor x="593" y="1278" name="hat"/>
  <anchor x="632" y="-26" name="hwa"/>
  <anchor x="614" y="-75" name="leg"/>
  <outline>
    <contour>
      <point x="752" y="640" type="curve" smooth="yes"/>
      <point x="888" y="640"/>
      <point x="1005" y="738"/>
      <point x="1028" y="868" type="curve" smooth="yes"/>
      <point x="1052" y="1000"/>
      <point x="967" y="1102"/>
      <point x="834" y="1102" type="curve" smooth="yes"/>
      <point x="696" y="1102"/>
      <point x="572" y="998"/>
      <point x="549" y="868" type="curve" smooth="yes"/>
      <point x="527" y="740"/>
      <point x="610" y="640"/>
    </contour>
    <contour>
      <point x="603" y="796" type="curve" smooth="yes"/>
      <point x="616" y="870"/>
      <point x="689" y="937"/>
      <point x="768" y="937" type="curve" smooth="yes"/>
      <point x="844" y="937"/>
      <point x="892" y="874"/>
      <point x="879" y="796" type="curve" smooth="yes"/>
      <point x="863" y="708"/>
      <point x="787" y="663"/>
      <point x="717" y="663" type="curve" smooth="yes"/>
      <point x="649" y="663"/>
      <point x="587" y="707"/>
    </contour>
    <component base="re-ethiopic"/>
  </outline>
</glyph>
<glyph name="qoa-ethiopic" format="2">
  <advance width="1533"/>
  <unicode hex="1247"/>
  <anchor x="597" y="11" name="haa"/>
  <anchor x="803" y="1341" name="hat"/>
  <anchor x="788" y="-165" name="hee"/>
  <anchor x="1335" y="657" name="hu"/>
  <anchor x="555" y="-25" name="hwa"/>
  <anchor x="556" y="-25" name="leg"/>
  <anchor x="761" y="1102" name="neck"/>
  <outline>
    <contour>
      <point x="245" y="-286" type="line"/>
      <point x="211" y="-477" type="line"/>
      <point x="400" y="-477" type="line"/>
      <point x="434" y="-286" type="line"/>
    </contour>
    <component base="wa.base"/>
    <component base="_smart.neck" xOffset="957" yOffset="1126"/>
    <component base="_smart.leg" xOffset="750" yOffset="-312"/>
  </outline>
</glyph>
<glyph name="qwaa-ethiopic" format="2">
  <advance width="1533"/>
  <unicode hex="124B"/>
  <anchor x="597" y="11" name="haa"/>
  <anchor x="803" y="1341" name="hat"/>
  <anchor x="788" y="-165" name="hee"/>
  <anchor x="1335" y="657" name="hu"/>
  <anchor x="555" y="-25" name="hwa"/>
  <anchor x="556" y="-25" name="leg"/>
  <anchor x="761" y="1102" name="neck"/>
  <outline>
    <contour>
      <point x="640" y="-300" type="line"/>
      <point x="613" y="-456" type="line"/>
      <point x="768" y="-456" type="line"/>
      <point x="795" y="-300" type="line"/>
    </contour>
    <component base="wa.base"/>
    <component base="_smart.neck" xOffset="957" yOffset="1126"/>
    <component base="_smart.leg" xOffset="750" yOffset="-312"/>
    <component base="_smart.hwa" xOffset="751" yOffset="-393"/>
  </outline>
</glyph>
<glyph name="qhwaa-ethiopic" format="2">
  <advance width="1533"/>
  <unicode hex="125B"/>
  <anchor x="597" y="11" name="haa"/>
  <anchor x="803" y="1341" name="hat"/>
  <anchor x="788" y="-165" name="hee"/>
  <anchor x="1335" y="657" name="hu"/>
  <anchor x="555" y="-25" name="hwa"/>
  <anchor x="556" y="-25" name="leg"/>
  <anchor x="761" y="1102" name="neck"/>
  <outline>
    <contour>
      <point x="639" y="-303" type="line"/>
      <point x="610" y="-465" type="line"/>
      <point x="729" y="-465" type="line"/>
      <point x="758" y="-303" type="line"/>
    </contour>
    <component base="wa.base"/>
    <component base="_smart.neck" xOffset="757" yOffset="1126"/>
    <component base="_smart.leg" xOffset="750" yOffset="-312"/>
    <component base="_smart.hwa" xOffset="751" yOffset="-393"/>
    <component base="_smart.hat" xOffset="203" yOffset="1329"/>
  </outline>
</glyph>
<glyph name="xe-ethiopic" format="2">
  <advance width="1103"/>
  <unicode hex="1285"/>
  <anchor x="510" y="1207" name="hat"/>
  <anchor x="553" y="1173" name="hat.002"/>
  <anchor x="856" y="14" name="hee"/>
  <anchor x="715" y="15" name="hi"/>
  <anchor x="894" y="681" name="hu"/>
  <anchor x="701" y="3" name="hwa"/>
  <anchor x="529" y="968" name="neck"/>
  <anchor x="279" y="1235" name="nose"/>
  <anchor x="393" y="1011" name="shoulder"/>
  <outline>
    <contour>
      <point x="77" y="1111" type="line"/>
      <point x="28" y="831" type="line"/>
      <point x="149" y="831" type="line"/>
      <point x="198" y="1111" type="line"/>
    </contour>
    <component base="ga.base" xOffset="251"/>
    <component base="_smart.shoulder" xOffset="501" yOffset="1084"/>
    <component base="_smart.nose" xOffset="196" yOffset="1134"/>
  </outline>
</glyph>
<glyph name="xoa-ethiopic" format="2">
  <advance width="1100"/>
  <unicode hex="1287"/>
  <anchor x="593" y="1278" name="hat"/>
  <anchor x="632" y="-26" name="hwa"/>
  <anchor x="614" y="-75" name="leg"/>
  <outline>
    <contour>
      <point x="305" y="-325" type="line"/>
      <point x="292" y="-401" type="line"/>
      <point x="680" y="-401" type="line"/>
      <point x="693" y="-325" type="line"/>
    </contour>
    <component base="xo-ethiopic"/>
  </outline>
</glyph>
<glyph name="xwi-ethiopic" format="2">
  <advance width="1126"/>
  <unicode hex="128A"/>
  <anchor x="510" y="1207" name="hat"/>
  <anchor x="553" y="1173" name="hat.002"/>
  <anchor x="856" y="14" name="hee"/>
  <anchor x="715" y="15" name="hi"/>
  <anchor x="894" y="681" name="hu"/>
  <anchor x="701" y="3" name="hwa"/>
  <anchor x="529" y="968" name="neck"/>
  <anchor x="279" y="1235" name="nose"/>
  <anchor x="393" y="1011" name="shoulder"/>
  <outline>
    <contour>
      <point x="892" y="663" type="line"/>
      <point x="876" y="572" type="line"/>
      <point x="1027" y="572" type="line"/>
      <point x="1043" y="663" type="line"/>
    </contour>
    <contour>
      <point x="996" y="766" type="line"/>
      <point x="927" y="371" type="line"/>
      <point x="993" y="371" type="line"/>
      <point x="1062" y="766" type="line"/>
    </contour>
    <contour>
      <point x="965" y="471" type="line"/>
      <point x="948" y="371" type="line"/>
      <point x="1084" y="371" type="line"/>
      <point x="1101" y="471" type="line"/>
    </contour>
    <component base="ga.base" xOffset="251"/>
    <component base="_smart.shoulder" xOffset="501" yOffset="1084"/>
    <component base="_smart.nose" xOffset="196" yOffset="1134"/>
  </outline>
</glyph>
<glyph name="xwaa-ethiopic" format="2">
  <advance width="1178"/>
  <unicode hex="128B"/>
  <anchor x="510" y="1207" name="hat"/>
  <anchor x="553" y="1173" name="hat.002"/>
  <anchor x="856" y="14" name="hee"/>
  <anchor x="715" y="15" name="hi"/>
  <anchor x="894" y="681" name="hu"/>
  <anchor x="701" y="3" name="hwa"/>
  <anchor x="529" y="968" name="neck"/>
  <anchor x="279" y="1235" name="nose"/>
  <anchor x="393" y="1011" name="shoulder"/>
  <outline>
    <contour>
      <point x="573" y="-345" type="line"/>
      <point x="793" y="-345" type="line"/>
      <point x="857" y="19" type="line"/>
      <point x="337" y="19" type="line"/>
      <point x="313" y="-112" type="line"/>
      <point x="614" y="-112" type="line"/>
    </contour>
    <component base="ga.base" xOffset="251"/>
    <component base="_smart.nose" xOffset="156" yOffset="1134"/>
    <component base="_smart.shoulder" xOffset="481" yOffset="1084"/>
  </outline>
</glyph>
<glyph name="xwe-ethiopic" format="2">
  <advance width="1263"/>
  <unicode hex="128D"/>
  <anchor x="510" y="1207" name="hat"/>
  <anchor x="553" y="1173" name="hat.002"/>
  <anchor x="856" y="14" name="hee"/>
  <anchor x="715" y="15" name="hi"/>
  <anchor x="894" y="681" name="hu"/>
  <anchor x="701" y="3" name="hwa"/>
  <anchor x="529" y="968" name="neck"/>
  <anchor x="279" y="1235" name="nose"/>
  <anchor x="393" y="1011" name="shoulder"/>
  <outline>
    <contour>
      <point x="768" y="561" type="line"/>
      <point x="735" y="374" type="line"/>
      <point x="942" y="374" type="line"/>
      <point x="975" y="561" type="line"/>
    </contour>
    <contour>
      <point x="961" y="724" type="line"/>
      <point x="887" y="306" type="line"/>
      <point x="1026" y="306" type="line"/>
      <point x="1100" y="724" type="line"/>
    </contour>
    <contour>
      <point x="1004" y="436" type="line"/>
      <point x="980" y="299" type="line"/>
      <point x="1205" y="299" type="line"/>
      <point x="1229" y="436" type="line"/>
    </contour>
    <component base="ga.base" xOffset="251"/>
    <component base="_smart.shoulder" xOffset="481" yOffset="1084"/>
    <component base="_smart.nose" xOffset="156" yOffset="1134"/>
  </outline>
</glyph>
<glyph name="ne-ethiopic" format="2">
  <advance width="941"/>
  <unicode hex="1295"/>
  <outline>
    <contour>
      <point x="429" y="-11" type="line"/>
      <point x="615" y="-11" type="line"/>
      <point x="680" y="357" type="line" smooth="yes"/>
      <point x="740" y="694"/>
      <point x="641" y="882"/>
      <point x="394" y="901" type="curve" smooth="yes"/>
      <point x="289" y="909"/>
      <point x="153" y="849"/>
      <point x="82" y="807" type="curve"/>
      <point x="238" y="743" type="line"/>
      <point x="261" y="754"/>
      <point x="302" y="782"/>
      <point x="369" y="760" type="curve" smooth="yes"/>
      <point x="498" y="718"/>
      <point x="535" y="611"/>
      <point x="496" y="364" type="curve"/>
    </contour>
    <contour>
      <point x="629" y="619" type="line"/>
      <point x="810" y="1066"/>
      <point x="638" y="1262"/>
      <point x="391" y="1281" type="curve" smooth="yes"/>
      <point x="286" y="1289"/>
      <point x="150" y="1229"/>
      <point x="79" y="1187" type="curve"/>
      <point x="235" y="1123" type="line"/>
      <point x="258" y="1134"/>
      <point x="299" y="1162"/>
      <point x="366" y="1140" type="curve" smooth="yes"/>
      <point x="495" y="1098"/>
      <point x="567" y="958"/>
      <point x="484" y="721" type="curve"/>
    </contour>
  </outline>
</glyph>
<glyph name="eGlottal-ethiopic" format="2">
  <advance width="1179"/>
  <unicode hex="12A5"/>
  <anchor x="774" y="8" name="haa"/>
  <anchor x="689" y="1382" name="hat"/>
  <anchor x="344" y="1371" name="hat.001"/>
  <anchor x="629" y="329" name="hee"/>
  <anchor x="911" y="12" name="hi"/>
  <anchor x="117" y="21" name="ho"/>
  <anchor x="968" y="673" name="hu"/>
  <anchor x="781" y="-6" name="hwa"/>
  <anchor x="657" y="1114" name="neck"/>
  <outline>
    <contour>
      <point x="171" y="1709" type="line"/>
      <point x="117" y="1403" type="line"/>
      <point x="249" y="1403" type="line"/>
      <point x="303" y="1709" type="line"/>
    </contour>
    <component base="ba.base" xOffset="62"/>
    <component base="_aa.neck" xOffset="1192"/>
  </outline>
</glyph>
<glyph name="zhe-ethiopic" format="2">
  <advance width="1347"/>
  <unicode hex="12E5"/>
  <anchor x="797" y="6" name="haa"/>
  <anchor x="636" y="328" name="hee"/>
  <anchor x="925" y="7" name="hi"/>
  <anchor x="168" y="-9" name="ho"/>
  <anchor x="1034" y="681" name="hu"/>
  <anchor x="811" y="0" name="hwa"/>
  <outline>
    <contour>
      <point x="115" y="1129" type="line"/>
      <point x="430" y="1129" type="line"/>
      <point x="448" y="1231" type="line"/>
      <point x="133" y="1231" type="line"/>
    </contour>
    <component base="za.base" xOffset="95"/>
    <component base="_zha.ears" xOffset="1210"/>
  </outline>
</glyph>
<glyph name="yi-ethiopic" format="2">
  <advance width="993"/>
  <unicode hex="12EA"/>
  <anchor x="-11" y="154" name="da"/>
  <anchor x="489" y="0" name="haa"/>
  <anchor x="118" y="5" name="haa.acute"/>
  <anchor x="481" y="1341" name="hat"/>
  <anchor x="998" y="756" name="he"/>
  <anchor x="140" y="480" name="he.left.outer"/>
  <anchor x="419" y="40" name="hee"/>
  <anchor x="879.63" y="11.0" name="hha"/>
  <anchor x="488" y="-90" name="hi"/>
  <anchor x="-34" y="0" name="ho"/>
  <anchor x="603" y="249" name="hu"/>
  <anchor x="473" y="0" name="hwa"/>
  <anchor x="518" y="1112" name="neck"/>
  <outline>
    <contour>
      <point x="319" y="237" type="line"/>
      <point x="319" y="142" type="line"/>
      <point x="626" y="142" type="line"/>
      <point x="626" y="237" type="line"/>
    </contour>
    <component base="ya.base"/>
    <component base="_smart.hi" xOffset="304" yOffset="127"/>
  </outline>
</glyph>
<glyph name="ge-ethiopic" format="2">
  <advance width="946"/>
  <unicode hex="130D"/>
  <anchor x="353" y="1207" name="hat"/>
  <anchor x="396" y="1173" name="hat.002"/>
  <anchor x="699" y="14" name="hee"/>
  <anchor x="558" y="15" name="hi"/>
  <anchor x="737" y="681" name="hu"/>
  <anchor x="544" y="3" name="hwa"/>
  <anchor x="372" y="968" name="neck"/>
  <anchor x="122" y="1235" name="nose"/>
  <anchor x="236" y="1011" name="shoulder"/>
  <outline>
    <contour>
      <point x="167" y="701" type="curve" smooth="yes"/>
      <point x="264" y="701"/>
      <point x="348" y="771"/>
      <point x="365" y="864" type="curve" smooth="yes"/>
      <point x="381" y="959"/>
      <point x="320" y="1031"/>
      <point x="225" y="1031" type="curve" smooth="yes"/>
      <point x="126" y="1031"/>
      <point x="38" y="957"/>
      <point x="22" y="864" type="curve" smooth="yes"/>
      <point x="5" y="772"/>
      <point x="66" y="701"/>
    </contour>
    <contour>
      <point x="43" y="872" type="curve" smooth="yes"/>
      <point x="54" y="932"/>
      <point x="113" y="986"/>
      <point x="178" y="986" type="curve" smooth="yes"/>
      <point x="239" y="986"/>
      <point x="278" y="935"/>
      <point x="267" y="872" type="curve" smooth="yes"/>
      <point x="254" y="801"/>
      <point x="192" y="765"/>
      <point x="136" y="764" type="curve" smooth="yes"/>
      <point x="81" y="764"/>
      <point x="30" y="800"/>
    </contour>
    <component base="ga.base" xOffset="94"/>
  </outline>
</glyph>
<glyph name="gwaa-ethiopic" format="2">
  <advance width="987"/>
  <unicode hex="1313"/>
  <anchor x="259" y="1207" name="hat"/>
  <anchor x="302" y="1173" name="hat.002"/>
  <anchor x="605" y="14" name="hee"/>
  <anchor x="464" y="15" name="hi"/>
  <anchor x="643" y="681" name="hu"/>
  <anchor x="450" y="3" name="hwa"/>
  <anchor x="278" y="968" name="neck"/>
  <anchor x="28" y="1235" name="nose"/>
  <anchor x="142" y="1011" name="shoulder"/>
  <outline>
    <contour>
      <point x="518" y="-401" type="line"/>
      <point x="670" y="-401" type="line"/>
      <point x="743" y="14" type="line"/>
      <point x="184" y="12" type="line"/>
      <point x="158" y="-140" type="line"/>
      <point x="564" y="-140" type="line"/>
    </contour>
    <component base="ga.base"/>
  </outline>
</glyph>
<glyph name="po-ethiopic" format="2">
  <advance width="679"/>
  <unicode hex="1356"/>
  <outline>
    <contour>
      <point x="-167" y="0" type="line"/>
      <point x="18" y="0" type="line"/>
      <point x="414" y="939" type="line"/>
      <point x="616" y="939" type="line"/>
      <point x="641" y="1082" type="line"/>
      <point x="57" y="1082" type="line"/>
      <point x="32" y="939" type="line"/>
      <point x="229" y="939" type="line"/>
    </contour>
  </outline>
</glyph>
<glyph name="rya-ethiopic" format="2">
  <advance width="984"/>
  <unicode hex="1358"/>
  <anchor x="641" y="91" name="fa"/>
  <anchor x="582.565" y="-13.0" name="haa"/>
  <anchor x="557.66" y="-11.0" name="haa.acute"/>
  <anchor x="580" y="960" name="hat"/>
  <anchor x="897" y="699" name="hee"/>
  <anchor x="926" y="904" name="ho.ring"/>
  <anchor x="514" y="4" name="hwa"/>
  <outline>
    <contour>
      <point x="8" y="1082" type="line"/>
      <point x="560" y="1082" type="line"/>
      <point x="580" y="1194" type="line"/>
      <point x="28" y="1194" type="line"/>
    </contour>
    <component base="ra.base"/>
    <component base="acute" xScale="-1" xOffset="1040" yOffset="-966"/>
  </outline>
</glyph>
<glyph name="comma-ethiopic" format="2">
  <advance width="556"/>
  <unicode hex="1363"/>
  <outline>
    <contour>
      <point x="139" y="1312" type="line"/>
      <point x="478" y="1312" type="line"/>
      <point x="500" y="1439" type="line"/>
      <point x="161" y="1439" type="line"/>
    </contour>
    <component base="period" xOffset="30" yOffset="70"/>
    <component base="period" xOffset="169" yOffset="823"/>
  </outline>
</glyph>
<glyph name="colon-ethiopic" format="2">
  <advance width="556"/>
  <unicode hex="1365"/>
  <outline>
    <contour>
      <point x="53" y="512" type="line"/>
      <point x="352" y="512" type="line"/>
      <point x="375" y="641" type="line"/>
      <point x="76" y="641" type="line"/>
    </contour>
    <component base="colon" xOffset="30"/>
  </outline>
</glyph>
<glyph name="prefacecolon-ethiopic" format="2">
  <advance width="730"/>
  <unicode hex="1366"/>
  <outline>
    <contour>
      <point x="239" y="547" type="line"/>
      <point x="519" y="547" type="line"/>
      <point x="539" y="665" type="line"/>
      <point x="259" y="665" type="line"/>
    </contour>
    <component base="period" xOffset="30"/>
    <component base="period" xOffset="293" yOffset="830"/>
  </outline>
</glyph>
<glyph name="paragraphseparator-ethiopic" format="2">
  <advance width="1337"/>
  <unicode hex="1368"/>
  <outline>
    <contour>
      <point x="672" y="439" type="curve" smooth="yes"/>
      <point x="739" y="439"/>
      <point x="806" y="494"/>
      <point x="818" y="562" type="curve" smooth="yes"/>
      <point x="830" y="629"/>
      <point x="783" y="686"/>
      <point x="716" y="686" type="curve" smooth="yes"/>
      <point x="648" y="686"/>
      <point x="583" y="629"/>
      <point x="571" y="562" type="curve" smooth="yes"/>
      <point x="559" y="494"/>
      <point x="604" y="439"/>
    </contour>
    <contour>
      <point x="344" y="233" type="curve" smooth="yes"/>
      <point x="401" y="265"/>
      <point x="417" y="320"/>
      <point x="368" y="379" type="curve" smooth="yes"/>
      <point x="319" y="437"/>
      <point x="253" y="441"/>
      <point x="196" y="409" type="curve" smooth="yes"/>
      <point x="143" y="378"/>
      <point x="126" y="325"/>
      <point x="174" y="267" type="curve" smooth="yes"/>
      <point x="223" y="209"/>
      <point x="291" y="202"/>
    </contour>
    <contour>
      <point x="581" y="-11" type="curve" smooth="yes"/>
      <point x="657" y="-11"/>
      <point x="706" y="36"/>
      <point x="716" y="97" type="curve" smooth="yes"/>
      <point x="728" y="161"/>
      <point x="696" y="209"/>
      <point x="620" y="209" type="curve" smooth="yes"/>
      <point x="544" y="209"/>
      <point x="498" y="161"/>
      <point x="486" y="97" type="curve" smooth="yes"/>
      <point x="476" y="36"/>
      <point x="505" y="-11"/>
    </contour>
    <contour>
      <point x="332" y="638" type="curve" smooth="yes"/>
      <point x="382" y="597"/>
      <point x="440" y="601"/>
      <point x="476" y="668" type="curve" smooth="yes"/>
      <point x="513" y="734"/>
      <point x="494" y="798"/>
      <point x="443" y="839" type="curve" smooth="yes"/>
      <point x="395" y="878"/>
      <point x="340" y="875"/>
      <point x="303" y="808" type="curve" smooth="yes"/>
      <point x="266" y="742"/>
      <point x="283" y="676"/>
    </contour>
    <contour>
      <point x="1020" y="219" type="curve" smooth="yes"/>
      <point x="1096" y="219"/>
      <point x="1145" y="266"/>
      <point x="1155" y="327" type="curve" smooth="yes"/>
      <point x="1167" y="391"/>
      <point x="1135" y="439"/>
      <point x="1059" y="439" type="curve" smooth="yes"/>
      <point x="983" y="439"/>
      <point x="937" y="391"/>
      <point x="925" y="327" type="curve" smooth="yes"/>
      <point x="915" y="266"/>
      <point x="944" y="219"/>
    </contour>
    <contour>
      <point x="721" y="827" type="curve" smooth="yes"/>
      <point x="771" y="786"/>
      <point x="829" y="790"/>
      <point x="865" y="857" type="curve" smooth="yes"/>
      <point x="902" y="923"/>
      <point x="883" y="987"/>
      <point x="832" y="1028" type="curve" smooth="yes"/>
      <point x="784" y="1067"/>
      <point x="729" y="1064"/>
      <point x="692" y="997" type="curve" smooth="yes"/>
      <point x="655" y="931"/>
      <point x="672" y="865"/>
    </contour>
    <contour>
      <point x="1170" y="610" type="curve" smooth="yes"/>
      <point x="1227" y="642"/>
      <point x="1243" y="697"/>
      <point x="1194" y="756" type="curve" smooth="yes"/>
      <point x="1145" y="814"/>
      <point x="1079" y="818"/>
      <point x="1022" y="786" type="curve" smooth="yes"/>
      <point x="969" y="755"/>
      <point x="952" y="702"/>
      <point x="1000" y="644" type="curve" smooth="yes"/>
      <point x="1049" y="586"/>
      <point x="1117" y="579"/>
    </contour>
  </outline>
</glyph>
<glyph name="two-ethiopic" format="2">
  <advance width="1356"/>
  <unicode hex="136A"/>
  <outline>
    <contour>
      <point x="61" y="370" type="line"/>
      <point x="250" y="384" type="line"/>
      <point x="385" y="1079" type="line" name="❌"/>
      <point x="201" y="1084" type="line" name="❌"/>
    </contour>
    <component base="three" xOffset="93"/>
    <component base="_num.bar" xOffset="127"/>
  </outline>
</glyph>
<glyph name="three-ethiopic" format="2">
  <advance width="1488"/>
  <unicode hex="136B"/>
  <outline>
    <contour>
      <point x="363" y="-10" type="line"/>
      <point x="582" y="1314" type="line"/>
      <point x="1370" y="1314" type="line"/>
      <point x="1343" y="1466" type="line"/>
      <point x="390" y="1466" type="line"/>
      <point x="169" y="-10" type="line"/>
    </contour>
    <component base="_num.bar" xOffset="276"/>
  </outline>
</glyph>
<glyph name="four-ethiopic" format="2">
  <advance width="1362"/>
  <unicode hex="136C"/>
  <outline>
    <contour>
      <point x="441" y="-20" type="curve" smooth="yes"/>
      <point x="755" y="-20"/>
      <point x="935" y="188"/>
      <point x="1012" y="621" type="curve" smooth="yes"/>
      <point x="1054" y="861" type="line" smooth="yes"/>
      <point x="1124" y="1280"/>
      <point x="1016" y="1476"/>
      <point x="702" y="1476" type="curve" smooth="yes"/>
      <point x="386" y="1476"/>
      <point x="207" y="1271"/>
      <point x="132" y="843" type="curve" smooth="yes"/>
      <point x="88" y="596" type="line" smooth="yes"/>
      <point x="21" y="187"/>
      <point x="130" y="-20"/>
    </contour>
    <contour>
      <point x="467" y="131" type="curve" smooth="yes"/>
      <point x="282" y="131"/>
      <point x="217" y="277"/>
      <point x="273" y="592" type="curve" smooth="yes"/>
      <point x="325" y="888" type="line" smooth="yes"/>
      <point x="380" y="1184"/>
      <point x="486" y="1324"/>
      <point x="676" y="1324" type="curve" smooth="yes"/>
      <point x="866" y="1324"/>
      <point x="927" y="1187"/>
      <point x="871" y="874" type="curve" smooth="yes"/>
      <point x="818" y="571" type="line" smooth="yes"/>
      <point x="760" y="267"/>
      <point x="650" y="131"/>
    </contour>
    <component base="_num.bar" xOffset="129"/>
  </outline>
</glyph>
<glyph name="five-ethiopic" format="2">
  <advance width="1231"/>
  <unicode hex="136D"/>
  <outline>
    <contour>
      <point x="-79" y="20" type="line"/>
      <point x="905" y="20" type="line"/>
      <point x="932" y="172" type="line"/>
      <point x="144" y="172" type="line"/>
      <point x="554" y="1476" type="line"/>
      <point x="349" y="1476" type="line"/>
    </contour>
    <component base="_num.bar" xOffset="68"/>
    <component base="_bar.part" xOffset="144" yOffset="840"/>
  </outline>
</glyph>
<glyph name="forty-ethiopic" format="2">
  <advance width="1150"/>
  <unicode hex="1375"/>
  <outline>
    <contour>
      <point x="564" y="510" type="line"/>
      <point x="713" y="510" type="line"/>
      <point x="852" y="1296" type="line"/>
      <point x="703" y="1296" type="line"/>
    </contour>
    <component base="fifty-ethiopic"/>
  </outline>
</glyph>
<glyph name="sixty-ethiopic" format="2">
  <advance width="1150"/>
  <unicode hex="1377"/>
  <outline>
    <contour>
      <point x="401" y="10" type="line"/>
      <point x="995" y="209" type="line"/>
      <point x="1025" y="377" type="line"/>
      <point x="628" y="240" type="line"/>
      <point x="728" y="809" type="line"/>
      <point x="561" y="809" type="line"/>
      <point x="676" y="1463" type="line"/>
      <point x="82" y="1264" type="line"/>
      <point x="52" y="1096" type="line"/>
      <point x="450" y="1233" type="line"/>
      <point x="347" y="639" type="line"/>
      <point x="512" y="639" type="line"/>
    </contour>
    <component base="_num.bar"/>
  </outline>
</glyph>
<glyph name="seventy-ethiopic" format="2">
  <advance width="1150"/>
  <unicode hex="1378"/>
  <outline>
    <contour>
      <point x="382" y="-20" type="curve" smooth="yes"/>
      <point x="538" y="-20"/>
      <point x="660" y="31"/>
      <point x="754" y="135" type="curve"/>
      <point x="592" y="196" type="line"/>
      <point x="541" y="152"/>
      <point x="480" y="131"/>
      <point x="408" y="131" type="curve" smooth="yes"/>
      <point x="223" y="131"/>
      <point x="159" y="277"/>
      <point x="214" y="592" type="curve" smooth="yes"/>
      <point x="266" y="888" type="line" smooth="yes"/>
      <point x="318" y="1184"/>
      <point x="427" y="1324"/>
      <point x="617" y="1324" type="curve" smooth="yes"/>
      <point x="692" y="1324"/>
      <point x="747" y="1303"/>
      <point x="782" y="1258" type="curve"/>
      <point x="956" y="1337" type="line"/>
      <point x="898" y="1431"/>
      <point x="794" y="1476"/>
      <point x="643" y="1476" type="curve" smooth="yes"/>
      <point x="327" y="1476"/>
      <point x="149" y="1271"/>
      <point x="73" y="843" type="curve" smooth="yes"/>
      <point x="29" y="596" type="line" smooth="yes"/>
      <point x="-44" y="187"/>
      <point x="71" y="-20"/>
    </contour>
    <component base="_num.bar"/>
    <component base="ring" xOffset="499" yOffset="-264"/>
  </outline>
</glyph>
<glyph name="ninety-ethiopic" format="2">
  <advance width="1150"/>
  <unicode hex="137A"/>
  <outline>
    <contour>
      <point x="626" y="-24" type="line"/>
      <point x="787" y="113" type="line"/>
      <point x="675.073" y="655.355" type="line"/>
      <point x="1109" y="1352" type="line"/>
      <point x="1127" y="1456" type="line"/>
      <point x="143" y="1456" type="line"/>
      <point x="116" y="1304" type="line"/>
      <point x="904" y="1304" type="line"/>
      <point x="492" y="658" type="line"/>
    </contour>
    <component base="_num.bar"/>
  </outline>
</glyph>
<glyph name="hundred-ethiopic" format="2">
  <advance width="1396"/>
  <unicode hex="137B"/>
  <outline>
    <contour>
      <point x="95" y="-7" type="line"/>
      <point x="284" y="-7" type="line"/>
      <point x="363" y="554" type="line"/>
      <point x="428" y="466"/>
      <point x="526" y="422"/>
      <point x="659" y="422" type="curve" smooth="yes"/>
      <point x="912" y="422"/>
      <point x="1103" y="619"/>
      <point x="1143" y="902" type="curve" smooth="yes"/>
      <point x="1185" y="1202"/>
      <point x="1037" y="1397"/>
      <point x="762" y="1397" type="curve" smooth="yes"/>
      <point x="483" y="1397"/>
      <point x="259" y="1160"/>
      <point x="212" y="823" type="curve" smooth="yes"/>
    </contour>
    <contour>
      <point x="649" y="576" type="curve" smooth="yes"/>
      <point x="522" y="576"/>
      <point x="416" y="661"/>
      <point x="391" y="776" type="curve"/>
      <point x="401" y="844" type="line" smooth="yes"/>
      <point x="435" y="1084"/>
      <point x="579" y="1244"/>
      <point x="740" y="1244" type="curve" smooth="yes"/>
      <point x="907" y="1244"/>
      <point x="989" y="1110"/>
      <point x="961" y="911" type="curve" smooth="yes"/>
      <point x="933" y="711"/>
      <point x="809" y="576"/>
    </contour>
    <component base="_num.bar" xOffset="132" yOffset="-81"/>
  </outline>
</glyph>
<glyph name="guilsinglleft" format="2">
  <advance width="614"/>
  <unicode hex="2039"/>
  <note>
uni2039
</note>
  <outline>
    <contour>
      <point x="239" y="153" type="line"/>
      <point x="380" y="153" type="line"/>
      <point x="192" y="550" type="line"/>
      <point x="521" y="949" type="line"/>
      <point x="380" y="949" type="line"/>
      <point x="16" y="560" type="line"/>
      <point x="13" y="541" type="line"/>
    </contour>
  </outline>
</glyph>
<glyph name="Ohm" format="2">
  <advance width="1266"/>
  <unicode hex="2126"/>
  <outline>
    <contour>
      <point x="-73" y="0" type="line"/>
      <point x="419" y="0" type="line"/>
      <point x="448" y="162" type="line"/>
      <point x="261" y="199"/>
      <point x="189" y="406"/>
      <point x="245" y="726" type="curve" smooth="yes"/>
      <point x="265" y="839" type="line" smooth="yes"/>
      <point x="319" y="1144"/>
      <point x="486" y="1318"/>
      <point x="711" y="1318" type="curve" smooth="yes"/>
      <point x="936" y="1318"/>
      <point x="1044" y="1149"/>
      <point x="990" y="841" type="curve" smooth="yes"/>
      <point x="966" y="707" type="line" smooth="yes"/>
      <point x="907" y="395"/>
      <point x="765" y="198"/>
      <point x="575" y="162" type="curve"/>
      <point x="546" y="0" type="line"/>
      <point x="1030" y="0" type="line"/>
      <point x="1058" y="157" type="line"/>
      <point x="838" y="157" type="line"/>
      <point x="1003" y="293"/>
      <point x="1127" y="513"/>
      <point x="1164" y="726" type="curve" smooth="yes"/>
      <point x="1187" y="856" type="line" smooth="yes"/>
      <point x="1225" y="1096"/>
      <point x="1161" y="1294"/>
      <point x="1012" y="1398" type="curve" smooth="yes"/>
      <point x="936" y="1450"/>
      <point x="845" y="1476"/>
      <point x="738" y="1476" type="curve" smooth="yes"/>
      <point x="523" y="1476"/>
      <point x="328" y="1366"/>
      <point x="200" y="1171" type="curve" smooth="yes"/>
      <point x="136" y="1074"/>
      <point x="92" y="963"/>
      <point x="70" y="839" type="curve" smooth="yes"/>
      <point x="51" y="728" type="line" smooth="yes"/>
      <point x="12" y="512"/>
      <point x="59" y="293"/>
      <point x="176" y="157" type="curve"/>
      <point x="-45" y="157" type="line"/>
    </contour>
  </outline>
</glyph>
<glyph name="partialdiff" format="2">
  <advance width="1167"/>
  <unicode hex="2202"/>
  <note>
uni2202
</note>
  <outline>
    <contour>
      <point x="394" y="-21" type="curve" smooth="yes"/>
      <point x="586" y="-21"/>
      <point x="760" y="94"/>
      <point x="875" y="293" type="curve" smooth="yes"/>
      <point x="932" y="392"/>
      <point x="972" y="505"/>
      <point x="1003" y="680" type="curve" smooth="yes"/>
      <point x="1058" y="992"/>
      <point x="1032" y="1225"/>
      <point x="930" y="1364" type="curve" smooth="yes"/>
      <point x="858" y="1464"/>
      <point x="747" y="1516"/>
      <point x="601" y="1516" type="curve" smooth="yes"/>
      <point x="500" y="1516"/>
      <point x="408" y="1500"/>
      <point x="272" y="1447" type="curve"/>
      <point x="262" y="1296" type="line"/>
      <point x="372" y="1335"/>
      <point x="470" y="1355"/>
      <point x="556" y="1355" type="curve" smooth="yes"/>
      <point x="684" y="1355"/>
      <point x="786" y="1270"/>
      <point x="830" y="1126" type="curve" smooth="yes"/>
      <point x="852" y="1053"/>
      <point x="860" y="970"/>
      <point x="853" y="877" type="curve"/>
      <point x="792" y="968"/>
      <point x="685" y="1022"/>
      <point x="561" y="1022" type="curve" smooth="yes"/>
      <point x="281" y="1022"/>
      <point x="60" y="823"/>
      <point x="6" y="516" type="curve" smooth="yes"/>
      <point x="-52" y="188"/>
      <point x="103" y="-21"/>
    </contour>
    <contour>
      <point x="420" y="130" type="curve" smooth="yes"/>
      <point x="236" y="130"/>
      <point x="150" y="280"/>
      <point x="192" y="523" type="curve" smooth="yes"/>
      <point x="230" y="736"/>
      <point x="366" y="870"/>
      <point x="553" y="870" type="curve" smooth="yes"/>
      <point x="695" y="870"/>
      <point x="797" y="794"/>
      <point x="813" y="674" type="curve"/>
      <point x="804" y="598" type="line" smooth="yes"/>
      <point x="752" y="306"/>
      <point x="609" y="130"/>
    </contour>
  </outline>
</glyph>
<glyph name="notequal" format="2">
  <advance width="1124"/>
  <unicode hex="2260"/>
  <note>
uni2260
</note>
  <outline>
    <contour>
      <point x="150" y="155" type="line"/>
      <point x="335" y="399" type="line"/>
      <point x="866" y="399" type="line"/>
      <point x="894" y="559" type="line"/>
      <point x="457" y="559" type="line"/>
      <point x="650" y="814" type="line"/>
      <point x="939" y="814" type="line"/>
      <point x="967" y="975" type="line"/>
      <point x="772" y="975" type="line"/>
      <point x="927" y="1178" type="line"/>
      <point x="842" y="1237" type="line"/>
      <point x="643" y="975" type="line"/>
      <point x="133" y="975" type="line"/>
      <point x="105" y="814" type="line"/>
      <point x="521" y="814" type="line"/>
      <point x="327" y="559" type="line"/>
      <point x="60" y="559" type="line"/>
      <point x="32" y="399" type="line"/>
      <point x="206" y="399" type="line"/>
      <point x="65" y="214" type="line"/>
    </contour>
  </outline>
</glyph>
<glyph name="lozenge" format="2">
  <advance width="1032"/>
  <unicode hex="25CA"/>
  <note>
uni25CA
</note>
  <outline>
    <contour>
      <point x="256" y="0" type="line"/>
      <point x="397" y="0" type="line"/>
      <point x="925" y="727" type="line"/>
      <point x="650" y="1456" type="line"/>
      <point x="510" y="1456" type="line"/>
      <point x="-20" y="727" type="line"/>
    </contour>
    <contour>
      <point x="363" y="201" type="line"/>
      <point x="171" y="727" type="line"/>
      <point x="543" y="1254" type="line"/>
      <point x="735" y="727" type="line"/>
    </contour>
  </outline>
</glyph>
<glyph name="_aa.neck" format="2">
  <outline>
    <contour>
      <point x="-899" y="1556" type="line"/>
      <point x="-949" y="1275" type="line"/>
      <point x="-633" y="1275" type="line"/>
      <point x="-960" y="1160" type="line"/>
      <point x="-1045" y="751" type="line"/>
      <point x="-863" y="751" type="line"/>
      <point x="-805" y="1082" type="line"/>
      <point x="-540" y="1203" type="line"/>
      <point x="-513" y="1357" type="line"/>
      <point x="-773" y="1357" type="line"/>
      <point x="-737" y="1556" type="line"/>
    </contour>
  </outline>
</glyph>
<glyph name="_bar.part" format="2">
  <advance width="1094"/>
  <outline>
    <contour>
      <point x="184" y="110" type="line"/>
      <point x="599" y="110" type="line"/>
      <point x="625" y="262" type="line"/>
      <point x="210" y="262" type="line"/>
    </contour>
  </outline>
</glyph>
<glyph name="_da.arms.caps" format="2">
  <advance width="1292"/>
  <outline>
    <contour>
      <point x="881" y="-2" type="line"/>
      <point x="897" y="112"/>
      <point x="849" y="342"/>
      <point x="720" y="342" type="curve" smooth="yes"/>
      <point x="80" y="342" type="line"/>
      <point x="63" y="247" type="line"/>
      <point x="581" y="247" type="line" smooth="yes"/>
      <point x="710" y="247"/>
      <point x="724" y="121"/>
      <point x="702" y="0" type="curve" smooth="yes"/>
      <point x="702" y="-1" type="line"/>
    </contour>
  </outline>
</glyph>
<glyph name="_da.flat" format="2">
  <outline>
    <contour>
      <point x="-1024" y="-3" type="line"/>
      <point x="-356" y="-3" type="line"/>
      <point x="-330" y="148" type="line"/>
      <point x="-998" y="148" type="line"/>
    </contour>
  </outline>
</glyph>
<glyph name="_hha.neck.cap" format="2">
  <advance width="1788"/>
  <outline>
    <contour>
      <point x="735" y="678" type="line"/>
      <point x="904" y="678" type="line"/>
      <point x="1059" y="1572" type="line"/>
      <point x="895" y="1572" type="line"/>
    </contour>
  </outline>
</glyph>
<glyph name="_ka.hat.part" format="2">
  <outline>
    <contour>
      <point x="-1128" y="1402" type="line"/>
      <point x="-697" y="1412" type="line"/>
      <point x="-686" y="1474" type="line"/>
      <point x="-963" y="1474" type="line"/>
      <point x="-874" y="1732" type="line"/>
      <point x="-1070" y="1732" type="line"/>
      <point x="-1121" y="1443" type="line"/>
    </contour>
    <component base="_smart.hu"/>
  </outline>
</glyph>
<glyph name="_ka.part" format="2">
  <outline>
    <contour>
      <point x="-1053" y="1027" type="line"/>
      <point x="-622" y="1037" type="line"/>
      <point x="-611" y="1099" type="line"/>
      <point x="-888" y="1099" type="line"/>
      <point x="-800" y="1357" type="line"/>
      <point x="-996" y="1357" type="line"/>
    </contour>
  </outline>
</glyph>
<glyph name="_kxa.hat.cap" format="2">
  <anchor x="750" y="1703" name="_hat.cap"/>
  <outline>
    <contour>
      <point x="100" y="1785" type="line"/>
      <point x="75" y="1642" type="line"/>
      <point x="749" y="1642" type="line"/>
      <point x="774" y="1785" type="line"/>
    </contour>
  </outline>
</glyph>
<glyph name="_leg.part" format="2">
  <outline>
    <contour>
      <point x="-343" y="-408" type="line"/>
      <point x="-224" y="-408" type="line"/>
      <point x="-143" y="-54" type="line"/>
      <point x="-297" y="-54" type="line"/>
    </contour>
  </outline>
</glyph>
<glyph name="_num.bar" format="2">
  <advance width="1126"/>
  <outline>
    <contour>
      <point x="1183" y="1488" type="line"/>
      <point x="1210" y="1637" type="line"/>
      <point x="84" y="1637" type="line"/>
      <point x="57" y="1488" type="line"/>
    </contour>
    <contour>
      <point x="896" y="-172" type="line"/>
      <point x="922" y="-23" type="line"/>
      <point x="-204" y="-23" type="line"/>
      <point x="-230" y="-172" type="line"/>
    </contour>
  </outline>
</glyph>
<glyph name="_nya.hat" format="2">
  <anchor x="846" y="1085" name="_hu"/>
  <outline>
    <contour>
      <point x="73" y="1748" type="line"/>
      <point x="49" y="1612" type="line"/>
      <point x="524" y="1612" type="line"/>
      <point x="548" y="1748" type="line"/>
    </contour>
  </outline>
</glyph>
<glyph name="_smart.cha.caps" format="2">
  <anchor x="-83" y="12" name="_cha.caps"/>
  <outline>
    <contour>
      <point x="-396" y="12" type="curve" smooth="yes"/>
      <point x="-324" y="12"/>
      <point x="-278" y="57"/>
      <point x="-268" y="117" type="curve" smooth="yes"/>
      <point x="-257" y="177"/>
      <point x="-287" y="224"/>
      <point x="-359" y="224" type="curve" smooth="yes"/>
      <point x="-431" y="224"/>
      <point x="-476" y="177"/>
      <point x="-487" y="117" type="curve" smooth="yes"/>
      <point x="-497" y="57"/>
      <point x="-468" y="12"/>
    </contour>
    <contour>
      <point x="534" y="12" type="curve" smooth="yes"/>
      <point x="606" y="12"/>
      <point x="652" y="57"/>
      <point x="662" y="117" type="curve" smooth="yes"/>
      <point x="673" y="177"/>
      <point x="643" y="224"/>
      <point x="571" y="224" type="curve" smooth="yes"/>
      <point x="499" y="224"/>
      <point x="454" y="177"/>
      <point x="443" y="117" type="curve" smooth="yes"/>
      <point x="433" y="57"/>
      <point x="462" y="12"/>
    </contour>
  </outline>
</glyph>
<glyph name="_smart.cha" format="2">
  <anchor x="-5" y="34" name="_cha"/>
  <outline>
    <contour>
      <point x="-648" y="12" type="curve" smooth="yes"/>
      <point x="-576" y="12"/>
      <point x="-530" y="57"/>
      <point x="-520" y="117" type="curve" smooth="yes"/>
      <point x="-509" y="177"/>
      <point x="-539" y="224"/>
      <point x="-611" y="224" type="curve" smooth="yes"/>
      <point x="-683" y="224"/>
      <point x="-728" y="177"/>
      <point x="-739" y="117" type="curve" smooth="yes"/>
      <point x="-749" y="57"/>
      <point x="-720" y="12"/>
    </contour>
    <contour>
      <point x="282" y="12" type="curve" smooth="yes"/>
      <point x="354" y="12"/>
      <point x="400" y="57"/>
      <point x="410" y="117" type="curve" smooth="yes"/>
      <point x="421" y="177"/>
      <point x="391" y="224"/>
      <point x="319" y="224" type="curve" smooth="yes"/>
      <point x="247" y="224"/>
      <point x="202" y="177"/>
      <point x="191" y="117" type="curve" smooth="yes"/>
      <point x="181" y="57"/>
      <point x="210" y="12"/>
    </contour>
  </outline>
</glyph>
<glyph name="_smart.da" format="2">
  <anchor x="-66" y="156" name="_da"/>
  <outline>
    <contour>
      <point x="-174" y="-3" type="line" name="❌"/>
      <point x="494" y="-3" type="line" name="❌"/>
      <point x="520" y="148" type="line"/>
      <point x="-148" y="148" type="line"/>
    </contour>
  </outline>
</glyph>
<glyph name="_smart.fa" format="2">
  <anchor x="433" y="54" name="_fa"/>
  <outline>
    <contour>
      <point x="225" y="528" type="line"/>
      <point x="67" y="527" type="line"/>
      <point x="331" y="55" type="line"/>
      <point x="490" y="55" type="line"/>
    </contour>
  </outline>
</glyph>
<glyph name="_smart.haa.caps" format="2">
  <anchor x="-29" y="355" name="_haa.caps"/>
  <outline>
    <contour>
      <point x="-166" y="-1" type="line" name="❌"/>
      <point x="-47" y="-1" type="line" name="❌"/>
      <point x="33" y="353" type="line"/>
      <point x="-121" y="353" type="line"/>
    </contour>
  </outline>
</glyph>
<glyph name="_smart.haa" format="2">
  <anchor x="-129" y="355" name="_haa"/>
  <outline>
    <contour>
      <point x="-266" y="-1" type="line"/>
      <point x="-147" y="-1" type="line"/>
      <point x="-67" y="353" type="line"/>
      <point x="-221" y="353" type="line"/>
    </contour>
  </outline>
</glyph>
<glyph name="_smart.hat.cap" format="2">
  <advance width="1328"/>
  <anchor x="748" y="1692" name="_hat.cap"/>
  <outline>
    <contour>
      <point x="458" y="1783" type="line"/>
      <point x="441" y="1689" type="line"/>
      <point x="1046" y="1689" type="line"/>
      <point x="1063" y="1783" type="line"/>
    </contour>
  </outline>
</glyph>
<glyph name="_smart.hat.caps" format="2">
  <anchor x="349" y="1637" name="_hat.cap"/>
  <anchor x="92" y="1652" name="_hat.caps"/>
  <outline>
    <contour>
      <point x="-325" y="1642" type="line"/>
      <point x="349" y="1642" type="line"/>
      <point x="374" y="1785" type="line"/>
      <point x="-300" y="1785" type="line"/>
    </contour>
  </outline>
</glyph>
<glyph name="_smart.hat" format="2">
  <anchor x="-84" y="12" name="_hat"/>
  <outline>
    <contour>
      <point x="-397" y="52" type="line"/>
      <point x="228" y="52" type="line"/>
      <point x="243" y="134" type="line"/>
      <point x="-382" y="134" type="line"/>
    </contour>
  </outline>
</glyph>
<glyph name="_smart.hat.left" format="2">
  <anchor x="5" y="12" name="_hat.left"/>
  <outline>
    <contour>
      <point x="-397" y="52" type="line"/>
      <point x="228" y="52" type="line"/>
      <point x="243" y="134" type="line"/>
      <point x="-382" y="134" type="line"/>
    </contour>
  </outline>
</glyph>
<glyph name="_smart.he.acute.bottom" format="2">
  <note>
uni00B4
</note>
  <anchor x="-1" y="-3" name="_he.acute.bottom"/>
  <outline>
    <contour>
      <point x="-429" y="-308" type="line"/>
      <point x="-280" y="-308" type="line"/>
      <point x="40" y="-14" type="line"/>
      <point x="-184" y="-14" type="line"/>
    </contour>
  </outline>
</glyph>
<glyph name="_smart.he.acute.top" format="2">
  <anchor x="0" y="1086" name="_he.acute.top"/>
  <outline>
    <contour>
      <point x="60" y="1082" type="line"/>
      <point x="-185" y="1376" type="line"/>
      <point x="-409" y="1376" type="line"/>
      <point x="-89" y="1082" type="line"/>
    </contour>
  </outline>
</glyph>
<glyph name="_smart.he" format="2">
  <anchor x="-103" y="-44" name="_he"/>
  <outline>
    <contour>
      <point x="-231" y="-149" type="curve" smooth="yes"/>
      <point x="-159" y="-149"/>
      <point x="-113" y="-104"/>
      <point x="-103" y="-44" type="curve" smooth="yes"/>
      <point x="-92" y="16"/>
      <point x="-122" y="63"/>
      <point x="-194" y="63" type="curve" smooth="yes"/>
      <point x="-266" y="63"/>
      <point x="-311" y="16"/>
      <point x="-322" y="-44" type="curve" smooth="yes"/>
      <point x="-332" y="-104"/>
      <point x="-303" y="-149"/>
    </contour>
  </outline>
</glyph>
<glyph name="_smart.he.left.inner" format="2">
  <anchor x="0" y="-41" name="_he.left.inner"/>
  <outline>
    <contour>
      <point x="-11" y="-149" type="curve" smooth="yes"/>
      <point x="61" y="-149"/>
      <point x="107" y="-104"/>
      <point x="117" y="-44" type="curve" smooth="yes"/>
      <point x="128" y="16"/>
      <point x="98" y="63"/>
      <point x="26" y="63" type="curve" smooth="yes"/>
      <point x="-46" y="63"/>
      <point x="-91" y="16"/>
      <point x="-102" y="-44" type="curve" smooth="yes"/>
      <point x="-112" y="-104"/>
      <point x="-83" y="-149"/>
    </contour>
  </outline>
</glyph>
<glyph name="_smart.he.left.outer" format="2">
  <anchor x="0" y="-41" name="_he.left.outer"/>
  <outline>
    <contour>
      <point x="-231" y="-149" type="curve" smooth="yes"/>
      <point x="-159" y="-149"/>
      <point x="-113" y="-104"/>
      <point x="-103" y="-44" type="curve" smooth="yes"/>
      <point x="-92" y="16"/>
      <point x="-122" y="63"/>
      <point x="-194" y="63" type="curve" smooth="yes"/>
      <point x="-266" y="63"/>
      <point x="-311" y="16"/>
      <point x="-322" y="-44" type="curve" smooth="yes"/>
      <point x="-332" y="-104"/>
      <point x="-303" y="-149"/>
    </contour>
  </outline>
</glyph>
<glyph name="_smart.hee" format="2">
  <anchor x="-38" y="320" name="_hee"/>
  <outline>
    <contour>
      <point x="-115" y="-115" type="curve" smooth="yes"/>
      <point x="43" y="-115"/>
      <point x="179" y="-1"/>
      <point x="207" y="150" type="curve" smooth="yes"/>
      <point x="234" y="304"/>
      <point x="135" y="421"/>
      <point x="-20" y="421" type="curve" smooth="yes"/>
      <point x="-182" y="421"/>
      <point x="-324" y="301"/>
      <point x="-350" y="150" type="curve" smooth="yes"/>
      <point x="-376" y="1"/>
      <point x="-279" y="-115"/>
    </contour>
    <contour>
      <point x="-54" y="-66" type="curve" smooth="yes"/>
      <point x="-149" y="-66"/>
      <point x="-234" y="-5"/>
      <point x="-213" y="118" type="curve" smooth="yes"/>
      <point x="-195" y="220"/>
      <point x="-92" y="312"/>
      <point x="18" y="312" type="curve" smooth="yes"/>
      <point x="124" y="312"/>
      <point x="189" y="226"/>
      <point x="171" y="118" type="curve" smooth="yes"/>
      <point x="149" y="-4"/>
      <point x="43" y="-64"/>
    </contour>
  </outline>
</glyph>
<glyph name="_smart.hi" format="2">
  <anchor x="-187" y="115" name="_hi"/>
  <outline>
    <contour>
      <point x="-85" y="-8" type="curve" smooth="yes"/>
      <point x="-18" y="-8"/>
      <point x="49" y="47"/>
      <point x="60" y="115" type="curve" smooth="yes"/>
      <point x="72" y="182"/>
      <point x="25" y="239"/>
      <point x="-42" y="239" type="curve" smooth="yes"/>
      <point x="-110" y="239"/>
      <point x="-175" y="182"/>
      <point x="-187" y="115" type="curve" smooth="yes"/>
      <point x="-198" y="47"/>
      <point x="-153" y="-8"/>
    </contour>
  </outline>
</glyph>
<glyph name="_smart.ho.caps" format="2">
  <anchor x="-35" y="350" name="_ho.caps"/>
  <outline>
    <contour>
      <point x="-161" y="-5" type="line"/>
      <point x="-42" y="-5" type="line"/>
      <point x="39" y="349" type="line"/>
      <point x="-115" y="349" type="line"/>
    </contour>
  </outline>
</glyph>
<glyph name="_smart.ho" format="2">
  <anchor x="-125" y="350" name="_ho"/>
  <outline>
    <contour>
      <point x="-251" y="-5" type="line"/>
      <point x="-132" y="-5" type="line"/>
      <point x="-51" y="349" type="line"/>
      <point x="-205" y="349" type="line"/>
    </contour>
  </outline>
</glyph>
<glyph name="_smart.ho.ring" format="2">
  <anchor x="112" y="1071" name="_ho.ring"/>
  <outline>
    <contour>
      <point x="-333" y="845" type="curve" smooth="yes"/>
      <point x="-169" y="845"/>
      <point x="-34" y="961"/>
      <point x="-24" y="1110" type="curve" smooth="yes"/>
      <point x="-7" y="1371"/>
      <point x="-115" y="1353"/>
      <point x="-277" y="1353" type="curve" smooth="yes"/>
      <point x="-432" y="1353"/>
      <point x="-564" y="1264"/>
      <point x="-581" y="1110" type="curve" smooth="yes"/>
      <point x="-595" y="959"/>
      <point x="-491" y="845"/>
    </contour>
    <contour>
      <point x="-380" y="894" type="curve" smooth="yes"/>
      <point x="-477" y="896"/>
      <point x="-566" y="956"/>
      <point x="-554" y="1078" type="curve" smooth="yes" name="❌"/>
      <point x="-541" y="1186"/>
      <point x="-452" y="1272"/>
      <point x="-346" y="1272" type="curve" smooth="yes"/>
      <point x="-236" y="1272"/>
      <point x="-159" y="1180"/>
      <point x="-170" y="1078" type="curve" smooth="yes" name="❌"/>
      <point x="-183" y="955"/>
      <point x="-285" y="894"/>
    </contour>
  </outline>
</glyph>
<glyph name="_smart.hwa" format="2">
  <anchor x="-126" y="368" name="_hwa"/>
  <outline>
    <contour>
      <point x="-391" y="20" type="line"/>
      <point x="-31" y="20" type="line"/>
      <point x="-19" y="91" type="line"/>
      <point x="-113" y="91" type="line"/>
      <point x="-46" y="384" type="line"/>
      <point x="-200" y="384" type="line"/>
      <point x="-238" y="91" type="line"/>
      <point x="-379" y="91" type="line"/>
    </contour>
  </outline>
</glyph>
<glyph name="_smart.ka.caps" format="2">
  <anchor x="-959" y="1466" name="_ka.caps"/>
  <outline>
    <contour>
      <point x="-1283" y="1377" type="line"/>
      <point x="-852" y="1387" type="line"/>
      <point x="-841" y="1449" type="line"/>
      <point x="-1038" y="1449" type="line"/>
      <point x="-1010" y="1707" type="line"/>
      <point x="-1256" y="1707" type="line"/>
    </contour>
  </outline>
</glyph>
<glyph name="_smart.ka" format="2">
  <anchor x="-620" y="1035" name="_ka"/>
  <outline>
    <contour>
      <point x="-1053" y="1027" type="line"/>
      <point x="-622" y="1037" type="line"/>
      <point x="-611" y="1099" type="line"/>
      <point x="-898" y="1099" type="line"/>
      <point x="-870" y="1357" type="line"/>
      <point x="-1026" y="1357" type="line"/>
    </contour>
  </outline>
</glyph>
<glyph name="_smart.leg" format="2">
  <anchor x="-138" y="287" name="_leg"/>
  <outline>
    <contour>
      <point x="-276" y="-24" type="line"/>
      <point x="-107" y="-24" type="line"/>
      <point x="-45" y="340" type="line"/>
      <point x="-209" y="340" type="line"/>
    </contour>
  </outline>
</glyph>
<glyph name="_smart.neck.cap" format="2">
  <advance width="1328"/>
  <anchor x="695" y="1462" name="_neck.cap"/>
  <outline>
    <contour>
      <point x="672" y="1713" type="line"/>
      <point x="627" y="1456" type="line"/>
      <point x="774" y="1456" type="line"/>
      <point x="819" y="1713" type="line"/>
    </contour>
  </outline>
</glyph>
<glyph name="_smart.neck.caps" format="2">
  <anchor x="-25" y="1462" name="_neck.caps"/>
  <outline>
    <contour>
      <point x="-93" y="1456" type="line"/>
      <point x="54" y="1456" type="line"/>
      <point x="99" y="1713" type="line"/>
      <point x="-48" y="1713" type="line"/>
    </contour>
  </outline>
</glyph>
<glyph name="_smart.neck" format="2">
  <anchor x="-194" y="-24" name="_neck"/>
  <outline>
    <contour>
      <point x="-276" y="-24" type="line"/>
      <point x="-107" y="-24" type="line"/>
      <point x="-45" y="340" type="line"/>
      <point x="-209" y="340" type="line"/>
    </contour>
  </outline>
</glyph>
<glyph name="_smart.neck.hha.caps" format="2">
  <anchor x="-939" y="680" name="_smart..neck.hha.caps"/>
  <anchor x="-909" y="680.5" name="_smart.neck.hha.caps"/>
  <outline>
    <contour>
      <point x="-1035" y="678" type="line"/>
      <point x="-866" y="678" type="line"/>
      <point x="-711" y="1572" type="line"/>
      <point x="-875" y="1572" type="line"/>
    </contour>
  </outline>
</glyph>
<glyph name="_smart.neck.left" format="2">
  <anchor x="-194" y="-24" name="_neck.left"/>
  <outline>
    <contour>
      <point x="-276" y="-24" type="line"/>
      <point x="-107" y="-24" type="line"/>
      <point x="-45" y="340" type="line"/>
      <point x="-209" y="340" type="line"/>
    </contour>
  </outline>
</glyph>
<glyph name="_smart.shoulder" format="2">
  <anchor x="-132" y="-73" name="_shoulder"/>
  <outline>
    <contour>
      <point x="-243" y="-82" type="line"/>
      <point x="-87" y="-45" type="line"/>
      <point x="-7" y="249" type="line"/>
      <point x="-201" y="249" type="line"/>
    </contour>
  </outline>
</glyph>
<glyph name="_smart.tsa.belt.caps" format="2">
  <anchor x="17" y="755" name="_tsa.belt.caps"/>
  <outline>
    <contour>
      <point x="-368" y="701" type="line"/>
      <point x="467" y="701" type="line"/>
      <point x="494" y="852" type="line"/>
      <point x="-341" y="852" type="line"/>
    </contour>
  </outline>
</glyph>
<glyph name="_smart.tsa.belt" format="2">
  <anchor x="-7" y="602" name="_tsa.belt"/>
  <outline>
    <contour>
      <point x="-408" y="500" type="line"/>
      <point x="407" y="500" type="line"/>
      <point x="434" y="652" type="line"/>
      <point x="-381" y="652" type="line"/>
    </contour>
  </outline>
</glyph>
<glyph name="_smart.zha.caps" format="2">
  <anchor x="-7" y="956" name="_zha.caps"/>
  <outline>
    <contour>
      <point x="-988" y="762" type="curve" smooth="yes"/>
      <point x="-916" y="762"/>
      <point x="-870" y="807"/>
      <point x="-860" y="867" type="curve" smooth="yes"/>
      <point x="-849" y="927"/>
      <point x="-879" y="974"/>
      <point x="-951" y="974" type="curve" smooth="yes"/>
      <point x="-1023" y="974"/>
      <point x="-1068" y="927"/>
      <point x="-1079" y="867" type="curve" smooth="yes"/>
      <point x="-1089" y="807"/>
      <point x="-1060" y="762"/>
    </contour>
    <contour>
      <point x="322" y="762" type="curve" smooth="yes"/>
      <point x="394" y="762"/>
      <point x="440" y="807"/>
      <point x="450" y="867" type="curve" smooth="yes"/>
      <point x="461" y="927"/>
      <point x="431" y="974"/>
      <point x="359" y="974" type="curve" smooth="yes"/>
      <point x="287" y="974"/>
      <point x="242" y="927"/>
      <point x="231" y="867" type="curve" smooth="yes"/>
      <point x="221" y="807"/>
      <point x="250" y="762"/>
    </contour>
  </outline>
</glyph>
<glyph name="_smart.zha" format="2">
  <anchor x="-7" y="956" name="_zha"/>
  <outline>
    <contour>
      <point x="-418" y="862" type="curve" smooth="yes"/>
      <point x="-346" y="862"/>
      <point x="-300" y="907"/>
      <point x="-290" y="967" type="curve" smooth="yes"/>
      <point x="-279" y="1027"/>
      <point x="-309" y="1074"/>
      <point x="-381" y="1074" type="curve" smooth="yes"/>
      <point x="-453" y="1074"/>
      <point x="-498" y="1027"/>
      <point x="-509" y="967" type="curve" smooth="yes"/>
      <point x="-519" y="907"/>
      <point x="-490" y="862"/>
    </contour>
    <contour>
      <point x="602" y="862" type="curve" smooth="yes"/>
      <point x="674" y="862"/>
      <point x="720" y="907"/>
      <point x="730" y="967" type="curve" smooth="yes"/>
      <point x="741" y="1027"/>
      <point x="711" y="1074"/>
      <point x="639" y="1074" type="curve" smooth="yes"/>
      <point x="567" y="1074"/>
      <point x="522" y="1027"/>
      <point x="511" y="967" type="curve" smooth="yes"/>
      <point x="501" y="907"/>
      <point x="530" y="862"/>
    </contour>
  </outline>
</glyph>
<glyph name="_tsa.belt" format="2">
  <outline>
    <contour>
      <point x="-1108" y="500" type="line"/>
      <point x="-293" y="500" type="line"/>
      <point x="-266" y="652" type="line"/>
      <point x="-1081" y="652" type="line"/>
    </contour>
  </outline>
</glyph>
<glyph name="_va.hat" format="2">
  <outline>
    <contour>
      <point x="-884" y="1160" type="line"/>
      <point x="-169" y="1160" type="line"/>
      <point x="-142" y="1312" type="line"/>
      <point x="-857" y="1312" type="line"/>
    </contour>
  </outline>
</glyph>
<glyph name="aGl.base.cap" format="2">
  <advance width="1349"/>
  <anchor x="1030" y="6" name="haa"/>
  <anchor x="240" y="1677" name="hat"/>
  <anchor x="240" y="1677" name="hat.left"/>
  <anchor x="1119" y="-1" name="hee"/>
  <anchor x="-71" y="18" name="ho"/>
  <anchor x="957" y="965" name="hu"/>
  <anchor x="1157" y="9" name="hwa"/>
  <anchor x="1224" y="4" name="ni"/>
  <outline>
    <contour>
      <point x="-160" y="0" type="line"/>
      <point x="50" y="0" type="line"/>
      <point x="650" y="1041" type="line"/>
      <point x="880" y="0" type="line"/>
      <point x="1089" y="0" type="line"/>
      <point x="779" y="1294" type="line"/>
      <point x="804" y="1446" type="line"/>
      <point x="382" y="1446" type="line"/>
      <point x="422" y="1673" type="line"/>
      <point x="262" y="1673" type="line"/>
      <point x="195" y="1294" type="line"/>
      <point x="608" y="1294" type="line"/>
    </contour>
  </outline>
</glyph>
<glyph name="aPharyngeal-ethiopic.etcp" format="2">
  <advance width="1408"/>
  <anchor x="933" y="-30" name="haa"/>
  <anchor x="740" y="1457" name="he"/>
  <anchor x="610" y="-81" name="hee"/>
  <anchor x="926" y="14" name="hi"/>
  <anchor x="1234" y="1071" name="hu"/>
  <anchor x="503" y="-24" name="hwa"/>
  <outline>
    <contour>
      <point x="500" y="-20" type="curve" smooth="yes"/>
      <point x="735" y="-20"/>
      <point x="936" y="95"/>
      <point x="1070" y="308" type="curve" smooth="yes"/>
      <point x="1136" y="414"/>
      <point x="1182" y="538"/>
      <point x="1207" y="681" type="curve" smooth="yes"/>
      <point x="1224" y="773" type="line" smooth="yes"/>
      <point x="1274" y="1057"/>
      <point x="1214" y="1279"/>
      <point x="1056" y="1392" type="curve" smooth="yes"/>
      <point x="977" y="1448"/>
      <point x="878" y="1476"/>
      <point x="761" y="1476" type="curve" smooth="yes"/>
      <point x="532" y="1476"/>
      <point x="326" y="1359"/>
      <point x="191" y="1144" type="curve" smooth="yes"/>
      <point x="123" y="1037"/>
      <point x="77" y="913"/>
      <point x="53" y="773" type="curve" smooth="yes"/>
      <point x="34" y="668" type="line" smooth="yes"/>
      <point x="-34" y="282"/>
      <point x="126" y="-20"/>
    </contour>
    <contour>
      <point x="528" y="143" type="curve" smooth="yes"/>
      <point x="281" y="143"/>
      <point x="168" y="346"/>
      <point x="227" y="681" type="curve" smooth="yes"/>
      <point x="246" y="788" type="line" smooth="yes"/>
      <point x="304" y="1116"/>
      <point x="489" y="1311"/>
      <point x="732" y="1311" type="curve" smooth="yes"/>
      <point x="981" y="1311"/>
      <point x="1094" y="1120"/>
      <point x="1033" y="775" type="curve" smooth="yes"/>
      <point x="1014" y="667" type="line" smooth="yes"/>
      <point x="954" y="330"/>
      <point x="776" y="143"/>
    </contour>
  </outline>
</glyph>
<glyph name="ba-ethiopic.etcp" format="2">
  <advance width="1329"/>
  <anchor x="948" y="24" name="haa"/>
  <anchor x="751" y="1703" name="hat.cap"/>
  <anchor x="920" y="-47" name="hee"/>
  <anchor x="1039" y="6" name="hi"/>
  <anchor x="44" y="14" name="ho"/>
  <anchor x="1192" y="1079" name="hu"/>
  <anchor x="907" y="21" name="hwa"/>
  <anchor x="731" y="1468" name="neck.cap"/>
  <outline>
    <contour>
      <point x="735" y="1476" type="curve" smooth="yes"/>
      <point x="417" y="1476"/>
      <point x="178" y="1293"/>
      <point x="125" y="992" type="curve" smooth="yes"/>
      <point x="-50" y="0" type="line"/>
      <point x="140" y="0" type="line"/>
      <point x="314" y="986" type="line" smooth="yes"/>
      <point x="351" y="1197"/>
      <point x="493" y="1319"/>
      <point x="708" y="1319" type="curve" smooth="yes"/>
      <point x="925" y="1319"/>
      <point x="1022" y="1198"/>
      <point x="985" y="987" type="curve" smooth="yes"/>
      <point x="811" y="0" type="line"/>
      <point x="1004" y="0" type="line"/>
      <point x="1179" y="990" type="line" smooth="yes"/>
      <point x="1227" y="1265"/>
      <point x="1039" y="1476"/>
    </contour>
  </outline>
</glyph>
<glyph name="ba.base.cap" format="2">
  <advance width="1374"/>
  <anchor x="950" y="39" name="haa.caps"/>
  <anchor x="881" y="1648" name="hat.caps"/>
  <anchor x="457" y="1605" name="hat.left"/>
  <anchor x="769.729" y="1481" name="he.acute.top"/>
  <anchor x="343" y="772" name="he.left.inner"/>
  <anchor x="77" y="764" name="he.left.outer"/>
  <anchor x="881" y="20" name="hee"/>
  <anchor x="1011" y="103" name="hi"/>
  <anchor x="34" y="26" name="ho.caps"/>
  <anchor x="1205" y="866" name="hu"/>
  <anchor x="930" y="23" name="hwa"/>
  <anchor x="475" y="1480" name="ka.caps"/>
  <anchor x="752" y="1475" name="neck.caps"/>
  <outline>
    <contour>
      <point x="-50" y="0" type="line"/>
      <point x="140" y="0" type="line"/>
      <point x="314" y="986" type="line" smooth="yes"/>
      <point x="351" y="1197"/>
      <point x="493" y="1319"/>
      <point x="708" y="1319" type="curve" smooth="yes"/>
      <point x="925" y="1319"/>
      <point x="1022" y="1198"/>
      <point x="985" y="987" type="curve" smooth="yes"/>
      <point x="811" y="0" type="line"/>
      <point x="1004" y="0" type="line"/>
      <point x="1179" y="990" type="line" smooth="yes"/>
      <point x="1228" y="1265"/>
      <point x="1039" y="1476"/>
      <point x="735" y="1476" type="curve" smooth="yes"/>
      <point x="417" y="1476"/>
      <point x="178" y="1293"/>
      <point x="125" y="992" type="curve" smooth="yes"/>
    </contour>
  </outline>
</glyph>
<glyph name="ba.base" format="2">
  <advance width="1130"/>
  <anchor x="712" y="8" name="haa"/>
  <anchor x="627" y="1382" name="hat"/>
  <anchor x="282" y="1371" name="hat.001"/>
  <anchor x="567" y="329" name="hee"/>
  <anchor x="849" y="12" name="hi"/>
  <anchor x="55" y="21" name="ho"/>
  <anchor x="906" y="673" name="hu"/>
  <anchor x="719" y="-6" name="hwa"/>
  <anchor x="595" y="1114" name="neck"/>
  <outline>
    <contour>
      <point x="-51" y="0" type="line"/>
      <point x="134" y="0" type="line"/>
      <point x="260" y="716" type="line" smooth="yes"/>
      <point x="286" y="862"/>
      <point x="403" y="945"/>
      <point x="565" y="945" type="curve" smooth="yes"/>
      <point x="713" y="945"/>
      <point x="768" y="872"/>
      <point x="741" y="716" type="curve" smooth="yes"/>
      <point x="615" y="0" type="line"/>
      <point x="800" y="0" type="line"/>
      <point x="926" y="715" type="line" smooth="yes"/>
      <point x="971" y="973"/>
      <point x="816" y="1102"/>
      <point x="587" y="1102" type="curve" smooth="yes"/>
      <point x="323" y="1102"/>
      <point x="118" y="957"/>
      <point x="81" y="748" type="curve" smooth="yes"/>
    </contour>
  </outline>
</glyph>
<glyph name="da-ethiopic.etcp" format="2">
  <advance width="1301"/>
  <anchor x="952" y="-50" name="haa"/>
  <anchor x="714" y="1697" name="hat.cap"/>
  <anchor x="1013" y="900" name="he"/>
  <anchor x="933" y="-30" name="hee"/>
  <anchor x="1029" y="25" name="hi"/>
  <anchor x="59" y="11" name="ho"/>
  <anchor x="924" y="329" name="hu"/>
  <anchor x="941" y="-1" name="hwa"/>
  <anchor x="711" y="1463" name="neck.cap"/>
  <outline>
    <contour>
      <point x="-22" y="0" type="line"/>
      <point x="170" y="0" type="line"/>
      <point x="271" y="570" type="line"/>
      <point x="614" y="570" type="line" smooth="yes"/>
      <point x="943" y="570"/>
      <point x="1154" y="728"/>
      <point x="1203" y="1011" type="curve" smooth="yes"/>
      <point x="1251" y="1279"/>
      <point x="1091" y="1456"/>
      <point x="772" y="1456" type="curve" smooth="yes"/>
      <point x="235" y="1456" type="line"/>
    </contour>
    <contour>
      <point x="298" y="727" type="line"/>
      <point x="399" y="1298" type="line"/>
      <point x="755" y="1298" type="line" smooth="yes"/>
      <point x="946" y="1298"/>
      <point x="1042" y="1182"/>
      <point x="1011" y="1009" type="curve" smooth="yes"/>
      <point x="979" y="826"/>
      <point x="848" y="727"/>
      <point x="643" y="727" type="curve" smooth="yes"/>
    </contour>
    <component base="_da.arms.caps" xOffset="142" yOffset="-60"/>
  </outline>
</glyph>
<glyph name="eGlottal-ethiopic.etcp" format="2">
  <advance width="1331"/>
  <outline>
    <contour>
      <point x="100" y="1511" type="line"/>
      <point x="260" y="1511" type="line"/>
      <point x="300" y="1739" type="line"/>
      <point x="140" y="1739" type="line"/>
    </contour>
    <component base="aGlottal-ethiopic.etcp" xOffset="27"/>
  </outline>
</glyph>
<glyph name="eeGlottal-ethiopic.etcp" format="2">
  <advance width="1304"/>
  <outline>
    <contour>
      <point x="717" y="-69" type="curve" smooth="yes"/>
      <point x="815" y="-69"/>
      <point x="899" y="1"/>
      <point x="915" y="94" type="curve" smooth="yes"/>
      <point x="932" y="189"/>
      <point x="870" y="261"/>
      <point x="776" y="261" type="curve" smooth="yes"/>
      <point x="677" y="261"/>
      <point x="589" y="187"/>
      <point x="572" y="94" type="curve" smooth="yes"/>
      <point x="556" y="2"/>
      <point x="616" y="-69"/>
    </contour>
    <contour>
      <point x="729" y="94" type="curve" smooth="yes"/>
      <point x="737" y="139"/>
      <point x="782" y="180"/>
      <point x="831" y="180" type="curve" smooth="yes"/>
      <point x="878" y="180"/>
      <point x="908" y="142"/>
      <point x="899" y="94" type="curve" smooth="yes"/>
      <point x="890" y="40"/>
      <point x="843" y="13"/>
      <point x="800" y="12" type="curve" smooth="yes"/>
      <point x="758" y="12"/>
      <point x="719" y="39"/>
    </contour>
    <component base="aGlottal-ethiopic.etcp"/>
  </outline>
</glyph>
<glyph name="fa.part" format="2">
  <outline>
    <contour>
      <point x="-651" y="12" type="line"/>
      <point x="-582" y="12" type="line"/>
      <point x="-478" y="595" type="line" smooth="yes"/>
      <point x="-454" y="731"/>
      <point x="-479" y="754"/>
      <point x="-672" y="754" type="curve" smooth="yes"/>
      <point x="-780" y="754" type="line"/>
      <point x="-790" y="637" type="line"/>
      <point x="-631" y="636" type="line" smooth="yes"/>
      <point x="-561" y="636"/>
      <point x="-545" y="614"/>
      <point x="-568" y="480" type="curve" smooth="yes"/>
    </contour>
  </outline>
</glyph>
<glyph name="fi-ethiopic.etcp" format="2">
  <advance width="1076"/>
  <outline>
    <contour>
      <point x="753" y="0" type="line"/>
      <point x="861" y="0" type="line"/>
      <point x="953" y="538" type="line"/>
      <point x="697" y="538" type="line"/>
      <point x="667" y="368" type="line"/>
      <point x="818" y="368" type="line"/>
    </contour>
    <component base="fa-ethiopic.etcp"/>
  </outline>
</glyph>
<glyph name="fi-ethiopic.liga" format="2">
  <advance width="1102"/>
  <anchor x="631" y="141" name="fa"/>
  <anchor x="606" y="3" name="haa"/>
  <anchor x="653" y="10" name="haa.acute"/>
  <anchor x="316" y="1360" name="hat.left"/>
  <anchor x="835" y="60" name="hee"/>
  <outline>
    <contour>
      <point x="909" y="148" type="line"/>
      <point x="856" y="455" type="line"/>
      <point x="653" y="550" type="line"/>
      <point x="819" y="148" type="line"/>
    </contour>
    <component base="ra.base.cap"/>
    <component base="_smart.fa" xOffset="198" yOffset="87"/>
  </outline>
</glyph>
<glyph name="five.frac0" format="2">
  <advance width="751"/>
  <note>
glyph00545
</note>
  <outline>
    <contour>
      <point x="192" y="-11" type="curve" smooth="yes"/>
      <point x="371" y="-11"/>
      <point x="505" y="93"/>
      <point x="534" y="258" type="curve" smooth="yes"/>
      <point x="562" y="419"/>
      <point x="479" y="516"/>
      <point x="308" y="516" type="curve" smooth="yes"/>
      <point x="259" y="516"/>
      <point x="211" y="506"/>
      <point x="164" y="487" type="curve"/>
      <point x="216" y="657" type="line"/>
      <point x="565" y="657" type="line"/>
      <point x="588" y="789" type="line"/>
      <point x="110" y="789" type="line"/>
      <point x="-11" y="387" type="line"/>
      <point x="110" y="356" type="line"/>
      <point x="154" y="385"/>
      <point x="201" y="399"/>
      <point x="250" y="399" type="curve" smooth="yes"/>
      <point x="348" y="399"/>
      <point x="392" y="343"/>
      <point x="377" y="260" type="curve" smooth="yes"/>
      <point x="361" y="169"/>
      <point x="302" y="117"/>
      <point x="215" y="117" type="curve" smooth="yes"/>
      <point x="129" y="117"/>
      <point x="88" y="150"/>
      <point x="93" y="216" type="curve"/>
      <point x="-62" y="216" type="line"/>
      <point x="-77" y="81"/>
      <point x="31" y="-11"/>
    </contour>
  </outline>
</glyph>
<glyph name="fwa-ethiopic.etcp" format="2">
  <advance width="1061"/>
  <outline>
    <contour>
      <point x="497" y="-422" type="line"/>
      <point x="511" y="-339" type="line"/>
      <point x="402" y="-342" type="line"/>
      <point x="474" y="-24" type="line"/>
      <point x="320" y="-24" type="line"/>
      <point x="278" y="-346" type="line"/>
      <point x="156" y="-349" type="line"/>
      <point x="144" y="-413" type="line"/>
    </contour>
    <component base="re-ethiopic.etcp" xOffset="-58"/>
    <component base="fa.part" xOffset="1011" yOffset="107"/>
  </outline>
</glyph>
<glyph name="ga-ethiopic.etcp" format="2">
  <advance width="872"/>
  <anchor x="479" y="1664" name="hat.cap"/>
  <anchor x="508" y="-2" name="hee"/>
  <anchor x="629" y="25" name="hi"/>
  <anchor x="779" y="1008" name="hu"/>
  <anchor x="459" y="1465" name="neck.cap"/>
  <outline>
    <contour>
      <point x="419" y="0" type="line"/>
      <point x="612" y="0" type="line"/>
      <point x="851" y="1354" type="line" smooth="yes"/>
      <point x="861" y="1413"/>
      <point x="826" y="1456"/>
      <point x="767" y="1456" type="curve" smooth="yes"/>
      <point x="116" y="1456" type="line"/>
      <point x="88" y="1299" type="line"/>
      <point x="648" y="1299" type="line"/>
    </contour>
  </outline>
</glyph>
<glyph name="ga.base.cap" format="2">
  <advance width="1027"/>
  <anchor x="590" y="8" name="haa.acute"/>
  <anchor x="468" y="1673" name="hat.caps"/>
  <anchor x="77" y="1305" name="he.ring.uniq"/>
  <anchor x="673" y="11" name="hee"/>
  <anchor x="631" y="105" name="hi"/>
  <anchor x="389" y="1464" name="ho"/>
  <anchor x="457.642" y="1315" name="ho.ring"/>
  <anchor x="864" y="955" name="hu"/>
  <anchor x="354" y="1463" name="neck.caps"/>
  <anchor x="206" y="1442" name="neck.left.caps"/>
  <anchor x="138" y="1625" name="nose"/>
  <outline>
    <contour>
      <point x="426" y="0" type="line"/>
      <point x="619" y="0" type="line"/>
      <point x="858" y="1354" type="line" smooth="yes"/>
      <point x="868" y="1413"/>
      <point x="833" y="1456"/>
      <point x="774" y="1456" type="curve" smooth="yes"/>
      <point x="123" y="1456" type="line"/>
      <point x="95" y="1299" type="line"/>
      <point x="655" y="1299" type="line"/>
    </contour>
  </outline>
</glyph>
<glyph name="ga.base" format="2">
  <advance width="858"/>
  <anchor x="259" y="1207" name="hat"/>
  <anchor x="302" y="1173" name="hat.002"/>
  <anchor x="605" y="14" name="hee"/>
  <anchor x="464" y="15" name="hi"/>
  <anchor x="643" y="681" name="hu"/>
  <anchor x="450" y="3" name="hwa"/>
  <anchor x="278" y="968" name="neck"/>
  <anchor x="28" y="1235" name="nose"/>
  <anchor x="142" y="1011" name="shoulder"/>
  <outline>
    <contour>
      <point x="341" y="-1" type="line"/>
      <point x="527" y="-1" type="line"/>
      <point x="625" y="557" type="line" smooth="yes"/>
      <point x="685" y="894"/>
      <point x="586" y="1082"/>
      <point x="339" y="1101" type="curve" smooth="yes"/>
      <point x="235" y="1109"/>
      <point x="98" y="1049"/>
      <point x="27" y="1007" type="curve"/>
      <point x="183" y="943" type="line"/>
      <point x="206" y="954"/>
      <point x="247" y="982"/>
      <point x="314" y="960" type="curve" smooth="yes"/>
      <point x="443" y="918"/>
      <point x="480" y="811"/>
      <point x="442" y="564" type="curve"/>
    </contour>
  </outline>
</glyph>
<glyph name="gwaa-ethiopic.etcp" format="2">
  <advance width="1128"/>
  <anchor x="479" y="1664" name="hat.cap"/>
  <anchor x="508" y="-2" name="hee"/>
  <anchor x="629" y="25" name="hi"/>
  <anchor x="779" y="1008" name="hu"/>
  <anchor x="459" y="1465" name="neck.cap"/>
  <outline>
    <contour>
      <point x="604" y="-330" type="line"/>
      <point x="726" y="-330" type="line"/>
      <point x="800" y="12" type="line"/>
      <point x="656" y="12" type="line"/>
      <point x="656" y="11" type="line"/>
      <point x="223" y="11" type="line"/>
      <point x="197" y="-140" type="line"/>
      <point x="634" y="-140" type="line"/>
    </contour>
    <component base="ga-ethiopic.etcp"/>
  </outline>
</glyph>
<glyph name="ha-ethiopic.etcp" format="2">
  <advance width="1328"/>
  <anchor x="922" y="8" name="haa"/>
  <anchor x="909" y="3" name="hee"/>
  <anchor x="940" y="3" name="hi"/>
  <anchor x="1194" y="1092" name="hu"/>
  <anchor x="902" y="7" name="hwa"/>
  <outline>
    <contour>
      <point x="471" y="-20" type="curve" smooth="yes"/>
      <point x="775" y="-20"/>
      <point x="1037" y="191"/>
      <point x="1085" y="466" type="curve" smooth="yes"/>
      <point x="1260" y="1456" type="line"/>
      <point x="1067" y="1456" type="line"/>
      <point x="893" y="469" type="line" smooth="yes"/>
      <point x="856" y="258"/>
      <point x="715" y="137"/>
      <point x="498" y="137" type="curve" smooth="yes"/>
      <point x="283" y="137"/>
      <point x="185" y="259"/>
      <point x="222" y="470" type="curve" smooth="yes"/>
      <point x="396" y="1456" type="line"/>
      <point x="206" y="1456" type="line"/>
      <point x="31" y="464" type="line" smooth="yes"/>
      <point x="-22" y="163"/>
      <point x="153" y="-20"/>
    </contour>
  </outline>
</glyph>
<glyph name="ha.base.cap" format="2">
  <advance width="1373"/>
  <anchor x="901" y="0" name="haa"/>
  <anchor x="419" y="1083" name="he.left.inner"/>
  <anchor x="258" y="1081" name="he.left.outer"/>
  <anchor x="879" y="6" name="hee"/>
  <anchor x="858" y="-290" name="hi"/>
  <anchor x="1391" y="1407" name="ho.ring"/>
  <anchor x="1266" y="1086" name="hu"/>
  <outline>
    <contour>
      <point x="471" y="-20" type="curve" smooth="yes"/>
      <point x="819" y="3"/>
      <point x="1036" y="191"/>
      <point x="1085" y="466" type="curve" smooth="yes"/>
      <point x="1260" y="1456" type="line"/>
      <point x="1067" y="1456" type="line"/>
      <point x="893" y="469" type="line" smooth="yes"/>
      <point x="856" y="258"/>
      <point x="716" y="137"/>
      <point x="498" y="137" type="curve" smooth="yes"/>
      <point x="284" y="137"/>
      <point x="185" y="259"/>
      <point x="222" y="470" type="curve" smooth="yes"/>
      <point x="396" y="1456" type="line"/>
      <point x="206" y="1456" type="line"/>
      <point x="31" y="464" type="line" smooth="yes"/>
      <point x="-22" y="164"/>
      <point x="152" y="-20"/>
    </contour>
  </outline>
</glyph>
<glyph name="ha.base" format="2">
  <advance width="1174"/>
  <anchor x="678" y="0" name="haa"/>
  <anchor x="106" y="739" name="he"/>
  <anchor x="319.283" y="783" name="he.left.inner"/>
  <anchor x="687" y="0" name="hee"/>
  <anchor x="671" y="-262" name="hi"/>
  <anchor x="1121" y="1042" name="ho.ring"/>
  <anchor x="898" y="570" name="hu"/>
  <anchor x="694" y="0" name="hwa"/>
  <outline>
    <contour>
      <point x="386" y="-20" type="curve" smooth="yes"/>
      <point x="615" y="-20"/>
      <point x="817" y="109"/>
      <point x="862" y="367" type="curve" smooth="yes"/>
      <point x="988" y="1082" type="line"/>
      <point x="803" y="1082" type="line"/>
      <point x="677" y="366" type="line" smooth="yes"/>
      <point x="650" y="210"/>
      <point x="567" y="137"/>
      <point x="419" y="137" type="curve" smooth="yes"/>
      <point x="257" y="137"/>
      <point x="170" y="220"/>
      <point x="196" y="366" type="curve" smooth="yes"/>
      <point x="322" y="1082" type="line"/>
      <point x="137" y="1082" type="line"/>
      <point x="5" y="334" type="line" smooth="yes"/>
      <point x="-32" y="125"/>
      <point x="122" y="-20"/>
    </contour>
  </outline>
</glyph>
<glyph name="hha.base.cap" format="2">
  <advance width="1788"/>
  <anchor x="1371" y="0" name="haa"/>
  <anchor x="1329" y="-16" name="hee"/>
  <anchor x="1432" y="0" name="hi"/>
  <anchor x="63" y="2" name="ho"/>
  <anchor x="1617" y="1081" name="hu"/>
  <anchor x="1337" y="1" name="hwa"/>
  <outline>
    <contour>
      <point x="-22" y="0" type="line"/>
      <point x="170" y="0" type="line"/>
      <point x="359" y="1176" type="line"/>
      <point x="628" y="0" type="line"/>
      <point x="775" y="0" type="line"/>
      <point x="1461" y="1179" type="line"/>
      <point x="1235" y="0" type="line"/>
      <point x="1427" y="0" type="line"/>
      <point x="1684" y="1456" type="line"/>
      <point x="1435" y="1456" type="line"/>
      <point x="749" y="268" type="line"/>
      <point x="483" y="1456" type="line"/>
      <point x="235" y="1456" type="line"/>
    </contour>
  </outline>
</glyph>
<glyph name="hha.base" format="2">
  <advance width="1820"/>
  <anchor x="870" y="7" name="cha"/>
  <anchor x="1383" y="0" name="haa"/>
  <anchor x="1640" y="663" name="he"/>
  <anchor x="967" y="-3" name="he.acute.bottom"/>
  <anchor x="906" y="1159" name="he.acute.top"/>
  <anchor x="1301" y="50" name="hee"/>
  <anchor x="1456" y="110" name="hi"/>
  <anchor x="43" y="0" name="ho"/>
  <anchor x="1640" y="663" name="hu"/>
  <anchor x="1366" y="0" name="hwa"/>
  <anchor x="874" y="1106" name="neck"/>
  <outline>
    <contour>
      <point x="-42" y="0" type="line"/>
      <point x="143" y="0" type="line"/>
      <point x="258" y="709" type="line" smooth="yes"/>
      <point x="288" y="893"/>
      <point x="412" y="945"/>
      <point x="529" y="945" type="curve" smooth="yes"/>
      <point x="683" y="945"/>
      <point x="746" y="866"/>
      <point x="718" y="709" type="curve" smooth="yes"/>
      <point x="593" y="0" type="line"/>
      <point x="779" y="0" type="line"/>
      <point x="906" y="718" type="line" smooth="yes"/>
      <point x="931" y="858"/>
      <point x="1059" y="945"/>
      <point x="1196" y="945" type="curve" smooth="yes"/>
      <point x="1363" y="945"/>
      <point x="1413" y="869"/>
      <point x="1386" y="714" type="curve" smooth="yes"/>
      <point x="1260" y="0" type="line"/>
      <point x="1445" y="0" type="line"/>
      <point x="1573" y="725" type="line" smooth="yes"/>
      <point x="1617" y="976"/>
      <point x="1515" y="1102"/>
      <point x="1278" y="1102" type="curve" smooth="yes"/>
      <point x="1121" y="1102"/>
      <point x="992" y="1032"/>
      <point x="902" y="928" type="curve"/>
      <point x="827" y="1044"/>
      <point x="770" y="1107"/>
      <point x="534" y="1102" type="curve" smooth="yes"/>
      <point x="356" y="1098"/>
      <point x="115" y="968"/>
      <point x="73" y="709" type="curve" smooth="yes"/>
    </contour>
  </outline>
</glyph>
<glyph name="la-ethiopic.etcp" format="2">
  <advance width="1304"/>
  <anchor x="1025" y="8" name="haa"/>
  <anchor x="983" y="-19" name="hee"/>
  <anchor x="1089" y="5" name="hi"/>
  <anchor x="827" y="1089" name="hu"/>
  <anchor x="1001" y="-1" name="hwa"/>
  <outline>
    <contour>
      <point x="-160" y="0" type="line"/>
      <point x="49" y="0" type="line"/>
      <point x="647" y="1041" type="line"/>
      <point x="879" y="0" type="line"/>
      <point x="1089" y="0" type="line"/>
      <point x="778" y="1296" type="line"/>
      <point x="608" y="1296" type="line"/>
    </contour>
    <component base="acute" xScale="-0.82904" xyScale="0.55919" yxScale="0.55919" yScale="0.82904" xOffset="212" yOffset="15"/>
  </outline>
</glyph>
<glyph name="la.base" format="2">
  <advance width="1128"/>
  <anchor x="728" y="12" name="haa"/>
  <anchor x="11" y="585" name="he"/>
  <anchor x="733" y="0" name="hee"/>
  <anchor x="822" y="93" name="hi"/>
  <anchor x="946" y="667" name="hu"/>
  <anchor x="717" y="2" name="hwa"/>
  <outline>
    <contour>
      <point x="-51" y="0" type="line"/>
      <point x="134" y="0" type="line"/>
      <point x="270" y="771" type="line"/>
      <point x="340" y="875"/>
      <point x="445" y="945"/>
      <point x="565" y="945" type="curve" smooth="yes"/>
      <point x="713" y="945"/>
      <point x="768" y="872"/>
      <point x="741" y="716" type="curve" smooth="yes"/>
      <point x="615" y="0" type="line"/>
      <point x="800" y="0" type="line"/>
      <point x="926" y="715" type="line" smooth="yes"/>
      <point x="971" y="973"/>
      <point x="877" y="1102"/>
      <point x="649" y="1102" type="curve" smooth="yes"/>
      <point x="517" y="1102"/>
      <point x="402" y="1052"/>
      <point x="302" y="951" type="curve"/>
      <point x="405" y="1536" type="line"/>
      <point x="220" y="1536" type="line"/>
    </contour>
  </outline>
</glyph>
<glyph name="le-ethiopic.etcp" format="2">
  <advance width="1304"/>
  <anchor x="1025" y="8" name="haa"/>
  <anchor x="983" y="-19" name="hee"/>
  <anchor x="1089" y="5" name="hi"/>
  <anchor x="827" y="1089" name="hu"/>
  <anchor x="1001" y="-1" name="hwa"/>
  <outline>
    <contour>
      <point x="665" y="-110" type="curve" smooth="yes"/>
      <point x="762" y="-110"/>
      <point x="846" y="-40"/>
      <point x="863" y="53" type="curve" smooth="yes"/>
      <point x="879" y="148"/>
      <point x="818" y="220"/>
      <point x="723" y="220" type="curve" smooth="yes"/>
      <point x="624" y="220"/>
      <point x="536" y="146"/>
      <point x="520" y="53" type="curve" smooth="yes"/>
      <point x="503" y="-39"/>
      <point x="564" y="-110"/>
    </contour>
    <contour>
      <point x="677" y="53" type="curve" smooth="yes"/>
      <point x="684" y="98"/>
      <point x="730" y="139"/>
      <point x="779" y="139" type="curve" smooth="yes"/>
      <point x="826" y="139"/>
      <point x="855" y="101"/>
      <point x="847" y="53" type="curve" smooth="yes"/>
      <point x="837" y="-1"/>
      <point x="790" y="-28"/>
      <point x="747" y="-29" type="curve" smooth="yes"/>
      <point x="705" y="-29"/>
      <point x="667" y="-2"/>
    </contour>
    <component base="la-ethiopic.etcp"/>
  </outline>
</glyph>
<glyph name="lee-ethiopic.etcp" format="2">
  <advance width="1304"/>
  <anchor x="1025" y="8" name="haa"/>
  <anchor x="983" y="-19" name="hee"/>
  <anchor x="1089" y="5" name="hi"/>
  <anchor x="827" y="1089" name="hu"/>
  <anchor x="1001" y="-1" name="hwa"/>
  <outline>
    <contour>
      <point x="189" y="-119" type="curve" smooth="yes"/>
      <point x="286" y="-119"/>
      <point x="371" y="-49"/>
      <point x="387" y="44" type="curve" smooth="yes"/>
      <point x="404" y="139"/>
      <point x="342" y="211"/>
      <point x="247" y="211" type="curve" smooth="yes"/>
      <point x="148" y="211"/>
      <point x="60" y="137"/>
      <point x="44" y="44" type="curve" smooth="yes"/>
      <point x="28" y="-48"/>
      <point x="88" y="-119"/>
    </contour>
    <contour>
      <point x="81" y="44" type="curve" smooth="yes"/>
      <point x="89" y="89"/>
      <point x="134" y="130"/>
      <point x="183" y="130" type="curve" smooth="yes"/>
      <point x="230" y="130"/>
      <point x="259" y="92"/>
      <point x="251" y="44" type="curve" smooth="yes"/>
      <point x="241" y="-10"/>
      <point x="195" y="-37"/>
      <point x="152" y="-38" type="curve" smooth="yes"/>
      <point x="110" y="-38"/>
      <point x="71" y="-11"/>
    </contour>
    <component base="la-ethiopic.etcp"/>
  </outline>
</glyph>
<glyph name="ma-ethiopic.etcp" format="2">
  <advance width="1727"/>
  <anchor x="1197" y="11" name="haa"/>
  <anchor x="1193" y="-24" name="hee"/>
  <anchor x="1424" y="13" name="hi"/>
  <anchor x="208" y="7" name="ho"/>
  <anchor x="1592" y="1087" name="hu"/>
  <anchor x="1186" y="6" name="hwa"/>
  <outline>
    <contour>
      <point x="-52" y="0" type="line"/>
      <point x="396" y="0" type="line"/>
      <point x="838" y="939" type="line"/>
      <point x="979" y="0" type="line"/>
      <point x="1397" y="0" type="line"/>
      <point x="1654" y="1456" type="line"/>
      <point x="1047" y="1456" type="line"/>
      <point x="859" y="1082" type="line"/>
      <point x="803" y="1456" type="line"/>
      <point x="205" y="1456" type="line"/>
    </contour>
    <contour>
      <point x="168" y="160" type="line"/>
      <point x="372" y="1313" type="line"/>
      <point x="671" y="1313" type="line"/>
      <point x="710" y="962" type="line"/>
      <point x="323" y="160" type="line"/>
    </contour>
    <contour>
      <point x="1246" y="128" type="line"/>
      <point x="1108" y="129" type="line"/>
      <point x="973" y="962" type="line"/>
      <point x="1139" y="1331" type="line"/>
      <point x="1440" y="1331" type="line"/>
    </contour>
  </outline>
</glyph>
